<mxfile host="app.diagrams.net" modified="2022-05-16T08:37:10.277Z" agent="5.0 (Macintosh; Intel Mac OS X 10_15_7) AppleWebKit/537.36 (KHTML, like Gecko) Chrome/101.0.4951.64 Safari/537.36" etag="qKa3ywaV-7yUwcWJK3Rk" version="18.0.5" type="github">
  <diagram name="Page-1" id="c7558073-3199-34d8-9f00-42111426c3f3">
    <mxGraphModel dx="1183" dy="793" grid="1" gridSize="10" guides="1" tooltips="1" connect="1" arrows="1" fold="1" page="1" pageScale="1" pageWidth="2339" pageHeight="3300" background="none" math="0" shadow="0">
      <root>
        <mxCell id="0" />
        <mxCell id="1" parent="0" />
        <mxCell id="2" value="&lt;p style=&quot;margin: 0px; margin-top: 4px; text-align: center; text-decoration: underline;&quot;&gt;&lt;strong&gt;Process 1&lt;br /&gt;&lt;/strong&gt;&lt;/p&gt;&lt;hr /&gt;&lt;p style=&quot;margin: 0px; margin-left: 8px;&quot;&gt;System Study&lt;/p&gt;&lt;p style=&quot;margin: 0px; margin-left: 8px;&quot;&gt;Preparation&lt;/p&gt;" style="verticalAlign=middle;align=center;overflow=fill;fontSize=12;fontFamily=Helvetica;html=1;rounded=1;fontStyle=1;strokeWidth=3;fillColor=#E6FFCC" parent="1" vertex="1">
          <mxGeometry x="236" y="236" width="110" height="90" as="geometry" />
        </mxCell>
        <mxCell id="3" value="Engineering" style="whiteSpace=wrap;align=center;verticalAlign=middle;fontStyle=1;strokeWidth=3;fillColor=#FFFFCC" parent="1" vertex="1">
          <mxGeometry x="246" y="126" width="90" height="60" as="geometry" />
        </mxCell>
        <mxCell id="4" value="Investors" style="whiteSpace=wrap;align=center;verticalAlign=middle;fontStyle=1;strokeWidth=3;fillColor=#FFFFCC" parent="1" vertex="1">
          <mxGeometry x="40" y="251" width="90" height="60" as="geometry" />
        </mxCell>
        <mxCell id="5" value="ON-DEMAND SYSTEM DEVELOPMENT" style="shape=process;whiteSpace=wrap;align=center;verticalAlign=middle;size=0.0475;fontStyle=1;strokeWidth=3;fillColor=#FFCCCC" parent="1" vertex="1">
          <mxGeometry x="200.99999999999991" y="391" width="400" height="50" as="geometry" />
        </mxCell>
        <mxCell id="6" value="&lt;p style=&quot;margin: 0px; margin-top: 4px; text-align: center; text-decoration: underline;&quot;&gt;&lt;strong&gt;Process 2&lt;br /&gt;&lt;/strong&gt;&lt;/p&gt;&lt;hr /&gt;&lt;p style=&quot;margin: 0px; margin-left: 8px;&quot;&gt;System Analysis&lt;/p&gt;" style="verticalAlign=middle;align=center;overflow=fill;fontSize=12;fontFamily=Helvetica;html=1;rounded=1;fontStyle=1;strokeWidth=3;fillColor=#E6FFCC" parent="1" vertex="1">
          <mxGeometry x="390" y="146" width="110" height="90" as="geometry" />
        </mxCell>
        <mxCell id="7" value="&lt;p style=&quot;margin: 0px; margin-top: 4px; text-align: center; text-decoration: underline;&quot;&gt;&lt;strong&gt;&lt;strong&gt;Process&lt;/strong&gt; 3&lt;br /&gt;&lt;/strong&gt;&lt;/p&gt;&lt;hr /&gt;&lt;p style=&quot;margin: 0px; margin-left: 8px;&quot;&gt;List Possible&lt;/p&gt;&lt;p style=&quot;margin: 0px; margin-left: 8px;&quot;&gt;System Solutions&lt;/p&gt;" style="verticalAlign=middle;align=center;overflow=fill;fontSize=12;fontFamily=Helvetica;html=1;rounded=1;fontStyle=1;strokeWidth=3;fillColor=#E6FFCC" parent="1" vertex="1">
          <mxGeometry x="681" y="371" width="110" height="90" as="geometry" />
        </mxCell>
        <mxCell id="8" value="&lt;p style=&quot;margin: 0px; margin-top: 4px; text-align: center; text-decoration: underline;&quot;&gt;&lt;strong&gt;&lt;strong&gt;Process&lt;/strong&gt; 4&lt;br /&gt;&lt;/strong&gt;&lt;/p&gt;&lt;hr /&gt;&lt;p style=&quot;margin: 0px; margin-left: 8px;&quot;&gt;Detail Chosen&lt;/p&gt;&lt;p style=&quot;margin: 0px; margin-left: 8px;&quot;&gt;Solution&lt;/p&gt;" style="verticalAlign=middle;align=center;overflow=fill;fontSize=12;fontFamily=Helvetica;html=1;rounded=1;fontStyle=1;strokeWidth=3;fillColor=#E6FFCC" parent="1" vertex="1">
          <mxGeometry x="560" y="241" width="110" height="90" as="geometry" />
        </mxCell>
        <mxCell id="9" value="&lt;p style=&quot;margin: 0px; margin-top: 4px; text-align: center; text-decoration: underline;&quot;&gt;&lt;strong&gt;&lt;strong&gt;Process&lt;/strong&gt; 5&lt;br /&gt;&lt;/strong&gt;&lt;/p&gt;&lt;hr /&gt;&lt;p style=&quot;margin: 0px; margin-left: 8px;&quot;&gt;New System&lt;/p&gt;&lt;p style=&quot;margin: 0px; margin-left: 8px;&quot;&gt;Design&lt;/p&gt;" style="verticalAlign=middle;align=center;overflow=fill;fontSize=12;fontFamily=Helvetica;html=1;rounded=1;fontStyle=1;strokeWidth=3;fillColor=#E6FFCC" parent="1" vertex="1">
          <mxGeometry x="540" y="510" width="110" height="90" as="geometry" />
        </mxCell>
        <mxCell id="10" value="&lt;p style=&quot;margin: 0px; margin-top: 4px; text-align: center; text-decoration: underline;&quot;&gt;&lt;strong&gt;&lt;strong&gt;Process&lt;/strong&gt; 6&lt;br /&gt;&lt;/strong&gt;&lt;/p&gt;&lt;hr /&gt;&lt;p style=&quot;margin: 0px; margin-left: 8px;&quot;&gt;New&lt;/p&gt;&lt;p style=&quot;margin: 0px; margin-left: 8px;&quot;&gt;System&lt;/p&gt;&lt;p style=&quot;margin: 0px; margin-left: 8px;&quot;&gt;Construction&lt;/p&gt;" style="verticalAlign=middle;align=center;overflow=fill;fontSize=12;fontFamily=Helvetica;html=1;rounded=1;fontStyle=1;strokeWidth=3;fillColor=#E6FFCC" parent="1" vertex="1">
          <mxGeometry x="188.49999999999991" y="510" width="110" height="90" as="geometry" />
        </mxCell>
        <mxCell id="12" value="Management" style="whiteSpace=wrap;align=center;verticalAlign=middle;fontStyle=1;strokeWidth=3;fillColor=#FFFFCC" parent="1" vertex="1">
          <mxGeometry x="691" y="60.00000000000002" width="90" height="60" as="geometry" />
        </mxCell>
        <mxCell id="13" value="Management" style="whiteSpace=wrap;align=center;verticalAlign=middle;fontStyle=1;strokeWidth=3;fillColor=#FFFFCC" parent="1" vertex="1">
          <mxGeometry x="353.50000000000006" y="650" width="90" height="60" as="geometry" />
        </mxCell>
        <mxCell id="14" value="Engineering" style="whiteSpace=wrap;align=center;verticalAlign=middle;fontStyle=1;strokeWidth=3;fillColor=#FFFFCC" parent="1" vertex="1">
          <mxGeometry x="34.99999999999997" y="524.9999999999999" width="90" height="60" as="geometry" />
        </mxCell>
        <mxCell id="15" value="Vendors" style="whiteSpace=wrap;align=center;verticalAlign=middle;fontStyle=1;strokeWidth=3;fillColor=#FFFFCC" parent="1" vertex="1">
          <mxGeometry x="549.9999999999999" y="650" width="90" height="60" as="geometry" />
        </mxCell>
        <mxCell id="36" value="" style="edgeStyle=none;noEdgeStyle=1;strokeColor=#990000;strokeWidth=2" parent="1" source="3" target="2" edge="1">
          <mxGeometry width="100" height="100" relative="1" as="geometry">
            <mxPoint x="20" y="250" as="sourcePoint" />
            <mxPoint x="120" y="150" as="targetPoint" />
          </mxGeometry>
        </mxCell>
        <mxCell id="37" value="" style="edgeStyle=none;noEdgeStyle=1;strokeColor=#990000;strokeWidth=2" parent="1" source="4" target="2" edge="1">
          <mxGeometry width="100" height="100" relative="1" as="geometry">
            <mxPoint x="280" y="190" as="sourcePoint" />
            <mxPoint x="380" y="90" as="targetPoint" />
          </mxGeometry>
        </mxCell>
        <mxCell id="11" value="&lt;p style=&quot;margin: 0px; margin-top: 4px; text-align: center; text-decoration: underline;&quot;&gt;&lt;strong&gt;&lt;strong&gt;Process&lt;/strong&gt; 7&lt;br /&gt;&lt;/strong&gt;&lt;/p&gt;&lt;hr /&gt;&lt;p style=&quot;margin: 0px; margin-left: 8px;&quot;&gt;New System&lt;/p&gt;&lt;p style=&quot;margin: 0px; margin-left: 8px;&quot;&gt;Startup and&lt;/p&gt;&lt;p style=&quot;margin: 0px; margin-left: 8px;&quot;&gt;Testing&lt;/p&gt;" style="verticalAlign=middle;align=center;overflow=fill;fontSize=12;fontFamily=Helvetica;html=1;rounded=1;fontStyle=1;strokeWidth=3;fillColor=#E6FFCC" parent="1" vertex="1">
          <mxGeometry x="343.49999999999994" y="510" width="110" height="90" as="geometry" />
        </mxCell>
        <mxCell id="51" value="" style="endArrow=none;noEdgeStyle=1;strokeColor=#990000;strokeWidth=2" parent="1" source="9" target="11" edge="1">
          <mxGeometry relative="1" as="geometry">
            <mxPoint x="205.00819672131135" y="481" as="sourcePoint" />
            <mxPoint x="400.32786885245895" y="650" as="targetPoint" />
          </mxGeometry>
        </mxCell>
        <mxCell id="52" value="Desired &#xa;functionality" style="text;spacingTop=-5;align=center" parent="1" vertex="1">
          <mxGeometry x="165" y="251" width="30" height="20" as="geometry" />
        </mxCell>
        <mxCell id="53" value="Desired &#xa;functionality" style="text;spacingTop=-5;align=center" parent="1" vertex="1">
          <mxGeometry x="241" y="196" width="30" height="20" as="geometry" />
        </mxCell>
        <mxCell id="54" value="Documentation&#xa;from similar projects" style="text;spacingTop=-5;align=center" parent="1" vertex="1">
          <mxGeometry x="186" y="341" width="30" height="20" as="geometry" />
        </mxCell>
        <mxCell id="55" value="" style="edgeStyle=elbowEdgeStyle;elbow=horizontal;strokeColor=#990000;strokeWidth=2" parent="1" source="5" target="2" edge="1">
          <mxGeometry width="100" height="100" relative="1" as="geometry">
            <mxPoint x="50" y="530" as="sourcePoint" />
            <mxPoint x="150" y="430" as="targetPoint" />
            <Array as="points">
              <mxPoint x="260" y="370" />
            </Array>
          </mxGeometry>
        </mxCell>
        <mxCell id="56" value="" style="edgeStyle=elbowEdgeStyle;elbow=horizontal;strokeColor=#990000;strokeWidth=2" parent="1" source="2" target="5" edge="1">
          <mxGeometry width="100" height="100" relative="1" as="geometry">
            <mxPoint x="50" y="500" as="sourcePoint" />
            <mxPoint x="150" y="400" as="targetPoint" />
            <Array as="points">
              <mxPoint x="280" y="360" />
            </Array>
          </mxGeometry>
        </mxCell>
        <mxCell id="57" value="Elaborate&#xa;cost/benefit&#xa;ratio" style="text;spacingTop=-5;align=center" parent="1" vertex="1">
          <mxGeometry x="306" y="341" width="30" height="20" as="geometry" />
        </mxCell>
        <mxCell id="58" value="" style="edgeStyle=elbowEdgeStyle;elbow=horizontal;strokeColor=#990000;strokeWidth=2" parent="1" source="5" target="6" edge="1">
          <mxGeometry width="100" height="100" relative="1" as="geometry">
            <mxPoint x="380" y="370" as="sourcePoint" />
            <mxPoint x="480" y="270" as="targetPoint" />
            <Array as="points">
              <mxPoint x="440" y="310" />
            </Array>
          </mxGeometry>
        </mxCell>
        <mxCell id="59" value="" style="edgeStyle=elbowEdgeStyle;elbow=horizontal;strokeColor=#990000;strokeWidth=2" parent="1" source="6" target="5" edge="1">
          <mxGeometry width="100" height="100" relative="1" as="geometry">
            <mxPoint x="350" y="370" as="sourcePoint" />
            <mxPoint x="450" y="270" as="targetPoint" />
            <Array as="points">
              <mxPoint x="460" y="320" />
            </Array>
          </mxGeometry>
        </mxCell>
        <mxCell id="60" value="Existing&#xa;documentation" style="text;spacingTop=-5;align=center" parent="1" vertex="1">
          <mxGeometry x="380.0000000000001" y="280.99999999999983" width="30" height="20" as="geometry" />
        </mxCell>
        <mxCell id="61" value="Necessary&#xa;resources" style="text;spacingTop=-5;align=center" parent="1" vertex="1">
          <mxGeometry x="481.0000000000002" y="251.00000000000006" width="30" height="20" as="geometry" />
        </mxCell>
        <mxCell id="62" value="Progress&#xa;reports" style="text;spacingTop=-5;align=center" parent="1" vertex="1">
          <mxGeometry x="545.0000000000001" y="100.00000000000003" width="30" height="20" as="geometry" />
        </mxCell>
        <mxCell id="63" value="Progress&#xa;reports" style="text;spacingTop=-5;align=center" parent="1" vertex="1">
          <mxGeometry x="640" y="146.0000000000001" width="30" height="20" as="geometry" />
        </mxCell>
        <mxCell id="64" value="Progress&#xa;reports" style="text;spacingTop=-5;align=center" parent="1" vertex="1">
          <mxGeometry x="751.0000000000001" y="261.0000000000001" width="30" height="20" as="geometry" />
        </mxCell>
        <mxCell id="65" value="" style="edgeStyle=elbowEdgeStyle;elbow=horizontal;strokeColor=#990000;strokeWidth=2" parent="1" source="6" target="12" edge="1">
          <mxGeometry width="100" height="100" relative="1" as="geometry">
            <mxPoint x="260" y="180.0000000000001" as="sourcePoint" />
            <mxPoint x="360" y="80.00000000000011" as="targetPoint" />
            <Array as="points">
              <mxPoint x="445" y="140" />
            </Array>
          </mxGeometry>
        </mxCell>
        <mxCell id="66" value="" style="edgeStyle=elbowEdgeStyle;elbow=vertical;entryX=0.25;entryY=1;strokeColor=#990000;strokeWidth=2" parent="1" source="8" target="12" edge="1">
          <mxGeometry width="100" height="100" relative="1" as="geometry">
            <mxPoint x="530" y="250" as="sourcePoint" />
            <mxPoint x="630" y="150" as="targetPoint" />
          </mxGeometry>
        </mxCell>
        <mxCell id="67" value="" style="edgeStyle=elbowEdgeStyle;elbow=horizontal;strokeColor=#990000;strokeWidth=2" parent="1" source="7" target="12" edge="1">
          <mxGeometry width="100" height="100" relative="1" as="geometry">
            <mxPoint x="660.0000000000002" y="360" as="sourcePoint" />
            <mxPoint x="760.0000000000002" y="260" as="targetPoint" />
          </mxGeometry>
        </mxCell>
        <mxCell id="68" value="" style="edgeStyle=elbowEdgeStyle;elbow=horizontal;strokeColor=#990000;strokeWidth=2" parent="1" source="8" target="5" edge="1">
          <mxGeometry width="100" height="100" relative="1" as="geometry">
            <mxPoint x="570" y="380" as="sourcePoint" />
            <mxPoint x="510" y="250" as="targetPoint" />
            <Array as="points">
              <mxPoint x="570" y="360" />
            </Array>
          </mxGeometry>
        </mxCell>
        <mxCell id="69" value="" style="edgeStyle=segmentEdgeStyle;strokeColor=#990000;strokeWidth=2" parent="1" source="5" target="8" edge="1">
          <mxGeometry width="100" height="100" relative="1" as="geometry">
            <mxPoint x="340" y="360" as="sourcePoint" />
            <mxPoint x="440" y="260" as="targetPoint" />
            <Array as="points">
              <mxPoint x="520" y="286" />
            </Array>
          </mxGeometry>
        </mxCell>
        <mxCell id="70" value="Existing&#xa;Models" style="text;spacingTop=-5;align=center" parent="1" vertex="1">
          <mxGeometry x="530.0000000000002" y="340.9999999999999" width="30" height="20" as="geometry" />
        </mxCell>
        <mxCell id="71" value="Equipment&#xa;specification" style="text;spacingTop=-5;align=center" parent="1" vertex="1">
          <mxGeometry x="615" y="341" width="30" height="20" as="geometry" />
        </mxCell>
        <mxCell id="72" value="" style="edgeStyle=elbowEdgeStyle;elbow=vertical;strokeColor=#990000;strokeWidth=2" parent="1" source="5" target="7" edge="1">
          <mxGeometry width="100" height="100" relative="1" as="geometry">
            <mxPoint x="500" y="500" as="sourcePoint" />
            <mxPoint x="600" y="400" as="targetPoint" />
            <Array as="points">
              <mxPoint x="650" y="410" />
            </Array>
          </mxGeometry>
        </mxCell>
        <mxCell id="73" value="" style="edgeStyle=elbowEdgeStyle;elbow=vertical;strokeColor=#990000;strokeWidth=2" parent="1" source="7" target="5" edge="1">
          <mxGeometry width="100" height="100" relative="1" as="geometry">
            <mxPoint x="460" y="500" as="sourcePoint" />
            <mxPoint x="560" y="400" as="targetPoint" />
            <Array as="points">
              <mxPoint x="650" y="430" />
            </Array>
          </mxGeometry>
        </mxCell>
        <mxCell id="74" value="Resources" style="text;spacingTop=-5;align=center" parent="1" vertex="1">
          <mxGeometry x="621" y="390.99999999999994" width="30" height="20" as="geometry" />
        </mxCell>
        <mxCell id="75" value="System &#xa;Advantages &#xa;and Limitations" style="text;spacingTop=-5;align=center" parent="1" vertex="1">
          <mxGeometry x="630" y="431.0000000000001" width="30" height="20" as="geometry" />
        </mxCell>
        <mxCell id="76" value="" style="edgeStyle=elbowEdgeStyle;elbow=horizontal;strokeColor=#990000;strokeWidth=2" parent="1" source="9" target="5" edge="1">
          <mxGeometry width="100" height="100" relative="1" as="geometry">
            <mxPoint x="420" y="580" as="sourcePoint" />
            <mxPoint x="520" y="480" as="targetPoint" />
            <Array as="points">
              <mxPoint x="570" y="470" />
            </Array>
          </mxGeometry>
        </mxCell>
        <mxCell id="77" value="" style="edgeStyle=elbowEdgeStyle;elbow=horizontal;strokeColor=#990000;strokeWidth=2" parent="1" source="5" target="9" edge="1">
          <mxGeometry width="100" height="100" relative="1" as="geometry">
            <mxPoint x="400" y="590" as="sourcePoint" />
            <mxPoint x="500" y="490" as="targetPoint" />
            <Array as="points">
              <mxPoint x="560" y="480" />
            </Array>
          </mxGeometry>
        </mxCell>
        <mxCell id="78" value="" style="edgeStyle=elbowEdgeStyle;elbow=horizontal;strokeColor=#990000;strokeWidth=2" parent="1" source="15" target="9" edge="1">
          <mxGeometry width="100" height="100" relative="1" as="geometry">
            <mxPoint x="430" y="700" as="sourcePoint" />
            <mxPoint x="530" y="600" as="targetPoint" />
          </mxGeometry>
        </mxCell>
        <mxCell id="79" value="Hardware and&#xa;Software specs" style="text;spacingTop=-5;align=center" parent="1" vertex="1">
          <mxGeometry x="625" y="610" width="30" height="20" as="geometry" />
        </mxCell>
        <mxCell id="81" value="" style="edgeStyle=elbowEdgeStyle;elbow=horizontal;exitX=0;exitY=0.75;strokeColor=#990000;strokeWidth=2" parent="1" source="9" target="13" edge="1">
          <mxGeometry width="100" height="100" relative="1" as="geometry">
            <mxPoint x="420" y="730" as="sourcePoint" />
            <mxPoint x="520" y="630" as="targetPoint" />
            <Array as="points">
              <mxPoint x="470" y="630" />
            </Array>
          </mxGeometry>
        </mxCell>
        <mxCell id="82" value="Progress&#xa;Reports" style="text;spacingTop=-5;align=center" parent="1" vertex="1">
          <mxGeometry x="481.0000000000004" y="610.0000000000001" width="30" height="20" as="geometry" />
        </mxCell>
        <mxCell id="83" value="" style="edgeStyle=elbowEdgeStyle;elbow=horizontal;strokeColor=#990000;strokeWidth=2" parent="1" source="11" target="13" edge="1">
          <mxGeometry width="100" height="100" relative="1" as="geometry">
            <mxPoint x="200" y="660.0000000000002" as="sourcePoint" />
            <mxPoint x="230.0000000000001" y="650" as="targetPoint" />
          </mxGeometry>
        </mxCell>
        <mxCell id="84" value="Progress&#xa;Reports" style="text;spacingTop=-5;align=center" parent="1" vertex="1">
          <mxGeometry x="410.00000000000017" y="610.0000000000002" width="30" height="20" as="geometry" />
        </mxCell>
        <mxCell id="85" value="" style="edgeStyle=elbowEdgeStyle;elbow=horizontal;strokeColor=#990000;strokeWidth=2" parent="1" source="10" target="13" edge="1">
          <mxGeometry width="100" height="100" relative="1" as="geometry">
            <mxPoint x="130.0000000000001" y="740" as="sourcePoint" />
            <mxPoint x="230.0000000000001" y="640" as="targetPoint" />
            <Array as="points">
              <mxPoint x="244" y="630" />
            </Array>
          </mxGeometry>
        </mxCell>
        <mxCell id="86" value="Progress&#xa;Reports" style="text;spacingTop=-5;align=center" parent="1" vertex="1">
          <mxGeometry x="255.99999999999994" y="650.0000000000001" width="30" height="20" as="geometry" />
        </mxCell>
        <mxCell id="87" value="" style="edgeStyle=elbowEdgeStyle;elbow=vertical;strokeColor=#990000;strokeWidth=2" parent="1" source="10" target="14" edge="1">
          <mxGeometry width="100" height="100" relative="1" as="geometry">
            <mxPoint x="70" y="740" as="sourcePoint" />
            <mxPoint x="170" y="640" as="targetPoint" />
          </mxGeometry>
        </mxCell>
        <mxCell id="88" value="" style="edgeStyle=elbowEdgeStyle;elbow=horizontal;strokeColor=#990000;strokeWidth=2" parent="1" source="5" target="11" edge="1">
          <mxGeometry width="100" height="100" relative="1" as="geometry">
            <mxPoint x="50" y="500" as="sourcePoint" />
            <mxPoint x="150" y="400" as="targetPoint" />
            <Array as="points">
              <mxPoint x="390" y="470" />
            </Array>
          </mxGeometry>
        </mxCell>
        <mxCell id="89" value="" style="edgeStyle=elbowEdgeStyle;elbow=horizontal;strokeColor=#990000;strokeWidth=2" parent="1" source="11" target="5" edge="1">
          <mxGeometry width="100" height="100" relative="1" as="geometry">
            <mxPoint x="59.999999999999886" y="510" as="sourcePoint" />
            <mxPoint x="159.9999999999999" y="410" as="targetPoint" />
            <Array as="points">
              <mxPoint x="410" y="470" />
            </Array>
          </mxGeometry>
        </mxCell>
        <mxCell id="90" value="Version&#xa;specs" style="text;spacingTop=-5;align=center" parent="1" vertex="1">
          <mxGeometry x="261" y="461" width="30" height="20" as="geometry" />
        </mxCell>
        <mxCell id="91" value="Certificates,&#xa;system&#xa;libraries" style="text;spacingTop=-5;align=center" parent="1" vertex="1">
          <mxGeometry x="180" y="461.0000000000002" width="30" height="20" as="geometry" />
        </mxCell>
        <mxCell id="92" value="" style="edgeStyle=elbowEdgeStyle;elbow=horizontal;strokeColor=#990000;strokeWidth=2" parent="1" source="5" target="10" edge="1">
          <mxGeometry width="100" height="100" relative="1" as="geometry">
            <mxPoint x="30.000000000000114" y="500" as="sourcePoint" />
            <mxPoint x="130.0000000000001" y="400" as="targetPoint" />
            <Array as="points">
              <mxPoint x="250" y="470" />
            </Array>
          </mxGeometry>
        </mxCell>
        <mxCell id="93" value="" style="edgeStyle=elbowEdgeStyle;elbow=horizontal;strokeColor=#990000;strokeWidth=2" parent="1" source="10" target="5" edge="1">
          <mxGeometry width="100" height="100" relative="1" as="geometry">
            <mxPoint x="40" y="510" as="sourcePoint" />
            <mxPoint x="140" y="410" as="targetPoint" />
            <Array as="points">
              <mxPoint x="230" y="470" />
            </Array>
          </mxGeometry>
        </mxCell>
        <mxCell id="94" value="System&#xa;specs" style="text;spacingTop=-5;align=center" parent="1" vertex="1">
          <mxGeometry x="139.99999999999994" y="565.0000000000001" width="30" height="20" as="geometry" />
        </mxCell>
        <mxCell id="95" value="Design&#xa;specs" style="text;spacingTop=-5;align=center" parent="1" vertex="1">
          <mxGeometry x="423.49999999999994" y="461.0000000000002" width="30" height="20" as="geometry" />
        </mxCell>
        <mxCell id="96" value="System&#xa;version" style="text;spacingTop=-5;align=center" parent="1" vertex="1">
          <mxGeometry x="350.9999999999998" y="461" width="30" height="20" as="geometry" />
        </mxCell>
        <mxCell id="bz0ATMU9IjjyyM_NNCne-96" style="edgeStyle=orthogonalEdgeStyle;rounded=0;orthogonalLoop=1;jettySize=auto;html=1;exitX=0;exitY=0.25;exitDx=0;exitDy=0;entryX=0.25;entryY=0;entryDx=0;entryDy=0;" edge="1" parent="1" source="52" target="52">
          <mxGeometry relative="1" as="geometry" />
        </mxCell>
        <mxCell id="rb6TEUz1slZ_F2wcG-R_-285" style="edgeStyle=orthogonalEdgeStyle;shape=link;rounded=0;orthogonalLoop=1;jettySize=auto;html=1;entryX=0;entryY=0.5;entryDx=0;entryDy=0;fontSize=12;fontColor=#000000;sourcePerimeterSpacing=2;targetPerimeterSpacing=2;strokeColor=#000000;strokeWidth=1;" edge="1" parent="1" source="rb6TEUz1slZ_F2wcG-R_-97" target="rb6TEUz1slZ_F2wcG-R_-242">
          <mxGeometry relative="1" as="geometry" />
        </mxCell>
        <mxCell id="rb6TEUz1slZ_F2wcG-R_-97" value="图片资源" style="rounded=0;whiteSpace=wrap;html=1;strokeWidth=2;" vertex="1" parent="1">
          <mxGeometry x="350" y="1076" width="120" height="60" as="geometry" />
        </mxCell>
        <mxCell id="rb6TEUz1slZ_F2wcG-R_-192" style="edgeStyle=orthogonalEdgeStyle;rounded=0;orthogonalLoop=1;jettySize=auto;html=1;shape=link;" edge="1" parent="1" source="rb6TEUz1slZ_F2wcG-R_-166" target="rb6TEUz1slZ_F2wcG-R_-97">
          <mxGeometry relative="1" as="geometry" />
        </mxCell>
        <object label="图片资源详情" dfdsfdsf="" id="rb6TEUz1slZ_F2wcG-R_-166">
          <mxCell style="shape=table;startSize=90;container=1;collapsible=0;childLayout=tableLayout;fixedRows=1;rowLines=1;fontStyle=1;strokeWidth=2;" vertex="1" parent="1">
            <mxGeometry x="73.5" y="910" width="205.5" height="392" as="geometry" />
          </mxCell>
        </object>
        <mxCell id="rb6TEUz1slZ_F2wcG-R_-167" value="" style="shape=tableRow;horizontal=0;startSize=0;swimlaneHead=0;swimlaneBody=0;top=0;left=0;bottom=0;right=0;collapsible=0;dropTarget=0;fillColor=none;points=[[0,0.5],[1,0.5]];portConstraint=eastwest;strokeWidth=2;" vertex="1" parent="rb6TEUz1slZ_F2wcG-R_-166">
          <mxGeometry y="90" width="205.5" height="43" as="geometry" />
        </mxCell>
        <mxCell id="rb6TEUz1slZ_F2wcG-R_-168" value="1" style="shape=partialRectangle;html=1;whiteSpace=wrap;connectable=0;fillColor=none;top=0;left=0;bottom=0;right=0;overflow=hidden;pointerEvents=1;strokeWidth=2;" vertex="1" parent="rb6TEUz1slZ_F2wcG-R_-167">
          <mxGeometry width="41" height="43" as="geometry">
            <mxRectangle width="41" height="43" as="alternateBounds" />
          </mxGeometry>
        </mxCell>
        <mxCell id="rb6TEUz1slZ_F2wcG-R_-169" value="npic(二进制文件)" style="shape=partialRectangle;html=1;whiteSpace=wrap;connectable=0;fillColor=none;top=0;left=0;bottom=0;right=0;align=left;spacingLeft=6;overflow=hidden;strokeWidth=2;" vertex="1" parent="rb6TEUz1slZ_F2wcG-R_-167">
          <mxGeometry x="41" width="165" height="43" as="geometry">
            <mxRectangle width="165" height="43" as="alternateBounds" />
          </mxGeometry>
        </mxCell>
        <mxCell id="rb6TEUz1slZ_F2wcG-R_-170" value="" style="shape=tableRow;horizontal=0;startSize=0;swimlaneHead=0;swimlaneBody=0;top=0;left=0;bottom=0;right=0;collapsible=0;dropTarget=0;fillColor=none;points=[[0,0.5],[1,0.5]];portConstraint=eastwest;strokeWidth=2;" vertex="1" parent="rb6TEUz1slZ_F2wcG-R_-166">
          <mxGeometry y="133" width="205.5" height="44" as="geometry" />
        </mxCell>
        <mxCell id="rb6TEUz1slZ_F2wcG-R_-171" value="2" style="shape=partialRectangle;html=1;whiteSpace=wrap;connectable=0;fillColor=none;top=0;left=0;bottom=0;right=0;overflow=hidden;strokeWidth=2;" vertex="1" parent="rb6TEUz1slZ_F2wcG-R_-170">
          <mxGeometry width="41" height="44" as="geometry">
            <mxRectangle width="41" height="44" as="alternateBounds" />
          </mxGeometry>
        </mxCell>
        <mxCell id="rb6TEUz1slZ_F2wcG-R_-172" value="400线稿图" style="shape=partialRectangle;html=1;whiteSpace=wrap;connectable=0;fillColor=none;top=0;left=0;bottom=0;right=0;align=left;spacingLeft=6;overflow=hidden;strokeWidth=2;" vertex="1" parent="rb6TEUz1slZ_F2wcG-R_-170">
          <mxGeometry x="41" width="165" height="44" as="geometry">
            <mxRectangle width="165" height="44" as="alternateBounds" />
          </mxGeometry>
        </mxCell>
        <mxCell id="rb6TEUz1slZ_F2wcG-R_-173" value="" style="shape=tableRow;horizontal=0;startSize=0;swimlaneHead=0;swimlaneBody=0;top=0;left=0;bottom=0;right=0;collapsible=0;dropTarget=0;fillColor=none;points=[[0,0.5],[1,0.5]];portConstraint=eastwest;strokeWidth=2;" vertex="1" parent="rb6TEUz1slZ_F2wcG-R_-166">
          <mxGeometry y="177" width="205.5" height="43" as="geometry" />
        </mxCell>
        <mxCell id="rb6TEUz1slZ_F2wcG-R_-174" value="3" style="shape=partialRectangle;html=1;whiteSpace=wrap;connectable=0;fillColor=none;top=0;left=0;bottom=0;right=0;overflow=hidden;strokeWidth=2;" vertex="1" parent="rb6TEUz1slZ_F2wcG-R_-173">
          <mxGeometry width="41" height="43" as="geometry">
            <mxRectangle width="41" height="43" as="alternateBounds" />
          </mxGeometry>
        </mxCell>
        <mxCell id="rb6TEUz1slZ_F2wcG-R_-175" value="2048线稿图" style="shape=partialRectangle;html=1;whiteSpace=wrap;connectable=0;fillColor=none;top=0;left=0;bottom=0;right=0;align=left;spacingLeft=6;overflow=hidden;strokeWidth=2;" vertex="1" parent="rb6TEUz1slZ_F2wcG-R_-173">
          <mxGeometry x="41" width="165" height="43" as="geometry">
            <mxRectangle width="165" height="43" as="alternateBounds" />
          </mxGeometry>
        </mxCell>
        <mxCell id="rb6TEUz1slZ_F2wcG-R_-201" style="shape=tableRow;horizontal=0;startSize=0;swimlaneHead=0;swimlaneBody=0;top=0;left=0;bottom=0;right=0;collapsible=0;dropTarget=0;fillColor=none;points=[[0,0.5],[1,0.5]];portConstraint=eastwest;strokeWidth=2;" vertex="1" parent="rb6TEUz1slZ_F2wcG-R_-166">
          <mxGeometry y="220" width="205.5" height="43" as="geometry" />
        </mxCell>
        <mxCell id="rb6TEUz1slZ_F2wcG-R_-202" value="4" style="shape=partialRectangle;html=1;whiteSpace=wrap;connectable=0;fillColor=none;top=0;left=0;bottom=0;right=0;overflow=hidden;strokeWidth=2;" vertex="1" parent="rb6TEUz1slZ_F2wcG-R_-201">
          <mxGeometry width="41" height="43" as="geometry">
            <mxRectangle width="41" height="43" as="alternateBounds" />
          </mxGeometry>
        </mxCell>
        <mxCell id="rb6TEUz1slZ_F2wcG-R_-203" value="2048彩图" style="shape=partialRectangle;html=1;whiteSpace=wrap;connectable=0;fillColor=none;top=0;left=0;bottom=0;right=0;align=left;spacingLeft=6;overflow=hidden;strokeWidth=2;" vertex="1" parent="rb6TEUz1slZ_F2wcG-R_-201">
          <mxGeometry x="41" width="165" height="43" as="geometry">
            <mxRectangle width="165" height="43" as="alternateBounds" />
          </mxGeometry>
        </mxCell>
        <mxCell id="rb6TEUz1slZ_F2wcG-R_-224" style="shape=tableRow;horizontal=0;startSize=0;swimlaneHead=0;swimlaneBody=0;top=0;left=0;bottom=0;right=0;collapsible=0;dropTarget=0;fillColor=none;points=[[0,0.5],[1,0.5]];portConstraint=eastwest;strokeWidth=2;" vertex="1" parent="rb6TEUz1slZ_F2wcG-R_-166">
          <mxGeometry y="263" width="205.5" height="43" as="geometry" />
        </mxCell>
        <mxCell id="rb6TEUz1slZ_F2wcG-R_-225" value="&lt;font color=&quot;#ff0000&quot;&gt;5&lt;/font&gt;" style="shape=partialRectangle;html=1;whiteSpace=wrap;connectable=0;fillColor=none;top=0;left=0;bottom=0;right=0;overflow=hidden;strokeWidth=2;" vertex="1" parent="rb6TEUz1slZ_F2wcG-R_-224">
          <mxGeometry width="41" height="43" as="geometry">
            <mxRectangle width="41" height="43" as="alternateBounds" />
          </mxGeometry>
        </mxCell>
        <mxCell id="rb6TEUz1slZ_F2wcG-R_-226" value="aba资源(Android资源)" style="shape=partialRectangle;html=1;whiteSpace=wrap;connectable=0;fillColor=none;top=0;left=0;bottom=0;right=0;align=left;spacingLeft=6;overflow=hidden;strokeWidth=2;" vertex="1" parent="rb6TEUz1slZ_F2wcG-R_-224">
          <mxGeometry x="41" width="165" height="43" as="geometry">
            <mxRectangle width="165" height="43" as="alternateBounds" />
          </mxGeometry>
        </mxCell>
        <mxCell id="rb6TEUz1slZ_F2wcG-R_-227" style="shape=tableRow;horizontal=0;startSize=0;swimlaneHead=0;swimlaneBody=0;top=0;left=0;bottom=0;right=0;collapsible=0;dropTarget=0;fillColor=none;points=[[0,0.5],[1,0.5]];portConstraint=eastwest;strokeWidth=2;" vertex="1" parent="rb6TEUz1slZ_F2wcG-R_-166">
          <mxGeometry y="306" width="205.5" height="43" as="geometry" />
        </mxCell>
        <mxCell id="rb6TEUz1slZ_F2wcG-R_-228" value="&lt;font color=&quot;#ff0000&quot;&gt;6&lt;/font&gt;" style="shape=partialRectangle;html=1;whiteSpace=wrap;connectable=0;fillColor=none;top=0;left=0;bottom=0;right=0;overflow=hidden;strokeWidth=2;" vertex="1" parent="rb6TEUz1slZ_F2wcG-R_-227">
          <mxGeometry width="41" height="43" as="geometry">
            <mxRectangle width="41" height="43" as="alternateBounds" />
          </mxGeometry>
        </mxCell>
        <mxCell id="rb6TEUz1slZ_F2wcG-R_-229" value="abi资源(iOS资源)" style="shape=partialRectangle;html=1;whiteSpace=wrap;connectable=0;fillColor=none;top=0;left=0;bottom=0;right=0;align=left;spacingLeft=6;overflow=hidden;strokeWidth=2;" vertex="1" parent="rb6TEUz1slZ_F2wcG-R_-227">
          <mxGeometry x="41" width="165" height="43" as="geometry">
            <mxRectangle width="165" height="43" as="alternateBounds" />
          </mxGeometry>
        </mxCell>
        <mxCell id="rb6TEUz1slZ_F2wcG-R_-230" style="shape=tableRow;horizontal=0;startSize=0;swimlaneHead=0;swimlaneBody=0;top=0;left=0;bottom=0;right=0;collapsible=0;dropTarget=0;fillColor=none;points=[[0,0.5],[1,0.5]];portConstraint=eastwest;strokeWidth=2;" vertex="1" parent="rb6TEUz1slZ_F2wcG-R_-166">
          <mxGeometry y="349" width="205.5" height="43" as="geometry" />
        </mxCell>
        <mxCell id="rb6TEUz1slZ_F2wcG-R_-231" value="&lt;font color=&quot;#ff0000&quot;&gt;7&lt;/font&gt;" style="shape=partialRectangle;html=1;whiteSpace=wrap;connectable=0;fillColor=none;top=0;left=0;bottom=0;right=0;overflow=hidden;strokeWidth=2;" vertex="1" parent="rb6TEUz1slZ_F2wcG-R_-230">
          <mxGeometry width="41" height="43" as="geometry">
            <mxRectangle width="41" height="43" as="alternateBounds" />
          </mxGeometry>
        </mxCell>
        <mxCell id="rb6TEUz1slZ_F2wcG-R_-232" value="abw资源(Win资源)" style="shape=partialRectangle;html=1;whiteSpace=wrap;connectable=0;fillColor=none;top=0;left=0;bottom=0;right=0;align=left;spacingLeft=6;overflow=hidden;strokeWidth=2;" vertex="1" parent="rb6TEUz1slZ_F2wcG-R_-230">
          <mxGeometry x="41" width="165" height="43" as="geometry">
            <mxRectangle width="165" height="43" as="alternateBounds" />
          </mxGeometry>
        </mxCell>
        <mxCell id="rb6TEUz1slZ_F2wcG-R_-241" value="其中5,6,7只有动图资源才会上传" style="text;html=1;resizable=0;autosize=1;align=center;verticalAlign=middle;points=[];fillColor=none;strokeColor=none;rounded=0;fontColor=#FF0000;" vertex="1" parent="1">
          <mxGeometry x="81" y="970" width="190" height="20" as="geometry" />
        </mxCell>
        <mxCell id="rb6TEUz1slZ_F2wcG-R_-245" style="edgeStyle=orthogonalEdgeStyle;rounded=0;orthogonalLoop=1;jettySize=auto;html=1;fontColor=#FF0000;sourcePerimeterSpacing=2;targetPerimeterSpacing=2;strokeColor=#EA6B66;strokeWidth=2;" edge="1" parent="1" source="rb6TEUz1slZ_F2wcG-R_-242" target="rb6TEUz1slZ_F2wcG-R_-244">
          <mxGeometry relative="1" as="geometry">
            <mxPoint x="645" y="1254" as="targetPoint" />
          </mxGeometry>
        </mxCell>
        <mxCell id="rb6TEUz1slZ_F2wcG-R_-242" value="&lt;p style=&quot;margin: 0px; margin-top: 4px; text-align: center; text-decoration: underline;&quot;&gt;&lt;strong&gt;&lt;strong&gt;Process&lt;/strong&gt; 1&lt;br&gt;&lt;/strong&gt;&lt;/p&gt;&lt;hr&gt;&lt;p style=&quot;margin: 0px; margin-left: 8px;&quot;&gt;上传CMS&lt;/p&gt;" style="verticalAlign=middle;align=center;overflow=fill;fontSize=12;fontFamily=Helvetica;html=1;rounded=1;fontStyle=1;strokeWidth=3;fillColor=#E6FFCC" vertex="1" parent="1">
          <mxGeometry x="590" y="1076" width="110" height="59" as="geometry" />
        </mxCell>
        <mxCell id="rb6TEUz1slZ_F2wcG-R_-248" value="不是" style="edgeStyle=orthogonalEdgeStyle;rounded=0;orthogonalLoop=1;jettySize=auto;html=1;fontColor=#000000;sourcePerimeterSpacing=2;targetPerimeterSpacing=2;strokeColor=#EA6B66;strokeWidth=2;" edge="1" parent="1" source="rb6TEUz1slZ_F2wcG-R_-244" target="rb6TEUz1slZ_F2wcG-R_-246">
          <mxGeometry relative="1" as="geometry" />
        </mxCell>
        <mxCell id="rb6TEUz1slZ_F2wcG-R_-261" style="edgeStyle=orthogonalEdgeStyle;rounded=0;orthogonalLoop=1;jettySize=auto;html=1;fontSize=14;fontColor=#000000;sourcePerimeterSpacing=2;targetPerimeterSpacing=2;strokeColor=#EA6B66;strokeWidth=2;" edge="1" parent="1" source="rb6TEUz1slZ_F2wcG-R_-244" target="rb6TEUz1slZ_F2wcG-R_-260">
          <mxGeometry relative="1" as="geometry" />
        </mxCell>
        <mxCell id="rb6TEUz1slZ_F2wcG-R_-244" value="&lt;font size=&quot;1&quot; color=&quot;#000000&quot;&gt;&lt;b style=&quot;font-size: 13px;&quot;&gt;判断是否为动图&lt;/b&gt;&lt;/font&gt;" style="html=1;whiteSpace=wrap;aspect=fixed;shape=isoRectangle;fontColor=#FF0000;strokeWidth=2;" vertex="1" parent="1">
          <mxGeometry x="570" y="1330" width="150" height="90" as="geometry" />
        </mxCell>
        <mxCell id="rb6TEUz1slZ_F2wcG-R_-262" style="edgeStyle=orthogonalEdgeStyle;rounded=0;orthogonalLoop=1;jettySize=auto;html=1;entryX=0;entryY=0.75;entryDx=0;entryDy=0;fontSize=14;fontColor=#000000;sourcePerimeterSpacing=2;targetPerimeterSpacing=2;strokeColor=#EA6B66;strokeWidth=2;" edge="1" parent="1" source="rb6TEUz1slZ_F2wcG-R_-246" target="rb6TEUz1slZ_F2wcG-R_-260">
          <mxGeometry relative="1" as="geometry">
            <Array as="points">
              <mxPoint x="396" y="1634" />
            </Array>
          </mxGeometry>
        </mxCell>
        <mxCell id="rb6TEUz1slZ_F2wcG-R_-246" value="&lt;p style=&quot;margin: 0px; margin-top: 4px; text-align: center; text-decoration: underline;&quot;&gt;&lt;strong&gt;&lt;strong&gt;Process&lt;/strong&gt;&amp;nbsp;2&lt;br&gt;&lt;/strong&gt;&lt;/p&gt;&lt;hr&gt;&lt;p style=&quot;margin: 0px; margin-left: 8px;&quot;&gt;重命名资源名&lt;/p&gt;&lt;p style=&quot;margin: 0px; margin-left: 8px;&quot;&gt;&lt;br&gt;&lt;/p&gt;" style="verticalAlign=middle;align=center;overflow=fill;fontSize=12;fontFamily=Helvetica;html=1;rounded=1;fontStyle=1;strokeWidth=3;fillColor=#E6FFCC" vertex="1" parent="1">
          <mxGeometry x="336" y="1342.75" width="120" height="64.5" as="geometry" />
        </mxCell>
        <mxCell id="rb6TEUz1slZ_F2wcG-R_-258" style="edgeStyle=orthogonalEdgeStyle;rounded=0;orthogonalLoop=1;jettySize=auto;html=1;entryX=0;entryY=0.5;entryDx=0;entryDy=0;fontSize=14;fontColor=#000000;sourcePerimeterSpacing=2;targetPerimeterSpacing=2;strokeColor=#000000;strokeWidth=1;shape=link;" edge="1" parent="1" source="rb6TEUz1slZ_F2wcG-R_-257" target="rb6TEUz1slZ_F2wcG-R_-246">
          <mxGeometry relative="1" as="geometry" />
        </mxCell>
        <mxCell id="rb6TEUz1slZ_F2wcG-R_-259" value="format: pic_${id}" style="edgeLabel;html=1;align=center;verticalAlign=middle;resizable=0;points=[];fontSize=14;fontColor=#000000;" vertex="1" connectable="0" parent="rb6TEUz1slZ_F2wcG-R_-258">
          <mxGeometry x="-0.2016" y="-3" relative="1" as="geometry">
            <mxPoint y="1" as="offset" />
          </mxGeometry>
        </mxCell>
        <UserObject label="&lt;font style=&quot;font-size: 14px;&quot;&gt;shortid(id生成器)&lt;/font&gt;" link="https://www.npmjs.com/package/shortid" id="rb6TEUz1slZ_F2wcG-R_-257">
          <mxCell style="text;html=1;strokeColor=none;fillColor=none;whiteSpace=wrap;align=center;verticalAlign=middle;fontColor=#0000EE;fontStyle=4;" vertex="1" parent="1">
            <mxGeometry x="24.5" y="1355" width="121" height="40" as="geometry" />
          </mxCell>
        </UserObject>
        <mxCell id="rb6TEUz1slZ_F2wcG-R_-265" style="edgeStyle=orthogonalEdgeStyle;rounded=0;orthogonalLoop=1;jettySize=auto;html=1;entryX=0;entryY=0.5;entryDx=0;entryDy=0;fontSize=14;fontColor=#000000;sourcePerimeterSpacing=2;targetPerimeterSpacing=2;strokeColor=#EA6B66;strokeWidth=2;" edge="1" parent="1" source="rb6TEUz1slZ_F2wcG-R_-260" target="rb6TEUz1slZ_F2wcG-R_-264">
          <mxGeometry relative="1" as="geometry" />
        </mxCell>
        <mxCell id="rb6TEUz1slZ_F2wcG-R_-260" value="&lt;p style=&quot;margin: 0px; margin-top: 4px; text-align: center; text-decoration: underline;&quot;&gt;&lt;strong&gt;&lt;strong&gt;Process&lt;/strong&gt;&amp;nbsp;3&lt;br&gt;&lt;/strong&gt;&lt;/p&gt;&lt;hr&gt;&lt;p style=&quot;margin: 0px; margin-left: 8px;&quot;&gt;压缩图片资源&lt;/p&gt;&lt;p style=&quot;margin: 0px; margin-left: 8px;&quot;&gt;&lt;br&gt;&lt;/p&gt;" style="verticalAlign=middle;align=center;overflow=fill;fontSize=12;fontFamily=Helvetica;html=1;rounded=1;fontStyle=1;strokeWidth=3;fillColor=#E6FFCC" vertex="1" parent="1">
          <mxGeometry x="585" y="1586" width="120" height="64.5" as="geometry" />
        </mxCell>
        <mxCell id="rb6TEUz1slZ_F2wcG-R_-267" style="edgeStyle=orthogonalEdgeStyle;rounded=0;orthogonalLoop=1;jettySize=auto;html=1;entryX=0;entryY=0.5;entryDx=0;entryDy=0;fontSize=14;fontColor=#000000;sourcePerimeterSpacing=2;targetPerimeterSpacing=2;strokeColor=#EA6B66;strokeWidth=2;" edge="1" parent="1" source="rb6TEUz1slZ_F2wcG-R_-264" target="rb6TEUz1slZ_F2wcG-R_-266">
          <mxGeometry relative="1" as="geometry" />
        </mxCell>
        <mxCell id="rb6TEUz1slZ_F2wcG-R_-264" value="&lt;p style=&quot;margin: 0px; margin-top: 4px; text-align: center; text-decoration: underline;&quot;&gt;&lt;strong&gt;&lt;strong&gt;Process&lt;/strong&gt;&amp;nbsp;4&lt;br&gt;&lt;/strong&gt;&lt;/p&gt;&lt;hr&gt;&lt;p style=&quot;margin: 0px; margin-left: 8px;&quot;&gt;上传至&lt;/p&gt;&lt;span style=&quot;font-size: 13px; font-weight: 400;&quot;&gt;WareHouse&amp;nbsp;&lt;/span&gt;&lt;p style=&quot;margin: 0px; margin-left: 8px;&quot;&gt;OSS仓库&lt;/p&gt;&lt;p style=&quot;margin: 0px; margin-left: 8px;&quot;&gt;&lt;br&gt;&lt;/p&gt;" style="verticalAlign=middle;align=center;overflow=fill;fontSize=12;fontFamily=Helvetica;html=1;rounded=1;fontStyle=1;strokeWidth=3;fillColor=#E6FFCC" vertex="1" parent="1">
          <mxGeometry x="850" y="1576.25" width="140" height="84" as="geometry" />
        </mxCell>
        <mxCell id="rb6TEUz1slZ_F2wcG-R_-266" value="&lt;p style=&quot;margin: 0px; margin-top: 4px; text-align: center; text-decoration: underline;&quot;&gt;&lt;strong&gt;&lt;strong&gt;Process&lt;/strong&gt;&amp;nbsp;5&lt;br&gt;&lt;/strong&gt;&lt;/p&gt;&lt;hr&gt;&lt;p style=&quot;margin: 0px; margin-left: 8px;&quot;&gt;图片配置数据入库&lt;/p&gt;&lt;p style=&quot;margin: 0px; margin-left: 8px;&quot;&gt;&lt;br&gt;&lt;/p&gt;" style="verticalAlign=middle;align=center;overflow=fill;fontSize=12;fontFamily=Helvetica;html=1;rounded=1;fontStyle=1;strokeWidth=3;fillColor=#E6FFCC" vertex="1" parent="1">
          <mxGeometry x="1350" y="1586" width="120" height="64.5" as="geometry" />
        </mxCell>
        <mxCell id="rb6TEUz1slZ_F2wcG-R_-270" style="edgeStyle=orthogonalEdgeStyle;rounded=0;orthogonalLoop=1;jettySize=auto;html=1;entryX=0.5;entryY=1;entryDx=0;entryDy=0;fontSize=14;fontColor=#000000;sourcePerimeterSpacing=2;targetPerimeterSpacing=2;strokeColor=#000000;strokeWidth=1;shape=link;" edge="1" parent="1" source="rb6TEUz1slZ_F2wcG-R_-268" target="rb6TEUz1slZ_F2wcG-R_-260">
          <mxGeometry relative="1" as="geometry" />
        </mxCell>
        <mxCell id="rb6TEUz1slZ_F2wcG-R_-268" value="&lt;font style=&quot;font-size: 12px;&quot;&gt;自定义的图片压缩接口,由云函数提供&lt;/font&gt;" style="rounded=0;whiteSpace=wrap;html=1;fontSize=14;fontColor=#000000;strokeWidth=2;" vertex="1" parent="1">
          <mxGeometry x="537.5" y="1760" width="215" height="60" as="geometry" />
        </mxCell>
        <mxCell id="rb6TEUz1slZ_F2wcG-R_-273" style="edgeStyle=orthogonalEdgeStyle;shape=link;rounded=0;orthogonalLoop=1;jettySize=auto;html=1;entryX=0.429;entryY=1.018;entryDx=0;entryDy=0;entryPerimeter=0;fontSize=12;fontColor=#000000;sourcePerimeterSpacing=2;targetPerimeterSpacing=2;strokeColor=#000000;strokeWidth=1;" edge="1" parent="1" source="rb6TEUz1slZ_F2wcG-R_-271" target="rb6TEUz1slZ_F2wcG-R_-264">
          <mxGeometry relative="1" as="geometry">
            <Array as="points">
              <mxPoint x="910" y="1730" />
              <mxPoint x="910" y="1730" />
            </Array>
          </mxGeometry>
        </mxCell>
        <mxCell id="rb6TEUz1slZ_F2wcG-R_-271" value="&lt;font style=&quot;font-size: 13px;&quot;&gt;tale-pixel-art-warehouse:&lt;br&gt;&lt;/font&gt;&lt;br&gt;&lt;font style=&quot;font-size: 12px;&quot;&gt;主要存放插画师上传的所有图片资源&lt;br&gt;&lt;br&gt;&lt;/font&gt;" style="rounded=0;whiteSpace=wrap;html=1;fontSize=13;fontColor=#000000;strokeWidth=2;align=left;" vertex="1" parent="1">
          <mxGeometry x="815" y="1760" width="210" height="80" as="geometry" />
        </mxCell>
        <mxCell id="rb6TEUz1slZ_F2wcG-R_-286" style="edgeStyle=orthogonalEdgeStyle;shape=link;rounded=0;orthogonalLoop=1;jettySize=auto;html=1;entryX=0.5;entryY=1;entryDx=0;entryDy=0;fontSize=12;fontColor=#000000;sourcePerimeterSpacing=2;targetPerimeterSpacing=2;strokeColor=#000000;strokeWidth=1;" edge="1" parent="1" source="rb6TEUz1slZ_F2wcG-R_-274" target="rb6TEUz1slZ_F2wcG-R_-266">
          <mxGeometry relative="1" as="geometry" />
        </mxCell>
        <mxCell id="rb6TEUz1slZ_F2wcG-R_-274" value="图片配置" style="rounded=0;whiteSpace=wrap;html=1;fontSize=12;fontColor=#000000;strokeWidth=2;" vertex="1" parent="1">
          <mxGeometry x="1350" y="1760" width="120" height="60" as="geometry" />
        </mxCell>
        <mxCell id="rb6TEUz1slZ_F2wcG-R_-287" style="edgeStyle=orthogonalEdgeStyle;shape=link;rounded=0;orthogonalLoop=1;jettySize=auto;html=1;entryX=0.5;entryY=1;entryDx=0;entryDy=0;fontSize=12;fontColor=#000000;sourcePerimeterSpacing=2;targetPerimeterSpacing=2;strokeColor=#000000;strokeWidth=1;" edge="1" parent="1" source="rb6TEUz1slZ_F2wcG-R_-275" target="rb6TEUz1slZ_F2wcG-R_-274">
          <mxGeometry relative="1" as="geometry" />
        </mxCell>
        <mxCell id="rb6TEUz1slZ_F2wcG-R_-275" value="图片配置详情" style="shape=table;startSize=30;container=1;collapsible=0;childLayout=tableLayout;fixedRows=1;rowLines=0;fontStyle=1;fontSize=12;fontColor=#000000;strokeWidth=2;" vertex="1" parent="1">
          <mxGeometry x="1320" y="1900" width="180" height="150" as="geometry" />
        </mxCell>
        <mxCell id="rb6TEUz1slZ_F2wcG-R_-276" value="" style="shape=tableRow;horizontal=0;startSize=0;swimlaneHead=0;swimlaneBody=0;top=0;left=0;bottom=0;right=0;collapsible=0;dropTarget=0;fillColor=none;points=[[0,0.5],[1,0.5]];portConstraint=eastwest;fontSize=12;fontColor=#000000;strokeWidth=2;" vertex="1" parent="rb6TEUz1slZ_F2wcG-R_-275">
          <mxGeometry y="30" width="180" height="30" as="geometry" />
        </mxCell>
        <mxCell id="rb6TEUz1slZ_F2wcG-R_-277" value="1" style="shape=partialRectangle;html=1;whiteSpace=wrap;connectable=0;fillColor=none;top=0;left=0;bottom=0;right=0;overflow=hidden;pointerEvents=1;fontSize=12;fontColor=#000000;strokeWidth=2;" vertex="1" parent="rb6TEUz1slZ_F2wcG-R_-276">
          <mxGeometry width="40" height="30" as="geometry">
            <mxRectangle width="40" height="30" as="alternateBounds" />
          </mxGeometry>
        </mxCell>
        <mxCell id="rb6TEUz1slZ_F2wcG-R_-278" value="Value 1" style="shape=partialRectangle;html=1;whiteSpace=wrap;connectable=0;fillColor=none;top=0;left=0;bottom=0;right=0;align=left;spacingLeft=6;overflow=hidden;fontSize=12;fontColor=#000000;strokeWidth=2;" vertex="1" parent="rb6TEUz1slZ_F2wcG-R_-276">
          <mxGeometry x="40" width="140" height="30" as="geometry">
            <mxRectangle width="140" height="30" as="alternateBounds" />
          </mxGeometry>
        </mxCell>
        <mxCell id="rb6TEUz1slZ_F2wcG-R_-279" value="" style="shape=tableRow;horizontal=0;startSize=0;swimlaneHead=0;swimlaneBody=0;top=0;left=0;bottom=0;right=0;collapsible=0;dropTarget=0;fillColor=none;points=[[0,0.5],[1,0.5]];portConstraint=eastwest;fontSize=12;fontColor=#000000;strokeWidth=2;" vertex="1" parent="rb6TEUz1slZ_F2wcG-R_-275">
          <mxGeometry y="60" width="180" height="30" as="geometry" />
        </mxCell>
        <mxCell id="rb6TEUz1slZ_F2wcG-R_-280" value="2" style="shape=partialRectangle;html=1;whiteSpace=wrap;connectable=0;fillColor=none;top=0;left=0;bottom=0;right=0;overflow=hidden;fontSize=12;fontColor=#000000;strokeWidth=2;" vertex="1" parent="rb6TEUz1slZ_F2wcG-R_-279">
          <mxGeometry width="40" height="30" as="geometry">
            <mxRectangle width="40" height="30" as="alternateBounds" />
          </mxGeometry>
        </mxCell>
        <mxCell id="rb6TEUz1slZ_F2wcG-R_-281" value="Value 2" style="shape=partialRectangle;html=1;whiteSpace=wrap;connectable=0;fillColor=none;top=0;left=0;bottom=0;right=0;align=left;spacingLeft=6;overflow=hidden;fontSize=12;fontColor=#000000;strokeWidth=2;" vertex="1" parent="rb6TEUz1slZ_F2wcG-R_-279">
          <mxGeometry x="40" width="140" height="30" as="geometry">
            <mxRectangle width="140" height="30" as="alternateBounds" />
          </mxGeometry>
        </mxCell>
        <mxCell id="rb6TEUz1slZ_F2wcG-R_-282" value="" style="shape=tableRow;horizontal=0;startSize=0;swimlaneHead=0;swimlaneBody=0;top=0;left=0;bottom=0;right=0;collapsible=0;dropTarget=0;fillColor=none;points=[[0,0.5],[1,0.5]];portConstraint=eastwest;fontSize=12;fontColor=#000000;strokeWidth=2;" vertex="1" parent="rb6TEUz1slZ_F2wcG-R_-275">
          <mxGeometry y="90" width="180" height="30" as="geometry" />
        </mxCell>
        <mxCell id="rb6TEUz1slZ_F2wcG-R_-283" value="3" style="shape=partialRectangle;html=1;whiteSpace=wrap;connectable=0;fillColor=none;top=0;left=0;bottom=0;right=0;overflow=hidden;fontSize=12;fontColor=#000000;strokeWidth=2;" vertex="1" parent="rb6TEUz1slZ_F2wcG-R_-282">
          <mxGeometry width="40" height="30" as="geometry">
            <mxRectangle width="40" height="30" as="alternateBounds" />
          </mxGeometry>
        </mxCell>
        <mxCell id="rb6TEUz1slZ_F2wcG-R_-284" value="Value 3" style="shape=partialRectangle;html=1;whiteSpace=wrap;connectable=0;fillColor=none;top=0;left=0;bottom=0;right=0;align=left;spacingLeft=6;overflow=hidden;fontSize=12;fontColor=#000000;strokeWidth=2;" vertex="1" parent="rb6TEUz1slZ_F2wcG-R_-282">
          <mxGeometry x="40" width="140" height="30" as="geometry">
            <mxRectangle width="140" height="30" as="alternateBounds" />
          </mxGeometry>
        </mxCell>
        <mxCell id="rb6TEUz1slZ_F2wcG-R_-290" style="edgeStyle=orthogonalEdgeStyle;shape=link;rounded=0;orthogonalLoop=1;jettySize=auto;html=1;fontSize=12;fontColor=#000000;sourcePerimeterSpacing=2;targetPerimeterSpacing=2;strokeColor=#000000;strokeWidth=1;width=5;" edge="1" parent="1" source="rb6TEUz1slZ_F2wcG-R_-289">
          <mxGeometry relative="1" as="geometry">
            <mxPoint x="910" y="1839" as="targetPoint" />
            <Array as="points">
              <mxPoint x="910" y="1839" />
            </Array>
          </mxGeometry>
        </mxCell>
        <mxCell id="rb6TEUz1slZ_F2wcG-R_-289" value="" style="shape=image;verticalLabelPosition=bottom;labelBackgroundColor=default;verticalAlign=top;aspect=fixed;imageAspect=0;image=data:image/png,iVBORw0KGgoAAAANSUhEUgAAA0sAAADqCAYAAABz7N6gAAABQmlDQ1BJQ0MgUHJvZmlsZQAAKJFjYGASSCwoyGFhYGDIzSspCnJ3UoiIjFJgf8bAyiDAwMMgxaCZmFxc4BgQ4ANUwgCjUcG3awyMIPqyLsgsy4un+DZudj7ouoNLf4H5LhtM9SiAKyW1OBlI/wHipOSCohIGBsYEIFu5vKQAxG4BskWKgI4CsmeA2OkQ9hoQOwnCPgBWExLkDGRfAbIFkjMSU4DsJ0C2ThKSeDoSG2ovCHAEGxk7m5obEHAq6aAktaIERDvnF1QWZaZnlCg4AkMoVcEzL1lPR8HIwMiIgQEU3hDVn8XA4cgodgohlvqfgcEUqIpJBCGWdY2BYb8uAwO/NUJMjYmBgXshA8PBewWJRYlwBzB+YylOMzaCsHmKGBhYf/z//1mWgYF9FwPD36L//3/P/f//7xIGBuabDAwHCgHjMlzXeHe0DAAAADhlWElmTU0AKgAAAAgAAYdpAAQAAAABAAAAGgAAAAAAAqACAAQAAAABAAADS6ADAAQAAAABAAAA6gAAAAAAAi7FAABAAElEQVR4AeydBdhVRRPHh26QEAmlW0AkpEQBA7sTbMVuxe7uz8RWTCywAxSxQBEUREDpbpDu8Du/xbnsPZwbL7zNzPO87z33xJ7d/9b8Z2b3Fvg3EDExBAwBQ8AQMAQMAUPAEDAEDAFDwBCIQ6Bg3Df7YggYAoaAIWAIGAKGgCFgCBgChoAh4BAoPHTo0CyFomDBglK0aFEpXbp0lr4nKvECBQrIwoULoy5l+TnKvXnz5ix/T/gFOfVe8sG7K1euLHXq1JGsblfhctt3Q8AQMAQMAUPAEDAEDAFDILMRKJDVYXgbNmyQP//8U+rXry9lypTJ7PwnTW/Tpk0ybNgw6dChQ9L7suIi5R4+fHi2vzun3guGvHvatGlSqFAhmTdvnjRu3FggrCaGgCFgCBgChoAhYAgYAoZAXkSgcFZnukiRIlKqVClZt25dtpMllPacEsqdE5JT76WsvLtWrVry22+/uaIXL17cEaecwMHeaQgYAoaAIWAIGAKGgCFgCOwoAllOlsgg3gXbR2JHqypvPA9h0vBDyCrfzbuUN+rOcmkIGAKGgCFgCBgChoAhEI+AbfAQj4d9y0QEIElGlDIRUEvKEDAEDAFDwBAwBAwBQyBbETCylK1w28sMAUPAEDAEDAFDwBAwBAwBQyCvIGBkKa/UlOXTEDAEDAFDwBAwBAwBQ8AQMASyFQEjS9kKt73MEDAEDAFDwBAwBAwBQ8AQMATyCgJGlvJKTVk+DQFDwBAwBAwBQ8AQMAQMAUMgWxHI0G54mzf/G/zwaPb+bg676O1smwSMmj5Gxs+bLKWLl5IWNZpK9fJVsrVR2MsMAUPAEDAEDAFDwBAwBAwBQ0AkbbL08cgJcsxrn8iN+7WU+47rmi3YLV61Ru7+9EepWKak9OrWVooXzr7fLlq9bqOc/GI/mbd8lXxy6UlStWzpLC/z2NkTpFffe2TgtL9i7yoc7Ch3QdtDpHv7Y+SyN++UIbd8IEUKZR0OC1eulmcGDZfT2zeXDf9ult7fjpATWzeRTvX3iOUpPxywvflnn30me+65p9StWzeuSD/99JPb8rxt27Zx59P5MmHCBPn777+lU6dOUr58+XQeyfA9n3zyiVSoUEH23XffDD/rPzB06FBZsmSJHH744f7pneJY62n//feXcuXK5doy++2UH30m3+3bt5ddd9011+Y5t2Zs0aJFQptv0KCBNGrUKEuzyQ+if/vtt+5HuitXriz77LOPVK1aNfKdf/31l7vv0EMPddeXLl0q3333ncyfP9/9mHubNm22+Y3CcePGyciRI93vF+61117SqlWruLTTSWPq1Kny66+/yooVK6RFixbSvHlzKVq0aFw64S+Ui2d4P7+jxxhUs2bN2G3kacaMGXEGzo0bNwpl2GOP+DnEb9s6BvMbfWPGjHG/z8cz1JVvLCWvv/zyi0yZMsX1gQMPPFDKli0bez8HqdJIB5u4BP/7kgzzmTNnuvcWLLg1WIfyUeZw3fhpT548Wf7888/ACF1QwLZbt25SsmRJ/xZ3zLtHjRrl6rtp06YOz21uCk6E21LUPXqOeSq3jCfUKe2duqYNHnLIIZpNWbVqlQwYMEAKF96qru6yyy7SsGFD2W233WTx4sUyZMgQ1w46d+4ce46Dn3/+WRYuXOjwWr9+veszfh1hjGdcBfcyZcq4Z6mTH374Qf755x/XxmjjderUiUtXv4wdO1a4v2PHjlKxYkV3mt8UHTRokDtP+vXr15eDDz54u35zcsGCBa695/Z5SvHIz59bW1+SUn44crwc9/KHIps2y+sj/so2sjRh7mJZtGK1+3vwi6Fy/WEdsoUwQZSOePodGTxphkOl62NvybdX98hSwjR94Uw58alLZMLKpXJGi/2kc6N2wW9TbZaPfvtanvnlS/dHZjYGA2pWkaU/Zy+QI3t/ILvvUkru/HGk9GrXTJ764TepV7l8viNLTPgvvPCCPPnkk3Etn8n40UcfldNPP92dZ/L//vvv5fjjj99mso978L8vo0ePlj59+jjFIyvIEoMv+UbZ21GyNHDgQBk/fnymkyUG+Lffflsgmyj2uVFQyF555RVB0czNZMlvpygUH3wQ9M/ddzeytB2NCoWWvkNfzkqytHr1arn++usFMlK6dGmnBL/44ouy3377yXXXXbdNzp977jmnaEGWJk6cKLfffrssX77cnfviiy/cbxRecMEFsX76zjvvyJtvvunICopf//79nTJ2+eWXu7TTSQPl89lnnxWIDGTuo48+cuk9+OCD2xiPNMMolffee6+MGDHC9ZmVK1fK+++/L5deeqlAWpBvvvlGfvzxR1dufQ7lEaU2TJb8ts29//vf/5ySyW/zgRvl5BnGYwgE48pNN90k8+bNc9igJNMf7rvvPqkV/Bh6Ommkg41LKPQvFeaQmZdeeskp3EruUM4POuigpGQJcvPqq6+6OoZcde3aNfRmcTi89dZbUqlSJWfE69evn0AKrr322m3u9dvSNhdDJ3LTeIJhgfYAYaxevXocWQJHxmp+t1GJDm0R8nTJJZe4toeBEyxpL0q8MQQ+9NBDru3RtyBO1FGUQHYgSx9//LHQV6lD2iykCbzRB0444YRtHoWYv/fee9KsWTPXJtEfrr76apk7d65rw+SXeZZ06TtKqLZJKMEJnhs8eHCs7ye4zU5nAwIpyZJPlKREMenX89hsyNaWV7Stt7uMnbNIvhs/TSbOXyLZQZjCRImc/D1/sWQ1Ybq9/6MyZdUyee6EK+W8zj1iGLer10qGP3SWzNuwLnYuKw4+HT1RjurzifTq0ELmLFkh3ZrUltsG/JIVr8oVaX799dfOWhS2GGERgpDo5M+ghwKgVt9UmWdAR/Qz1f0Zvc4gDhlDodhRYSDPinwykYFZtWrVci1Z0nIXK1ZsR2HM0uf9dlqlShU54ogjcjW5y1IwdjBxLPL0nSjL/Q4mHfc4yhVE6dRTT5UTTzzR9bEbb7zRKV5nnnmmU8L0Ae7DMn3KKae4Uyhza9askVtuuUXatWsny5Ytk549ezpSgAcY4wZEiWsoZSiMTz/9tFPIMJ60bNnSKYTJ0oC8oBCiDN5www1Su3Zt5xWBpH344YeRSjiZ4xpE6YwzznCKI4oh5AUFHcMIyibnUFYhPqnEb9t//PGHI0qkA/nC0ASJAEvIF5Z/yomXAKUTIwfYXXPNNe78I488IumkkQrfqDyngzn1hLz22mspvXP+O6hT+vTjjz/uxky8db5QRur7mGOOkfPOO89dAm/mJTxkeFhUwm1Jzyf6POmkk3LNeEL/YG47//zzJTwm63dwoi8g9Jn777/ftQ8I6RVXXCGXXXaZPP/8844gcQ9tHGMARgTmS/VMYcjQqBHmeshYqVKlnNfp5Zdfdl4osIa0Yfi48sorHWFFJ/Dx5h06jyiJu+eee5ynCyILAeO9n3/+uTNM0H+0Dnk2lUAc8TDjVdL3pHrGrmcdAknJUhxRKlRQ3jq5m1QoVVwmLvjH5ah08aKZ7m3ZFDTeBYE3SeWw5vVk0arVMmbWgiwnTFFESfORlYRp9fo1MmHBdDmv9YFxRIl39x70ulQvV0GqB8clixaXIlkQivjIwJ+l11dD5Z4D2spTP42S+UuXi4wrJvd06yBPBB6mYVNmy+YuWbtejUkQqy9ubQYwLL8MnBq6guUIbwXWRQasww47TI477jhXPUwSTCB8Mtm0bt06NugyiEKIGPBUmNiwCJ111ll6KvaJks/zhHagSBAagDz22GPuvVheZ8+e7QZiLFkMxpCCc845R/bee+9YOnrAvVhwmXCxKjFI8161Pup9+vnVV18J1mTu6du3r8yaNct5EU4++WQ3+HIfAzLhKRdddJGgJIDJ3Xff7coORsOGDXOKFOExlJMJnHzUCqyv4HbAAQfo61J+YnEmXBErLhMK4UQXXnihUwiwklNPhE2g0IA9Cunvv//u0uU5BvvbbrtNUPR9IZQQrFH4yBfhUVhvKRvY6/VevXq58jOJYRkkJANF6qijjnIKBCE/YHDkkUe6yQ4LLxiDTTLsFX9Cs2h3pIN1EOshkyRCW0S5pl1h6absZ599tpQoUcJNgFjnUdY0DAmcwRtFkckTJYfy095IEyVTQ3KS5U1xCrdTPJxffvmlw4w+wnsoN/WN8kBIKe/49NNP3Tks0SgYHTp0cEnyThSIRO2WesNKCiY1atRwODLRo7zS3lDAwWr48OEuPRRWPB7UF/lJVl4tk//5zDPPuDAg+pQqie+++64LqUF5os3gNaHMYNG4cWPp0aOHC79JVu+JxgqeeeKJJxwmhMWgJFFntCs8OZQZC7L2Y8YMjvE8YkTBCEB4bffu3RP2X8rXpEkTob9CgFTJUSUL74EvtCGuqfKGxwAPFGQIgYCAjT5HG0Boh0r6qHMs83i1IUup0qDclAErPEQJwbuE6Hvcl9A/cKVNQQDpP+By7LHHOkV/0qRJDisUeEKEIU148rhf0/aTC7dt0gJ72qp65DXUlDyhtEKG8FTT7hDyDkEEE+omVRo8kwob7glLOpjjxdD6YKxnjABfHWfCaer38PXwd+YC0oVkU2/0QcbfKAm3JcZWxpu1a9e68RWMCLeEcNCu/PGEMZjxgXmU8UHHeubgjBrm6NfMF7RpxiL6AOMQeLz++utuTqUeGWu1X/jl9o+jysk5CDllY3zC08j4CvljDKIv0O6Yk+jn9EdfIE1+uKmSMfo4Zb3qqqvcmMYzYM/8Ah7al/209Jg8oyswZ0BsaWcqEGL6s3qVGCsTjWv6DJ+M6/QTDAUmOY9AQrI0OPDmaOidy2YQgtcj8DzESYEgPviGc6RljXhFKO6eDH55bvAI+Xny7IRP4WF65KthcssRO7ZeI+oFR/XeGnrXeo8qMmLmPHebHith+vWGs6VMQBQzS0oWLSFDbw3CHCPkidPuijibeaeufu9r6f9HEPrRubXcMnCoyPqNWxJfu05u+eJHubZzG/lu4gw57tn35aNLTsq8F3spMQmgHDEh4sFRawwWICxFDPIPP/ywG3wvvvhiZ0XFLc+AycRJmAYTKlbOadOmOcsqE+5pp53mlGAGOl9Q0hncwqQBhZPnNQQP5ZnBEiKHIsqkz0B35513uokLIoZiwASDwoey7wsW3JtvvtkpO0xQDKa41VGkmfyiBAyIx8d6iuKDsoYFlvQpJ/HPWBUZeCkDiguTIpMQgyphMRAiFHjSIa9MkIQeocijLDJBqdIelQc9x+SBJZbBHqw01IRJDyWJyZV3UB6IBMot5BYCiaKE8lmvXj2nOGia+onyjeJN3HytYKJmYiMtFHHeRXw+MeOEnGF1hXQwcUPOwJB8scaCiY/naCco7ZyjrtLFHnIGzoS/YMVGGYEkT58+3dUdZUIZpTzgATG944473H2815/Ymdh4jkkV8ofij1JKfrCSP/DAA/LGG2+4Z9JpF+F2St54J22QP45pe9QlSiPEFss/7ZQ2QLvhnWCF4pms3VIPeBaoC5QO+gFKD/1KFWjaHwo5bQ5lEEspIVD8EdKTqLxKhLTu9ZP+BRGiXWKFRcgz/ZV2RD2DG4oW7QVlEKMA7QGJqndIT6KxAgWRZ+hjCOlAlCAnrH8gL2CAcsT76Gf88RxKF/nEgAFGml+XUOgf9aH9i3qiDLQHzqnxh0ewHBPm06VLl1h4ke/BxjCA9Zx+oOMFiiGKnhJ60kExpD4gg0iqNCiPGpq4n7q+6667Ykot56KE8Yvxx2/zaiggDcYqyBLheRh76IMIijFGD19BDbdtMOVPBVzAjXGOtk25wcu/h3sZYziPUQny5F8Pp8H9qbDhnrCkgzlkibrGc0B9IeSFfu7XeTjtVN8ZY6lr+h5tiL6IRxBviZJG0ohqS2CCoYfxnrkBQss4Sv1gwPLHE+ZgzvGJR5S2h8EK0st4mBGBKBG+Tl+j37Ce6KmnnnIGJ8ZZ2hBjLWlDTLZHGGuZI9AVmIMRxiWtc8YQyn3uuedukzw4Mp4j4Enfp+2SX+qKeQRB74BoMseAB30sGXEkxBPBqKNCGZkPeJZj+h64JhrX6MsqhO8xf/ptWq/ZZ/YjkJAsTZi3xK1RSpqlf0WWrl6b9JaMXlyxbkPKR+YsWyEbg0ZeOFDSMktWrlsvg6bPdcmdsc+eckGnVtLx0dfd9yu6tpFJgTftzi+HyN/B56wgTK1x1S2L+TLj/cvXrJC+v3wsBYLBFmldZy9pWat5XNLvDvtEChUoICfsc2Tc+R39cmLrxrJ//ZpyzIsfiGx5/dYkN/8rj3z7qzx3yiFSd9fyW89n8hEWSyYkJgAGV4QJAoJAvC7KLJMBAxvWQ0gKscpqEWLw55jJGI8DbnklSCiQYUHpjVo0jVcHkoXij2DFRkEjlhrCoLHQTFwMoryDSZLBlomIwdAXyoWVHkVB10igbJMnJiSsUCoQDAZGVURw+eMdQVDMKC/KHBMNg6/ex0CKMo/nhXyCG14uBGUTTPjOYE0esHqi1Koy524M/jG5qWheUOLIE4SFckK6SG/OnDnuVvJAuhAVtapyAe8SFj/qDaUMsokSr5Y5PlGUwRprMeQIRZSJAuWVCRVihjWOd0CQmQghAeQDJQHrIYoE5dd3ougqLtRxMuzdQ8E/FGXSR6hD8olABMABgoFyokId8F6/LHqNiVTfr20BBQqFDtLCdZ5LlTdVKsPtVMNIIKdKYPB0qNcUokk/Uu8c7RNyjBINdsnaLRZg8nrrrbe6eykTdQAmlAksIUQQFzBDOI/XFAKVrLzu5oh/tGsUGizcHNM2yT9tHSFPkBaIOUI7pC/RtnRtB23Nr3eeTzRWQGQR8o1Ch2LVuXPnmMJGHjCwYPVFQaSuUB4xXNAGuI4nDWLAcSqhr7NmAiIKZoxbvqC0Qe6iLMf0C7zZKIVnBcRD10ug4NLnwkJdq5Ku1xKlodf5RHHDuwahBUes8JQZL6OOr5AexkQ+/X7O8yh/CHjSJskvxBwlGPLCmiIIMB5LsFUJt209z7tpUzzDeIsRjXdo3YXfj8cXoX3yPiRRGu7if/8SYYPBjDLQRigPZC0dzMGe+zFKMW7hFcCLS/+j70elW+u/scvPV/gY8kn/pU3Tz/nEIMa4hMLNfIhEtSUdJzAK6H20ZcZYyuiPJzwPGeYdGoIeJsbhvCVqJ9xHPjFa0Bbot/QDwsk0DA3jmBKWcLqJvtNmGJ8Zp8greGPY1PGS/ooOwRjBPEEfDrcX0v4uIIwqpIVxCLLEMxgCVSA//hpDjCg6j+s9/idtEPHfibGD8RFh/mRsTjauqVGEvDAnR5E9l5j9y3YEEpKlC/bfW8bNXSBPfv/blkwFYXh3HNxRypcqFstkmWAN034NasS+Z8bB6e2ayp9zFsYl9XtAYsbN/q8hligq1x3SPlOJEi8rXayo/HJFjyDkbJZcEpCj4dO2KISakTuO2j8gDBWkQukSmUqUSH/0jHFySb8n3KsqBFaMvj0f1Ne6z+///kV6vHG3XNnhyEwnS+3r7C6f/zkpRpQa7VZRLuq0t/Qb+bf8MHmWe/+6QGk8MFjDlFWigyYERgVlngkLxRQrOYMsVl0IBJYklBW8NUwITMxs1MDAhiLBoIRS41tpNF12/2HyUUKh57EiMYBDtHhvMiFPWN1RmvyBkcHbFyx7CJNGWBjsUQqUeHCddQoq/sYIWG8pM8pXlOD2R+lBUUThUUUeqzikjjAqX7CShSUqL9QH5ADCysSI0gJOTIQqEEUfAz3vf7LbE4qfCkoQSgThjigVTICky8TXu3dvR6AgwIoBngAUDyYdyqZKnI83k51fb6mw17yoIs53JnbwQqgXwit9osQ7wEPbq7sxwT+IJuEsKDa0WyZhiDyW7VR5495E7TT8OrxWKhAPMFDLqFpcIX1IsnZLe6SskCoV6h+yhGieCa3kzxeuYeRIVF7/Xv+YugQnQo3AHSWG/ss56pb2TpsOKwyUQyVc73gCE40V+gyfWocQehUUSvoa/UYFkqBtAHwRxVPvifrEQIDiSb9h/QKkLCwQAsggZNoX+gTeOtojBFeNNNyD5RsSi5Kn7Z1jlGolC9yXLA2uI3jnIYZgQDipKtSMDyh1vuAJAFuUbF9UQaStMRbT3hkflNDhDYaUqsLIs4naNnWOJwZyiZEFxVHHMlViw++HpCHa1pOl4W4M/iXDBkUWr5fK0UcfnRbmKMWMU0oe6evMJ/QJ8IhKl/krlUDWmK+UfHI/OBOCy7iK1w1J1JYYn7VeuY/+Alny5x3O8w6E6yo6/ur38GeidsJ9tF3+EK0b3+NCX0qnH7kE/vvH2KRpYGjDaKbf9T7IDCQP8qrY6DX9JAJFy0bf0XzQz/05lu8Ybmiv4KukTNMJf6oH0U+DdgBJJPKD59Md12iDtP1w9Ev4nfY9+xBISJbIwhOndHM5cYQpCMP7fOxEGXBFdylfMn4RYmZmt3r5ssHvCm1xg5LuzwF5+WveVqJ006EdpFbFLZNWZr6XtNrWrub+EqV7evtmiS5l2vndy1WUciW2lJ+1TF/98a1c2vd+qVy0mJzftUemvSdRQnUqlJPLD9gn8KQtiZGlRPdm1nlVQiAfDIIIgzcDmV6DEDDwYO3BCsbkzaCIhZlBE88KShsWwz7BOhNil9Xi7ucT7xETUNizQpoo6FFWXv95Jj7CFVgHxTsZwHkfFtSw6CRFqJROoihPDJpYRDV/KD2QBV9RQ2GA9CEoCChDWNGjBAWeAZr3sWaJsjGhojRj1cNDp6Lv1+/6GZUXMMaKj6UOckrZWYuhShrP8p5UQv1gXWXwp071GdYnMAmBHffgJYG0EaqGpVsVWRQD2gZpMPljccMD4udDlSrNSyrs1ZPmp6HP8gl2EAWs6UrOlDAw+aPEI0o8KRfWYxXqGExZX4AHERw1ZC5V3kgjUTvV9PUznP/wd70vVbvFsIBnB4um9kEwV9F+yCJqXU/DxE+6tO1k5fUJmKannxhC8LTihSVcBw+Mhu3hLYGs+IYN2i/nVUkO1zvpJhorfNKhZVTSxHOUhX6UzHrMfamEtoBxACUMi3p4ExmeJ/+MVZAJX+jrGH4YC1DAKasvnCeftCkdD1DIeZeSrlRpkB7vxnvK+Iki7rcbxibIkrZ7iCz1y1hC6BPftY6UBNUKvCSUGyWcOlFyQxvhj+dVErVtxi7KggcOo5Uv9Bn6pO+N5zrfSRvDBpIsDa6nwgbjCe9mjCLfvBevdyrMqU8UdL/tMKbjvSGtqHTJTyqhXGCs8wf3M38hzFdIorbENfow+dDwMe3T2p+5B1EDCx48TR/yRxuI6mM8k6idcM1vT3xHdNzf8i3j/4lGSIdg8p5030U+FRvmFsZp+gbzEThg3KJ9MU8h2sY1DJbxCKE/YPggLaIeVI/QsRIjAkK+ko1r7qbgH140xr5w/9fr9pn9CKTUdCBMl+3XyuVs+Ix5cnywdiW7hDVCvb8L3K6BIbtk4FHKSqKUXWVK9B48Sj2DDR7GL10o7R7rKXV7dZFa13WVk167wz3y6tl3S4MqdRM9vkPnywYDoiRxpuBBzErBw8Agg9KM1RgrN+t/GKQZMBioCEMhrIwBjd9g4BoDOwosC6mxxGLZIYQAxY/zDGxYZgkBQRjYUMo6B1be8GDOO5joUAh8UYUBSzETLRMUCjT3ogQysH4XWMTDwrshLeQTzwITFs8SEkFoCULIC39Yx1hro0o01xi0CQGkjHhbmLjBAiFtFcoJaUPpwSqLwg7ZQPAMcJ2yUQ4UQ9aBQe5UNK2ovDAJM1FQP+SdsA/Koc9oGuFPVYx4ngmXiRnFjnLyHlUoIINMMijpkDGegyDxnWs6iaGEYOVjMqIMOvEky0cq7PVZ/aQMYIxwjsXJtBcsgoSYYc3H2kedY8FXAoDiR7vQ9VeaHp4zQnIg/eQFSyYKF/WRKm+J2qmfP32Py7D3zz+vx3ymardM7tyHFxTDAV4HwjoR+grKL3UAMad/MunTX7G88j1Zeb3sbXNIn0UJQsmlngl3VaEtkAcUYryXeCDxLEOqEkmyscLHg/LwbkIAUUZppxhY+FSrc/gdin/4fPg7njKs/vRXykS+CZHEw6JeK/KJIo0XzRf6Ou0JazTEgWfxhDDGQFLIG32G9sYaC8YfSDjjDMQTSZUGfRgDBGMC7RwywHvwOFD39Dv6H/2VP/XekSfywK50lAOlEI82Hifuoaysn7zjjjtcWRm78MDzPvVYJGrbrK2hX9cKSBdElvzwR13T9xDGCNoCJI/3M0dQd3gQ8GSlk0YqbCCjeGspN5/MB+lgzpovxl88deSNOQdjC22b/hOVritU6J+2UT1NnfI8oc6MffQ1+gp1hEKPJGpLXKM9U9dgw/jF/EeZqDNtz7yTMZ72SP55B3WHBwZjTzhPpIskaidbrm77X9+37ZWtZ3hXovdtvSv1UVQaek4/w6kQjkefINyOtj0tIJpgBnFBaMcYSiHzhCRj0KRvgifzAe0W3YQ2irGEdssf8zHGTvVgpRrX6PfME7okIZxP+54zCCT1LGmWnjy1mzvkN3dyQnKCKDUIwtHa1awmawOLXauambeBRRR+zWs0kU8v6y1t6+4tF3QZI68P6SdjZ0+UooWKSPMaDeXSA8+WqrtsXTcRlcaOnOvUYA/5t/dNcUlQ51rvcRey4AtWGgZlFAA+mRwYuAmlY5JBSWPShBQwUTBhM9izExjEiAmFiZbBDoUUpVtjowkhQ0HnGmERxJ+HByGIEJOurl3xi8jAxqRArDfpoiDyPBM2ijKTf61ggiccBRLFgIrwHogdljDyzSTFZIHSh3Ue5SaZoEQxsVMe8KCskDyE8vPHu/EakS9wI22UXjxCTKTkk98T6hOQI36ng7yBtYae8Z08JxIUV3BnTRQDPRZysOC9CJ9aXj8NJg3uhdyiTJFH6iAspAVJRJHU3cAgeChsSgx5Bk8BCiGkmMlf0yLvmpdwOVCGk2Gvz5GeCpgi1B3WZSZD8k/YGfWAR4k4ePIN4WE9F4tw+eN9eMrIO2kTRsSkifJIvfAe2hJ/SLK8oRhHtVM/fzrh+/jzXh8HLSP3QMSTtVuUWYg0yhL9EC8MfQaiT7lpr4Rq4e2gTGBAe6Yt4dFIVV5X6AT/yBcKCu/0vTD0YZRQDCG8j3KAHx5IDcXzy0vyXEs0Vmh4DDhC9giPozwohZSPOsbYoj+ICX7Ug4oe66eeD39COhDqkT9fULQgaShjtHnahgp1CnFBMEyEBQKLUobHkgXzrM9AIE+0S8bJdNKA1Gj4HOX3hfR190T/PMdgizGGsU/LxTgMOWKMwhIPpnjG8Kip8JyOOYnGYEgx+KOgkp4vjIX0eTyM1CHjKX8I7UHXdqZKAwKUCl+wDEsqzLmfEHCwpI74Q2jPuv7OnUjyT9sU44Qa6Lid+e+sYM2a7trIOfLIXEU7QqLakrsQ/AMfDDbMOQj1RaQA9eWPJ2CDl5PNYPikb+M5ggByb0aEdHXs4Tnto/o+znFdyQPfVcAh/D713vtjtd4f9Ukaiqd/XcdK/fSvcUz7JXoBg5EfNs7Yg6EA7AgVZzzSMFWuafsjDcYsdBfmPupFBQ+hhtQlG9e4HyMpeo0aGDQN+8xZBII9BYIROk0ZPH6atKlVza3vSfMRdxsxnyhQGsOakWenLV4a7DxXTCqW2nZRazrpoLwkGvzTeX5H7smpd+fUexUr3o+g+DKYpCtYVGkrTJp4H8KhAihIWFw4j6LqEw7Ch7C0MtGgcKkSwv2co+3h0SFtfyInbxAJFAAsy1GTJYM81h4GU5RiBnMWZpMfJjPSJO8oKwzSXGOChcQg5A3Fm0GUcvkhFe4G7x/5QBHoExAcJivewaSo5eFWLRPpoPTgqqd/IUxCKBSUgwEXwSKJZRGlFwKndQJJZCILe9PcQ//9Y3jAQkp6lJ38cAwWHIOtvsd/jslWy4wnRt/p38MxuDEJ6sSv+ffx4z7Okw/OEzJCGSkz6XIMGYjCNRH21FFUPTExM7FpGAdWYhRE0ga7cPvAAktZawWEmfTwQkFIaSOq/FFHlE/DpCgPkihvidqpn2fqhfoDAw3VwCJMXhRLcEUxpt61/ZBGVLslPSyoEBf6FXgT6oiihYFCFRjaN/UKToTB0uZVUpVX7wt/8hw4++1Y76E8jAnUMbhqKJ22k0T1ThnDYwVtHcxoPxp2xDk8mbRDxg3eocLzfj/SfNIvw2OTPsMnz4GnYsY5vvM8dQGmkBsULg215R6u8yxtL/wsCh79T/sRdUtIMnVFPaiCnU4ajGe0PW3jvBsBa/LJmJZMaM+MJ4wBtPtwOpo3vJlc9zFN1LZJk7bll5s8UB7qwG9n4Ee4H2mjwKqkSoNxKl18NU3/U8sVxlzvIa/UCW2M/FIv4fLoveFP8k690Hf9eU3vo75op8wheNi1/WIMi2pLPIdxCaMTxg3d+ISxTfPkjyf+XMV7+M5cpeOG5iOdT8pP/9R6p1yUzx+HNIzZrz/Spt9Sfv88uCYaH6Lyo2XV9+s9UeOhXgt/Mt7QVhhfSMcf9xkzmBNor4wZOvf6aXAPcwP3UKfMW74kGtd4jo1Q2EhHN3vwn7PjnEMgQ2Rpe7O5I2Rpe9+pz+Ukccipd+fUe33MOc4oWdLns+KTARwLEN6qcDw81j8mNl23kxXvTzdNwjcI/YIw+QpCus/bfXkbgWTtNCtLhncPqypKGJM7CimEiPUsuvvd9r4/7CnQdPDoqJKm5/LKJ1ZjwurCwhoF9UyFr+l3QtMI02N9niquei0/f+ZU287PmCZrS4QBE0KIt29HZEfa+o68d2d8Fo8tYa78+YRxZ8Qit5XZyFIW1khOkZaceq9CyfuR3ESWNG+5/ZM1CChShN1h1TIxBLILASyytD31RhHCg/fAxBAwBPIeAkRM4I3cUWNH3iu55dgQyHwE0lqzlPmvtRQNAUMgCgHWGunC3ajrds4QyCoEsGSaNTOr0LV0DYHsRYDfCTQxBAyBzEEg5W54mfMaS8UQMAQMAUPAEDAEDAFDwBAwBAyBvIWAkaW8VV+WW0PAEDAEDAFDwBAwBAwBQ8AQyCYEjCxlE9D2GkPAEDAEDAFDwBAwBAwBQ8AQyFsIZAtZCm+jmrcgstxmBAG2uA1vJZuR5+1eQ8AQMAQMAUPAEDAEDAFDILcgkOVkCeWZLWj1dyCys+Dsz59TkuiHz7I6Pzn1XsrFu6cFPyqovykASebPxBAwBAwBQ8AQMAQMAUPAEMiLCBQIfu08S7VZvAz8lgY/5Jfdwm9Y8NsOOSGUmx8ey27JqfdSTt4NUeKH2nT78Owuv73PEDAEDAFDwBAwBAwBQ8AQyCwEsuV3ljIrs5aOIWAIGAKGgCFgCBgChoAhYAgYAtmFQJaH4WVXQew9hoAhYAgYAoaAIWAIGAKGgCFgCGQmAkaWMhNNS8sQMAQMAUPAEDAEDAFDwBAwBPINAoVzckOAfIOiFcQQMAQMAUPAEDAEDAFDwBAwBPIdAoWnTJmS7wplBTIEDAFDwBAwBAwBQ8AQMAQMAUNgRxGwDR52FEF73hAwBAwBQ8AQMAQMAUPAEDAE8iUCtmYpX1arFcoQMAQMAUPAEDAEDAFDwBAwBHYUASNLO4qgPW8IGAKGgCFgCBgChoAhYAgYAvkSASNL+bJarVCGgCFgCBgChoAhYAgYAoaAIbCjCBQeOnTojqZhz+9ECHTo0CHDpWUTkQULFsjmzZsz/GxeeaBSpUp5Jas7nM8VK1ZImTJldjid3J5AgQIFpFy5clK5cuXIrNKmwWLTpk2R1/PiyUKFCrm6TVTmvFgmy7MhYAgYAlEI7Ay6SVS57VzGEcjXGzxABLdHuc84jDvHE9uDJ4MRymStWrWkSJEi+RKo7cElLwPx22+/SatWrfJyEdLKO+124cKFUrBgwW0IE0Tp33//FUgyBCO/CGVetGiRQBSNMOWXWrVyGAKGQBgBdBN+OqdixYpSuHDh8GX7bgjEIWAtJA4O+5LZCKBUoljnV6KU2XhZerkHAUjQrrvuKkyqYeKARwkDQH4iSiBPeSCA06ZN26bMuadmLCeGgCFgCOwYAugmjRo1kuLFizuD2I6lZk/ndwSMLOX3Gs7h8hF6Z0QphyvBXr/dCEAe8CCFBQ9MfiNKWkbKRflMDAFDwBDIrwigm0CUihYt6jzpeNNNDIFECNgGD4mQsfOGgCFgCBgChoAhYAgYAvkSAUKsIUlGlPJl9WZqoYwsZSqclpghYAgYAoaAIWAIGAKGQG5HwIhSbq+h3JM/I0u5py4sJ4aAIWAIGAKGgCFgCBgChoAhkIsQMLKUiyrDsmIIGAKGgCFgCBgChoAhYAgYArkHgWzZ4GH9+vVuMXSqBdEspPZjR9nWMT9tDsCCQmJkEwnX165dKyVLlkx0i51PA4FUOEclQRvduHFjtmO/fO1GmbJopesfzapm3W8XrVu3zm2Pqn0wu34rae7ytTI/+Esk1XYpIZVLF0t0OXZ+zZo1bjGuPz7ELkYc6KYMUfcnuxaRVK44FR4bc0WmLBOGgCFgCOwkCETNG7oRjs6riaBAJ9mekL90NhIKzw3pPJMon+meT1fHQodnW/aoeTjdd+WW+9ImS7OWLJeer30uDxzfVfbaY7cM5f+pp56S3XffXU4++eSkzz3wwAPSokULOfTQQ919Z599tjz88MNStWrVpM9l9sUXvn1DLu7/pEu293GXy/ldT0/rFWwxfNVVV8kRRxwhPXv2dM+g5K1cudIp4tdee6289dZbblve999/312vX7++dOzYUYYPHy5z5syRgQMHyllnneWutW/fXsqXL++OSbtv377uOOofGJ1zzjmxSzNnznTYxU54B3Xr1pUrrrjCO5M7DpcsWSIDBgwQMAtL8+bNU/62z6pVq+Smm26S2bNny4UXXigHHnhgOBnp3bu3NGnSRDp37uyu0b6aNWvmyMqIESPkxhtv3OaZrDwxePJi6TtypntF7+NaSIWSibvkmDFjZPr06Wll56CDDnK7/HA/g+f3338vNWvWdNtd87sSzzzzjHTv3l34zaTjjz8+rTQzetOClevkke8mS9MkJLDPb7Pl7kMaSZliiX+rCCL70EMPufrkR2KjpGnTpu701KlTXT/aY4895JtvvonrE0oQ33vvPdlrr73ctrFRaWX2ueXLl8uHH36YVrLHHnuslC1bNu7euXPnur5Pu917773dNX4U2IwqcTDZF0PAEDAEsgwB5kqUfv83BsePHy+LFy+WTp06JXwv+swHH3zg5pzatWvH7oNElChRwn1HZ5k3b578888/snTpUmnbtq3Te9944424OSz28H8HzC2ffPKJm8sxxENi0C2Z/5nnffn999+dsR494JdffnGXIFrog8ybHFevXl3QtSZOnOjyQj6i5NVXX5Vzzz03dgn9FJ0THHyHAHMw5SxVqpS7t2HDhtvkK5ZILj9IrJl5GYcodf7fWzJ54RL56om+MuqKUzNMmLzkIg9pID/88IN06dJFzj//fHcPDfH222+P3X/wwQfLCSecEPueVQdLVi+LJe0fx05GHKDQXHPNNfLII4/IRx99JDTy008/3ZGgwYMHx8rEo/x2C42ZBrfbbluIJ41cLRfa4Gns2lhnzZrlSMDFF1+8zdvB7oknnojrVCiLTz65hfD5D/D7KT6m/rWcPGaggOwdeeSRzoMQzssrr7wiP/74o1x55ZXhS+775MmTHVG66KKLHGbXX3+9jBo1Sq6++uq4zkudQGjnz58v++23n7zzzjuujlDIUab//vtv9/7nn38+8j2ZfbJA3K7Um5Mmz2/9sM2pCu3lzTffdO1Mz+mnWrooD95KBnSEMiqxqBX8ThATAPfwexOZLYtXrZcGu5aWs9vUSJj0q8NmyIp1G5KSpY8//tgN6PQLCHUy+fXXX4W2wCTExPPcc8+5Y4jhs88+K9ddd12yx7PkGsTmlFNOiUubsQ6hDfqi9cskOHbsWFc3TLZMYsuWLZPvvvtO/vrrL+nWrZtgTDExBAwBQ8AQyF4E+vXr5wzgzMGrV692BjqMkjVq1JB99903lhn0GghD6dKlHSGBlCDobBi40WkR0oCIoUcyVzAPTJgwwZGfQYMGuXv4V61aNWncuLF88cUX7hnOYYx/++23nd7CXM8cj86JQFLU+TBu3DjBGEfakDZIE+nssssu0q5dO/d7gkp06tWr59LAeN2hQwc3l7oE//tHFA66JFuvV6lSRerUqePe+9VXX8lhhx3m3+rmbiVuednAl5Is+UTJIbBqtbTIAsKE9+moo46Sli1bOnBRJqiEyy67LAZ8bgUaRRQl/YYbbhA8Rb169RK8SChs4R+zpDDKsnkO5f3BBx90jZFGjoJH2VHmX3jhBWdJVgUKizPW5bCoIhw+/+ijj8qMGTPiTkd5beJuyKEvn376qZx66qmRij9ZOu2001xHD5MlBp2nn37aEaP777/f4c/9kEfOH3fccXLBBRfEBgwUV4gQgxhePgganjyUUIgDhDe3uoxpS357YqDGatOgQQOKvI1gbOCeYsWKOc8Z93KM1QgvHAMbfYpBD4tPVpZ78uJV8tGf82TDpjh26PL8+vBZUqhgATmiSWVpvNvWUETyziSwcOFCV46okFy8sfQ9hLZAvUKQsdQxYdC/clrAlUmMNskEhVAmhPwj9FPaqdbvn3/+6SbjAw44wI0Fbdq0cRh8/fXXzkvP5GZiCBgChoAhkPUIEPGjYzXzKOSGuQXyg56KrsecAyFBmIuI5oBUtG7d2pEJ1eMwen355Zdx3ihIELoZzzNXIBj+iI5R7xPeG55FOI++6Av3qZGU88z/zOsIeYOwEBaHnsNcOnToUJcHCA/zCjoBRkWEOatr167OyEpZmVd9wXCJjgoJpPwY94jWwCuF1wrjPnoukS3M46RHfjHi51UjX0qydHnfAc6j5AMlAWHq8crHMub28+NOJ/tCCNm3334buwWA77zzTvcdjwFuyltvvdUpFPyyMgodYBN+4wvEQtmvfz4nj1VJR+HmD9lzzz1dGVT5cSf/+0dnuPnmm10oHB2QkDgsCnQ8lENCyB5//HHp0aNHnCcB/LAoh4XGqOF6/jUU/7CgGOdGzxLWEbU+hPPMdzo3Hd0XFEzIDmGPeEvwEoUFZZO2xQBBiB1eFITBCSLF4AQ55ZO6UIs/nR5rflbJoIkL5dOx82XV+k2xV9wxYHxAGgrKrQc1TBqOF3sgOGDwxHuCx7VSpUr+JYcnfQUCTnv0QwBGjx7tMGCgzEqSpBn6fNwC2a9OJdm9fHE9Ffe5dPV66T9mrtzskSXyhXGAsQJiiyEiLIwTtH+EyYKQAixx4AIhwaqHYITJSSGPWPDOPPNMlw0dJzQcNOzJJDQX4TnKQNukrJAt0siOOnMZsH+GgCFgCOzkCOABIkyfcRdSoIZ79AUMuUiFChUcWeCYeRUPEIZMxm1C49BFIE/MT4cffniMBHH/Tz/9JOi9kA6IFB4q5utaQfTHu+++63SVkSNHunmc+8kH+o7O+RCR/fff3+mBkBueJ+xOo0iGDRvmwrs///xzR1YgMxArCBX3Qn7wjEHIIFjMnZzDuIpexjHvUoMlSwI06on8kD73EinBnAVBBA/KRCQV5SKKinflVUlJlvpffKIr2+FPviNf/DVF6lQqL5Pv3mLJzUihYZNUpoqyZSoBskH4HYILk4onhOrSSy/V22OfWaEk+GuUYi/67+Dmr14T/lSi1jBB+vCM0RGIZ1XLwWuvvRZTvvV5PlHyaXiEUEEAbrvtNqfwQhggTFigKad2BH2WzgZWYVm0aFHMus61zz77zKXh30ee8KqgPJNPwgAhWKzfyKtCx4OEUy4GAQQLCoooRBNhwME7SZvij9BELCKQC65B1BkwWAuDZQWlHJJEB89KstS+VgUZNGmRzFu5xYpEXhesWicnNquWNlHiGRRw+tWLL77oBijaiBoT6GMMmBBk+pkKhIKBi0EQ6xJtNiv6lb6Pz43B+3crXVSqlinmn44dFytUIBist5Ce2MnggDU6WLXIv1rc/OtKlDhHGRigVRjY1Yigg7xey4lP2iZhughtEWECRsLeYcpF+CHPMOFQNjzvkyZNcmF4kHkTQ8AQMAQMgexFAMWfPzwo6G/oqiqM08ytkCWN+MDIR1QQoXuE3mGkRWfxBSM4czHGXHQTiAzkBdFoIKILmO9V0Fl0HwDIFsI8gj4YJiXoMqTJXIqHCx3wjDPOcEZk5iDC8Am9I/QPQW+gjMybxxxzjDPmY1BGv4gSPF3oYJAoBAMtx+BDPgnTI72wThuVVm49l5IsZVbGawUMOSp0BMUOsqGVDamCpcJacQP6QkPkL7Ml3XVJvDfqXg2rQ4EhPpQGiXUgkdB5CJGjYbPQHkZOLClsn47BMYK7d3sETwueExRFCAECeUBRo7NiPYBQXX755duTfK56BlKD6CYFdFDWeuh3zawOTljwIUQoo1jv+cMDh7WewQp8jj76aH0syz5LFikktxzYQO75ZoJMCULUEIjS8XtVy/A7sWAxGDEYU8dsjAIu9C3aFgq3xkbTfxgAGXQh0Kx/QQnP7YK1jHYbFnb5U2ESwCoGEaHskEX6AZJoYwh9Njs+mbC0z+ElZvJSA1LYs0Q9UaeQRcoAkX/99dfdIlrGRQgUwuTlj4nEoBNSESUYSMLx5FH32TlDwBAwBAyBrQigLzAGY1hlLmIOJcQMfQFCgAEWcuMbWHkGXRCdBBLEeM5mUqy71bW3SmpYM40hjDRYJ4QeyTium0lwnTnjxBO3OC/IGeRDNw4iPV3/vjXXW4/QpwkL5JP7yBPvYe5AH2WdL2UgTA6BvBFKiOEZYR7CsI6hX/PsLvz3j3SYWyjzkCFDXDpEc+D9YuMH0sbDpl44/9m8crx92ngmlw7GrGSJpH/++WenuPq7maEAEaaXFYpd+ZLRO2xFFTOde30FLioNOhChcCg6hBihzBImRoNHgeUYQdHVNQ58ByO/s3AOoYOhePlC48WjQtgiFgPSpUPQ6TgPlvlFcE+DKULHhIT6ZBXXsBLaqDKDC94WyBLC4Aee6qGJemZ7z01etEomBn8ql3asLc8NnSbNqwXr0YIQtK/+3qIEU38dA+9T6SS7xGkafNJWiDdmENTd1CALeGMoP8QZEqnthzaH9QhLD8/mZoH4QfYJUSVOnDhpFUggVjwVBncGdAwNWNgIYWMSuuuuu/SWHPsE88cee8y9n4mO9qV9Xdcw+ZmjnKxdYsMY6oiQRPUo0d4hj2FLn5KhMGEyouQja8eGgCFgCKSHAFENL7/8siMWjMG6gQNeGLwujM2QFgxfupRAQ/uZgzGAo4MhzMEqzEu6Jv+PP/5w4zvn0AnxVkHG1MiJIRC9BMKmugyfnTt3dslphIKmHf5EJ2L+YVkIaUOQCCWEQGFI5DtLQZTEhZ9HH0EfVy9X+DrfyS9EEl1ddRAMz5AkvhO+qOu2op7P7ecSkqVHBv4sMxYvd/lvVKWiXHNwO+m2Z51gzUE5eW/EOPlp4kx3rUzxonLn0ftL4WDizyxhEb+/kJ+GgNIftV4nM97J1uD+9uAPfvZ0LPTu3kPOlOuP2DYcMNF777nnHhfapR2K+2DbvmCNwDLBAnQ8IDRQtlbnHJ2LYwRm7wukkk0kwsLzt9xyS9xpLAEoZhAAvFiQJcL76HDkkev5RSAIeEgQMOOP8DoVLBw6wOg5/WTbTQYn/zoDF1acrNg57e2Rc2Ts/K27LVYvW0JOb1ldZi9fJ/cOmhCEq21tK4Smda4Xvw5J853oU2OU9Tptg0EMAs8fYZ4ozli5iKPGFZ/bhUGcdWeQC7WkkWcmMcoH8affqDBOQDQgSqxp4ycJclqYkCCzTFBY79iZD+LqhyWESSvWOJ6DKEKOtG7py3ik8SAyiYUlTJiMKIURsu+GgCFgCKSHAPMOHhGIjo63zDvoUnj4IQKQCCVKpEqEAzoWzxLFozvS+W986aWX3FfmMTxW6IKQJfQVQt4gNjyvQpQQhl01mBFKp0a2ZCSG5zG0o4dipCNvGNPQAYgwYW7BqMq8AmlKJH75ou4hzxAiyBJzmeobGPXQh9HLmJf9MkWlk1vPJSRLvT4cHJfnlsFvK1UpXUqWr10nP02fE2gqW5W6szruJfUrb10rEPfgdnxB+e3Tp4/bHYp1PChDrDUJKxPbkXSWP4KlACUGdyxuThQjwqTCAuOG4FAuFEAsBjR4OgDHCOTJF8oftWFEosZHx8ByzWYSrIsCx3vvvddtlU2HC3uj/Hdl9zExs/zWFPG8UUKHg9REib/jGW2H9WP33Xdf1K3uHAMDZWfhJOvK2CABoSMTdwvubJeZFfLvv1vXDpH+7OVr5IHvJsVedVSTKvLbrGXB2p7iErGEJ3Zfuge6ZTUDGR44rF9q7QIDwgKwLrEg0yeM6aaf7L6qARH8a8FKeeanqcluS3oNLzPeIsIHILEQIax7TFIQKEJOfaKUKDEmOY0hT3RPVp7n/RhJCKVjPMAbrEaRRO/VXYO4l9BRhHRoo1g0SS+RKGHiun+c6H47bwgYAoaAIRCNQHiOIVIDcoNRFeIESfBFQ+JUl/OvhY/R35jffH0MoybznC9EvxDi5pMlDGoIHp1kwjxJ+hAz1hMRocWaeeYi/giXg/ypJ4u0+M79vrBEBv2JOckXiBFzMlEgXNMIFyIjDjnkEKeHol+QJuXIi5KQLIUL8/vMLZXC+bq7lpdOtbfsFPbj1NnhW118IqCoQHhglazJ8YVQmSgFmEaCF4UtgWG7eEiSMV4/zZw8JsQNSzB/lBclHCJEeQgNUgEbrPpYlVmvxYI+OgAWdNbWYA2PEggDvzcUlnCHxNrALoJYPFjDoiSTfPGjrHfccYfr6BConN4lTMtCJ0VpT+Q9ZHBiO/awhDszZBMJn1dCiYWFsCZCt3gXSihpIwx+4A9euuGIu5CJ/yqVIuQtfstPP/mBExbIuoAlLV69Tg5suKt/KcPHDGAQR7CgbTKI8cfgCNYQVAgUXjnfE5rhFyV4YJcSheWBwxsHBpYN8uZv8X0/6pGt5petV+kX++yzjxvosdSxkQV5J6QAa1+q34ciHAIjBAQYgoFoG9n6luw5YiKhXRH7TV9kbMBbRIiGWiz9nFBX9GXCCQnHhWhhFWS3TA1z8O8PHxtJCiNi3w0BQ8AQ2D4E8MzoOM0xOh5zCzospAAdgzlK79G3QGQgD2Hx5yH0W+ZoFciW6rwamYSh3Ddocqw/hsuciLCeSI1ovg6E7ohXCh2cOYS8ovcQSgh54R3oROSJUDnyzFIGzhGdhD7OHMoGSuRToxw0v3jG8FRhlCV93ofhm1B/5jrKAlboGvmOLB3QoIZM/SdaqQtwlR+mbCFJ5YIwvN3KbPl1XgUObwmKvy+EAsFKfaHyo0JkqEh2+UC56dOnT8wrEt7wwU8rM4/9dUn+cbJ30HggKKyrQHBFQoJoRA8//LBTemhwCB4nFm2j+NGYUN4JkaNxQ6SwVnCMskSsrIbq0AnD3ibSC8eB0gEgAsSYskV0//79XfgVnYPGT1gedYErNreQJaweUW2B8iUTwhL9OGC9lx+39YXQQ6w/kEd+v4oOTH317NnTKeJgjYA7AwZxvVEhj36a23N8ccdawl92CKSPH+AFWwYxcMKjye9PEdpFu6J90S58q1Zm5q144YJSvHQxF6Y7f+X6oP1uDSvw38PW4YWDsMOw4BllIsJ6h3GFgRZygQGGvsM2rNQXZI/FsPRDwgXU0kYZIRcIHhkmC8YiLG3ZJbyPne2YZOj3hHcS/sDYwG9pQJpod1gv8fy1aNHCWfqYWCDv3MsEhCc6HZKUXeWy9xgChoAhsDMggJGV+RO9CuLDuA2h6dy5s4siwjBJBATjvBrlFBfGdrwxYVESFD7PdyI9MJLxXp5Xvc/3/OhzvJe5AsMijT0m8wAAQABJREFUcwjLVgit4xk1EmOsJ7KCkGx0G9ImnxAYNoZi8zXmVPJPeDhGRiIbIDmUG+M++SUviOadOZnwcvR95i12CERPJ110CuZmwhDxZpF3JXKa97z0WSAodJRBN9vLANhUrhIDPwOEkwG8z6r964mOYcRZFU6V6J3h8zQuFtfRaP2YT2APWyDCz/rfIV8ojFE7kfCOadOmOWbvP8MxXifIEyE/WLZ3RLYHz+15ZkfymOpZcNSd8VLdm+71nCwjG1roDjbJ8stgzh/KNoRcB1+eyWhbhMDoLj3J3ulfS/ajtNwX9aO0nKfvkz/ynai/QHQZlNWDynMQEyx/ftgqExbnGUcyQg7pP+EQvqhzvDdKyB/vTjV+0TaZfMIhH1FpZvW5jJQvq/Ni6RsChoAhkNkIMG+rxyRV2sydzD8YpiECfEbNIcwvvvEa3QwSEmXkYn7CEKbCPMd8hyEX4Vm+o6+E38W9EB50OgyDXNf5j7wy5zCPRM2Z4Txyv/8sx/45zV86n+RZCRr3k0/wQt/wdY500spt96QdhpfVGU/GOKMaWlbnJ7PSp+FEkZSoRpzsnXSYREo+78AFGiUoaPlpM4eoMmbkXCIMM5JGbro3HaJEfhkAdUAMD1oZbYvbU/66FUvJNZ0zHqucTt9noghPJkxYPlEiz3hV+ctuIW+piBJ5ym9tM7txtvcZAoaAIZAVCOjcSdrJjFk+UeJedLNEc5hPlLiXeViJkj4bvofzCPeqXqk/kLvlypa5Xo+jPsN59Mumx/oZ9Xyycz5R4j7yGc5fsudz87XomJjcnGPLmyFgCBgChoAhYAgYAoaAIWAIGALZgICRpWwA2V5hCBgChoAhYAgYAoaAIWAIGAJ5DwEjS3mvzizHhoAhYAgYAoaAIWAIGAKGgCGQDQgYWcoGkO0VhoAhYAgYAoaAIWAIGAKGgCGQ9xAwspT36sxybAgYAoaAIWAIGAKGgCFgCBgC2YCAkaVsAHlnfgW7o/g/ULwzY2Flz3sIsAVreKc9SsE5ruVHSVTm/FhWK5MhYAjsnAigm/CTE2xvbWIIpELAyFIqhOz6DiHA9s38BpQRph2C0R7OAQQgDQsXLozc0pttvvmdi/xGmCgP5bJtzHOgwdkrDQFDINsQQDfhdwr53SEjTNkGe559UYEhQ4YYrc6z1Zf9Gd+eH/mdMmWKLFiwIPbrz9mf66x/Y9SPKWf9W3PmDVnxw745U5Lkb8V7BGkI/16TPkWbBov8RJhSlVnLbp+GgCFgCOR1BHYG3SSv11FuyX+BgFEbWcottWH5MAQMAUPAEDAEDAFDwBAwBAyBXIOAheHlmqqwjBgChoAhYAgYAoaAIWAIGAKGQG5CwMhSbqoNy4shYAgYAoaAIWAIGAKGgCFgCOQaBIws5ZqqsIwYAoaAIWAIGAKGgCFgCBgChkBuQqDw+PHjc1N+LC+GgCFgCBgChoAhYAgYAoaAIWAI5AoEzLOUK6rBMmEIGAKGgCFgCBgChoAhYAgYArkNgQJr16613fByW61YfgwBQ8AQMAQMAUPAEDAEDAFDIMcRMM9SjleBZcAQMAQMAUPAEDAEDAFDwBAwBHIjAkaWcmOtWJ4MAUPAEDAEDAFDwBAwBAwBQyDHETCylONVYBkwBAwBQ8AQMAQMAUPAEDAEDIHciICRpdxYK5YnQ8AQMAQMAUPAEDAEDAFDwBDIcQSMLOV4FVgGDAFDwBAwBAwBQ8AQMAQMAUMgNyJgZCk31orlyRAwBAwBQ8AQMAQMAUPAEDAEchwBI0s5XgWWAUPAEDAEDAFDwBAwBAwBQ8AQyI0I5AmyNHz4cHnhhRdk1qxZaWG4fPly4ZmJEye6+0eMGCHvvvuu/Puv/aRUWgDaTYaAIWAIGAJ5CgHmN53zyPh7773n/rQQI0eOlOB3FfVr7JPnov5iNwQHo0ePFubRzJaPPvpI+MuoTJkyRX744YeMPmb37wACK1eulEWLFiX9Q/fKiCxYsMDpap988kmkfvb555+Ln+a0adPkpZdecnnIyHvQHT/88EOhDNsrv//+u3z22WfbPD59+nSXJ9Mvt4EmX50o7JdmzZo1MmbMGNc4E1V8gQIFpGzZstK0aVMpUaKE/3iWHDNIX3311bJ+/XopVaqUFC9ePO49xx9/vPtOp7vzzjuFQZQOjey9996OZL388ssyf/58Ofnkk915+2cIGAKGgCFgCOQnBH766Se55ppr5PXXX5dGjRrJgAEDXPFOOukkGTZsmFx22WXy3HPPScuWLWPF7tGjh0yYMCH2XQ+KFCnilEvSOuOMM+SVV16RFStWCHNpMlm2bJkjbPXq1ZNddtkl2a3uGkpywYIF5Zhjjkl5r3/DBx98IP3795dffvnFP23HWYjAo48+Kl988YUULhynNsbeuHHjRtlnn33kqaeeijv34IMPOpKOfrl69WrhEwKETrZu3brYveh3BxxwQOw7xAid7txzz5ULLrjAnScP1DntrGjRou5c1apV5YQTTnDt7vnnn489zwHX6BP0Bdr+/vvvH3edL+iWDz/8cNx50mvYsGHcOYjSjz/+KEcccUTcefoP70U3Pe200+TMM8+MNOzXrFnT9aO4h+1LnkEgrtWPGzfODXAMtIUKFRKIkS8QqE2bNsm8efNk7Nix0rp1a/9yph7TgBlIn3nmmZg17PHHH497B/lTssTATCesWLGiI0v333+/yx+dctSoUVKmTBk3WfgJ0BErVKjgn7JjQ8AQMAQMAUMgzyHQqVMnN+cNHjzYkSW/AJClgw46KI4ocR1F8u233xas5rfffrs8++yzTgnt2bOnm0fxTh122GF+UkmPIVXvvPNOpAU+6kHmeYyvJnkDAfQrCEGUQGDDsmHDBuc5hLRUr15dSpcuLbvttpszfKN77bHHHu4PIhE2vvft29fpoUcddZRL9oknnnBEibQgTOijM2bMkBYtWjiyxLsgUSp4fLiO/Pbbb47kvfjii3rZfdLOITl4N0kXPRHy06pVK6dL+jdD7HgnxnjKwXMQur322ksOPvhgR8YOPPBAl5elS5f6jzqytiNerbjE7EuOIBBHliBCWISKFSu2DVHS3NFYaCiEuWWVvPbaa/Lmm2866wMTAIN1165dY6/77rvv5NZbb5Wzzjordo5B9/LLL5chQ4bI+PHjpVy5co5kPfbYY67DdevWLVamv//+W/744w/BemZiCBgChoAhYAjkZQROPfVUQVlEvvnmG+cB+Oeff5zXBiu5CsfMeyiiWPmx7uMRYF7nOzoAfyh2mzdv1sfS+iSNgQMHOsK26667xj2D0TJKZyAiBH1j0KBBcffzpU2bNjEiNWfOHGcMrVOnTmwe9x9AeS5ZsqQ0b97cP23HmYwAYZx//vlnZKqrVq2KPM/JQw89VI488siE1xcvXuyuVapUyZGQ2bNnuzaMx/Gmm24S2hP31K1b13k4iRL6+OOPXfsg8ghp0qSJ+GTo5ptvdt4mPKLkuXHjxq4NkQ7tZd99941r43hQ99tvPzn88MOdZ+jpp5926eo/2jCECb0TknX00UfLVVdd5cjajTfeKM2aNXOOBCWAPIe3rH79+oLO6YfIapr2mXcQiCNLuDUZSMMeJb84XOMedYH61zLruEaNGs6dS4MkLpnO0qVLF7niiisciXr//fddSB3uWRW8Ypdccol+lYsvvti59rGoXXTRRa7BPvDAA87dOnPmTKldu7azIsQesANDwBAwBAwBQyAPIgD5QbCkEzHBPI3BcNKkSc5ijgKIwdGft7F+6/oPiBbHkBee5fjYY4/NEBIYKrG6M0+HhTn3tttuizsNGYOoLVmyxCmTcReDL6xT3nPPPd3pV199VVi/8u233zplOnwvkSR4Bgi1MskaBGrVquVIhC5zCL8FvQ1iECV4HPlLJYTsoevdcsstzti9++67u6UheKGuvPJKR6Bom9yHEBKXitTTdiB5kG90wa+++sqRJcgU5AwjQVjQD8Prk+666y4Xhhc+z7M4ECgfbVn1Z4wHDRo0kLfeeiucvH3PgwjEkSVC79KVjNybbpp6H52FP4QOyvoorAdYn3B9Qp5g9b7gimUwJS6bdUt4pmD4eKW49v333wsDNp2me/fuce5aPx07NgQMAUPAEDAE8hICrO0l/I2oC8LosYpfeumlLlIEizdrMjAWdu7c2RkRmROrVavm5kks/m3btpWHHnrIrQ0hHIqQd4gW64Lw/KQjn376qVMa/SgQfQ7SA5nyhbAtVXohOeQzkeAJQA9g/o8S1qKwiRMeKMplknkIgKl6bCAvyQSyAFnH+0JonXo78RCxnimVUMfUI8ZvX/hOGhARwt6o719//VW+/PJLR2pYy4RXiPZEW0HwrJYvX15oZ7Rh7oUs4bXC4wNR8oUoJEL9VIhQos2ec845eirlJwb8Cy+80N137733blOOlAnYDbkWgTiylNtyydoo1i3B5HHxQpzuuOMOR4JwiSIMnljL+KNDQZSQu+++21mZsFw98sgjsYGYsAPSvPbaa9199s8QMAQMAUPAEMjLCEB0mNsICyLUDqWSNUpYtwnRO/30052FGw9UlSpVnAGR8hLyzjqPKEWWkHzmUdYCE0KE8ptICNtDsSTc3fdeJbqf8yixrDXGKt+7d2+3Xirq/qlTp7rwpmSeLspK2SB3kESTzEMAHQovJBuIEOpGSBy6GWSiY8eOkRs+qLdn4cKFLiMspyDsjfaYSNjog3ZLm2BDB9bPqWAAwIBO+yIvkKJ27dq55RgYyUkb4X2E3eFFQmjrGPYhWBjc2dGRvyjSxz0QbfRDBHJFm4L8o3umI/QTfZ41Uyb5B4FcR5YYGBnAWXA6d+7cOKSnBYvpsFj4okyeTkjnYrEoRAqLBoQI9y2L+7TzMDATmoeXil1LTAwBQ8AQMAQMgbyMwH333ecs5azbUYE4sJgesoS36LzzzhN2v/OjQrifXb8SERE2f2AdEsKueomE0CbWc6S7qx0K6+TJk50VHsWVsCu2NmcH27BoiCGKeSLBK1W5cmXnWTOylAil7TtPeB3kBPzx1BDuqLvYHXLIIdusN8N7SRgbAqlCeIawN9bTJRL1Dmm4qE+WIFLochAe2g07OpImoZrXXXedW5un6bKRBGGZYaGdExLHhl/nn39++LLbiQ/vlJIddE36EPlQD+g2D4VOsGzE39KeMDyT/IFAriNL7LbyXRBKwGf79u3l559/doM0HcMXyNGTTz4ZO4UVADKFBQ2ydcMNNzjCxdanWCBUcL8SEkBYnpElRcU+DQFDwBAwBPIiAhgHoyIlsGyzviSK5LDuA8Mii9q5rgRKFUPmT8L2CGtnx1mUZFWAozAi+oOw92ShdP5zhAyy8xgh8RA55mnejfLrC94y0kbpDG/l7N/HMYou3ip+UyfKcxC+375nHAHW99DedJ0PniDC3mgbkBSIAh5JFZ8scY42p7vb6T1suID+ppLIM4nHCQ8Pa+IgPBAi1iyhI+K5SiUQeUgPW5+Hl3FEPcv7aPsYDNLdnOHss8+OETHyx8YOJvkDgVxHluhMxD4zkOLWpyPgeg3vchMmS3ihGCyxgiC4i4mfpVP7ZIlruGwZmAk/YBGsiSFgCBgChoAhkBcRwOqOouoLa5gIhSIkiTk1THR4BkFJZX2vL6zpYEc8vFC+QGzYKCIsbCpBCHyUtT58L9+5l5AujJW6XTQbMrGAn8X4KJwq7HhGlEg660bYthmyxCYQkECTzEeAtT/UmRKaDh06OG8i7Q3vJNj7ZAjCjoGaiB6EthjeAISfofHJUqJcsxMe77/++uudZ4s6hsRgKMBj5JM00qAN87tQECmIDzohApGG/IeFLcPDvyFFWyTEFENAOoLB/uuvv3a3stbLJP8gsA1ZooFp7GhUMSEp3JOVAlHKqDCI4yb2f2APly9hBriKCb1TYXEgv9+EBysdC4M+Z5+GgCFgCBgChkBuQgBF9H//+5/LEgSpT58+MnToULdVM8ofYUVsdMTusngCfGF+DC90Z90HP8URPu+H+PlpQGhI11eS/ev+McokP/GBkdL/vR7mbn6QlLVLeJNQiEmTUCiU1ahNI/x0OSY0izTYptokaxBA9+NP1yShD7IUgronzA6DtUYBcQ3ylK63MVGOWZeuP/NCuz7uuONcHbNOD5LG+iYlSmzgRYggHkpC6PBasUsdRnN+UwyyRRtkAxPW9/ny4Ycfuh9i9s9B7ihXusJvnPGnYmF4ikTe/4wjS1gMGKiIc1a3fLiIdBTuUYtQ+HpWfKdThAkUHdEXFvLx55MlJgd2/SGv/o+EYWXDW6VeKD8dOzYEDAFDwBAwBPISAniDUEwhRiiDnYN1I6zlQNFEeSWSgusYFTEeskgfpRKLedjST/gdURnh8+DBMyicKszDAwYMcESFNUPJBCs/O45xH+QuPKcTtsS7+/Xr53QMjnmX/o4O72YDJ8pEeFNYB4Fc8YxJ5iKA7kSdqNA2ICEIYZq0Mzw3RPdAVnRHQn5XC13RJyWE8GGo9iXRVuR6j+7Ex3fWNdGOWH+HIYANSGjPCPnknRA50kTHI4wOQkUbot0RfornB1KOQQACpUKaur24nqPNUSbaHOULGxv0Pj4xGoT1Uu5HZ6bdhr1W/rN2nPsRiCNLkAdc6jTwZMIglZ1EA+KmYQPJ8hW+BiniDxc+rn9cxxqOcM8994Rvt++GgCFgCBgChkCeQoDfRsLajhBqBGHAw6JCKBFGQ9Ze6K5zH330kZvnk4W38cOfYcFK73sKUAT5/ZlU23UTdnf77bc7Esfc6xMufQeKJT/uibH2+eefd4qv7nLGPSiilIV3IuZBcjBk+T/qBaLNjomEr+FxpP4IscOTRJ2w5TdhcawXP/HEE52Hhh2M2ZQB4q6Cl/C9997Tr+5TvVRxJyO+ELaJHgfBxxDOGiQ8PyoQNggSoYGEZEJO2CmPLby5t1evXk4HxFtJOSDnhPYRPgjpol0TzupHIfFjtmw3rkLaiSRM3rmPTUs0PPWUU05J9KidzwMIFAhYc7yLJhdlGiaPFYAQgnBIAAPnG2+84XbP8QdvrGosOGTRqhIsrA10bKwGybY/zUVFt6wYAoaAIWAIGAJpIUBIORsX4TFKJoTYjRkzxm3DjMWceTEjwvyJlX17BIU7nXA60mZb6qgNHVjDTEgV3jJdg7I9ebFndgwBPHt4FAnBg1woOcdbQ6icEiSM72pYp/5pf2ESzjlC5iC/ei+5gzATngkRQ9iUi1BQ3dnYnUzjH/pf1DPsuMzui5DBREJ5eC8CGYIw6notzvGbUBgKEm0wgZ6KJ4z2mupdpGeSexHI1WQp98JmOTMEDAFDwBAwBAwBQ8AQMAQMgfyOwJYtcfJ7Ka18hoAhYAgYAoaAIWAIGAKGgCFgCGQQASNLGQTMbjcEDAFDwBAwBAwBQ8AQMAQMgZ0DASNLO0c9WykNAUPAEDAEDAFDwBAwBAwBQyCDCBhZyiBgdrshYAgYAoaAIWAIGAKGgCFgCOwcCBhZ2jnq2UppCBgChoAhYAgYAoaAIWAIGAIZRMDIUgYBs9sNAUPAEDAEDAFDwBAwBAwBQ2DnQMDI0s5Rz1ZKQ8AQMAQMAUPAEDAEDAFDwBDIIAKF+RFXE0PAEDAEDAFDwBAwBAwBQ8AQMAQMgXgECgS/MPxv/Cn7ZggYAoaAIWAIGAKGgCFgCBgChoAhYGF41gYMAUPAEDAEDAFDwBAwBAwBQ8AQiEDAyFIEKHbKEDAEDAFDwBAwBAwBQ8AQMAQMASNL1gYMAUPAEDAEDAFDwBAwBAwBQ8AQiEDAyFIEKHbKEDAEDAFDwBAwBAwBQ8AQMAQMASNL1gYMAUPAEDAEDAFDwBAwBAwBQ8AQiEDAyFIEKHbKEDAEDAFDwBAwBAwBQ8AQMAQMASNL1gYMAUPAEDAEDAFDwBAwBAwBQ8AQiECgcMS5HD11+OGHy8yZMyPzUKBAAWncuLE89NBDUqNGjch77KQhYAgYAoaAIWAIGAKGgCFgCBgCmYFAHFlavXq1jBo1SpYuXSqJfqsWwrLLLrtIixYtpGTJkpmRh7g0IEqjR4+OO6dfmjdvLgceeKCce+658sorr8gee+yhl+wzGxFYvnajTFq4SqrtUlyqlCm23W+evWytLFixXupWKilli8c1xe1OMyMPrt24WTYHv8lcskihjDxm9xoChoAhYAgYAoaAIWAI7CQIxGmokJSyZctKgwYNpFChQgIx8gUCtWnTJpk3b5788ccf0r59e/9ythyfd955UqRIETnnnHOyhDChQJe48VP5q9cB0qhy6WwpUzovmblsjdR4/Af59/Zusdv/mr9SmjwyKPbdHZQpIZc1qyrnt68ldSuWkgaPDZa9KpWWz85tG3ffzCVBeo99Jw90qS/Xd60nBe4cILJybdw9fDmheXV5//TW7vz3kxfL+R+NlgnzV4iUKCKyZr20qVFBnj6qqexTo/w2z3LixDdGyKbN/0r/M9vErvceMk0uGTRBZHXwvqAuZf0GOalpNXnq2GZSufT2ky9eEIVT7MXewVUfj5XHf50q3ZtUlbd6tPKu2KEhYAgYAnkLga+//lpeffXVuEx37dpVmC+Rn376SV544QWZNWuWVKtWTS677DJp23brnNC/f395++23ZcmSJVKzZk255JJLpFWrbcfFtWvXurk37kX/feFdvHPBggXy4IMPypgxY6R48eLSrVs36dmzp5u3J06cKMcff7y8//770rBhw1gyn332mdx1111y5ZVXSvfu3eWKK66QwYMHx64XLFhQSpUqJe3atZN7773XpRu7aAdZjkCyOuXl48aNk8cee0ymTp0qFStWdHV4zDHHxPLVr18/ee+992TRokVSr149ufzyy2XPPfd019evXy9PPPGEa6O0r9atW8tVV10llSpVij0fdfDFF1/Ia6+95tKkzdJm9tprL3fr3Llz5Zprrol7jHb/yCOPxJ1L9IW2WLVqVddu/Xv+/vtvp3eiK9N+acv77beff8s2x+Tl5JNPlh9++CHuWirM4m4OvtAn6Z++PPfcc05nRy9/5plnZNCgQQKGOBauu+462XXXXf3bY8fJ6hNMBwwI9MGQUK9PPfVU6OzO8zWOLG3YsME15GLFim1DlBQSCFPp0qVl+PDheirbP88880whrzSGvn37Zur7ixQqKB+c1kaqly2eqelub2L9/pgjf8xdLi+Mmh2Qi3WRyXx5XntpuGvpwBsoMn3panl52Ew5sM+vMvv6A+T9U1pK+94/yku/TJfz2tWMPX/e+6OkzW6l5dou9WLnbjuwoZzVJj68sXSxLV6XviNnS/dPx8irhzaWowNiU75EYVmyZqP0GT5D2r7ws4y+pJM0q1omlpZ/4HspL+43Wn6c+Y8MPHVv6VS7ohQvXFCmLF4td38zQVo89aNM6dXVnfOfT+c4HZw0ncWrNsjjQybL6Ku6yJ4J8qz32qchYAgYArkdgV9++cWRHJQ3lcqVK7vDjz/+2CmjN954o9SpU0fGjh0r1157rSMdKHoosihBKIi77bab/Pjjj3L++ec7QsP9vhQtWlQuuugi/5T89ddf7t7atWvLwoULnWJ43HHHuTSIUvnf//4ns2fPdu/TB/054fXXX5fnn39eHn30UenUqZPeIm3atJE77rjDfed+FLy7775b7rnnHvcXu9EOshSBVHU6ZcoUF+1z4YUXOp2M6KD77rtP1q1b59oCSjzK9/XXXy+0ySFDhsjZZ58t77zzjmuPF1xwgdMpqVuM9G+99ZacccYZAoGGJEfJRx99JI8//rjcdNNNQrv79ddfhfdjMGjUqJGLTuL9tHmVEiVK6GHkJ6QGAgaJgXQQweQL7RwjA8QfY/2kSZPkhhtucOSJd4blyy+/FMgVZV++fHnc5VSYxd0cfFm2bJkMHTpUIEdgpIIBAbntttuENG+99VZnVICYnn766ULfR5/3JVV90gf9fr9582Z58sknd/pIrjiyxECI1ybsUfKB5hr3cG92C+uUYMwqyfKp94Q/B01cJA8NnijdW+4uNwcK+uzAO3JsnUry3PHNnVdjw6bNcsvX42Xv3XeRMkFo2NKAEFz64Z/y1sQFEsRsyZmNq8iTxzTdrrCxBSvXyf7PDZXXTmohF3/0p/wWhLL1CNJ79rhmAnl5b8JCqVyyiLx8VDM5Ys/dXNbLlyoqe1UtK1cWKSw3DhwXLo77Xr1sCaldYUtIZJ2KJaVa8P2th76RP2Ytk3Y1y8vNnetLz8/GygENdnX3vfjzdBk47R8Zf1VnKeQ5DyuWLBpLx38RGHTvP1qeO6xJHJmCMF21Xx2XxowlqxOSJU3ru0mL5Nlh0+Sva7vGee3I87MB/rcN+Fum/bM6du2r8Qvk+i//ktEBmTq0Vnn535FNpWECb186OJGPAeMXygWBdwxmedSbw+WmfetKhQDzAQH2p7faXW74cpyc1bKGHNe8mlzc/w95b+JCkQ0bpU31XeSNk1sGpLSUbE89Tl60KkhvtAycuVRaVy4lN3dpIMc0raLQxH2e8PpwObzhbvLB2GDwnvqPNAjCHW8I8nl22y1E9vYAJ+pq1vK18vBvM4NnC8hDnepKry51XTqbg/+3Bbi9EhDsuRs2y/0d68jkf1ZJt4a7Bp7CanHvsi+GgCGQ9xFAKcOI2LJly20UzE8//VQOOugg90dJ69atK7/99pu8++67ziqOtb969eoxCzlh9k8//bSsXLlyG2BQXn1Cg/cIrxSEB0v8V1995fQDlEqVo446Svr06aNf4z4hUjzD9fr168ddwyvlh9oz//OONWvWxN1nX7IWAdoKOl+iOoW4oFzT/hAik2iPeA/xqOD15FrHjh3ddeoZ78XIkSOdF4r0IRa0QQQycvTRRwvkRc+5C94/0qZdHXzwwe4saUJwPvzwQ0eQIDx7772381Kh7CciXV6SUrhwYed1xQM1bdo0/5I7ZukHXlLKhECQDjvssIT6crly5dw9kDRIji+pMPv++++dkeH+++936/QxcEAK8QaHy4Nn7vPPP3eeJbxyCKSJe/EoH3DAAc7AgZcJg0iq+qQufbKEYQWPbq9evfwi7HTHcbTdZ6ypkMjIvanSirr+4osvSufOnYVPFSwNuD/1z7dO6T2pPllvM3DKIrkrIEzPBcr3wNNay8zla6Tziz8LSiby9/zlsj4gTcjhrwRek4XL5ctT9pZ+gUL/zbTFcmGgRG+PbNj0r0u7Z6A03xl4cT4Pwr/e+muulH1okOyxSwkZEoTKHRCQmyP7jYol37VeJTl+r2rStX7F2LlUB5+NnSdSspjstXtZd+vtBzeSPQNCcvo7I2VqQEbO/3ysPHFoE2kQKP6+LFq93nl58PToH9fHBXjI2vUBgYhW7i/vVEcOb7KF3PnphY+HBgStVuABiwpvxMP00OFNYte499AghO+ifWrKsPPaSfUgvLBZ4MFaEdRflKSLU5OAbF0XEA/k5oBg7FunoixctV5+mrVETnh3pLTZvby0r11BLur3h4xdtFI+695Khl24ryOEN36xhaxmtB7Jc71nfpJmVcrKsJ7t5JRm1eXYviPk1+nxLnUt15iAWJ3z8Z/SPLj/56Ds5+y9h5zTf5T0Hz3H3cJaryu+nRhETW6UoWe0kVv3qSHXfTFGCMtEbv7iL7k38Pg9GeD5bY+W8sn4+fLSqJmyJPComRgChkD+QoB5cPLkyU5hQkFCscHSrKQCy7Iea8lXrVol8+fPd1/ZVGnOnDnSu3dv51Xi2WbNmrk/vT/RJyFxhFtBYpAuXbq4cCv/ftZBhzdkQuFDoUPpJfwvTJR4nnCiGTNmuD+UxZdeesnN/aeccoqfvB1nMQKp6pRlGVWqxOsGkBw8gQjeniOOOCKWS+qUcDJIe5kyZRzJgaCojBgxwoVZapvS8/4naYeJFPeTFwSyxnsg9ngo8QQl2jhM04VMHHrooe6vQoUKejr2SRsk9A4PGG2eNIcNG5aQLHXo0MGlRX8MSyrMIEB4o+gnCOQPnRscMYhAFPE0IfRj7tt9993dd/5BDgmbg3Ai9Hf+kFT16W767x9eZspICODOLnGepdwEBq7Yf/75x7lksTRkqgRE6MPuraV59S1kolngual670D5OvA67F93Kyn5OVDYhwYK7YwbD5I9ym9x4ZYqVkR6D526Q9l5OPDQHBx4eZDj6u0qkwKvzCNH7um+lwisG31HzpI1gUegRJE4LuuuR/27Y+DfgXekqNuUY8iMJY6QXdSudqDgb3EbFQncR++c2kqaPfGd1AlC3ToHXrNLO9XeJqm7vxkfhMONjzu/8aGjHMGSgMzsWmqrO5d1R4MD0qnSOCAhd3Xb1hWt1/mc+s8aqVcu3hV+Sf8/ZcGqreGFxwfrrU5pUd2F5d26bx25sEMtl0TrgET+8OhgeS8gDOcG5GB7hXrEa3fJRyLHNqsmFUsVke8nL5K/5iyTz89tL4c12hK6Uinw6D3Vsal0qbslbvqkgOA8P2JG3GvTrcfeQ6dJ+4AkPnLUljpmfdeUgLQ+FbSjN4JyRckxQfu4/7DG7hLewTmBF+n+7yc5jxcnGwX56x2Qd6RtrQpy968zZOTspVI7IMUP/DxV+p3YInZvv9NKS7WgfZsYAoZA/kMApZDNmVCW3nzzTRce9MADDzhvAIQEazPrlQgrYm3HhAkT3PoJPEgISuf+++/vrN8oWShehL+litz49ttvZfr06S7cR1GFmPlhP3ivsPiHLesQshUrVrh8c/2kk07SJGKfhPr7SjYXyCdEziT7EEhVp4S7sTTDF55B4UfKl986xy1evFiuvvpqtx6OTcIQf10NxJr1SxCRZN4g3um3M9Ih2onzCGvjIDaEl3Lu4YcfduugCE9Llq57OME/QuEwKLCWj9BB1iARkkob99ffJXg87nQqzHxPMA8SAgjZIewPvF5++WW3vu+TTz6J4Ywn1hfwweCA4PlVSVWfeh+f1AXGiazYzM1/T144zrVkqUePHo4o8YkwIRB/ilsybKXKMNCli8eIEs9WCTYV2LtquUDZXBZHlkbNWS41g00SlChxL6FM/KWSs94ZJeMWrYjd9vwxweYFZbY05ubVtpA0LpYuWkj2DTZJUCn13xohNkVIV9YG5A9yhXSuVVGuCUiGhmxpGk2rlJHbgnC8u4KNFfqctJ9E0bC7Dm4i57WN32EQwlWmaBEJdmmII3ClixeSKv+Rp2FzlgYhYWtSkqXSxYJ1TmvjvRuQFc3L8+PmScNKgbcrIEtfBXXBZhvgqLJi/Sb5ZdqSHSJLmtY2n0FZlChxDSIyevZyeeqnqfJHQKRe/nOuNCoXPxilW4+/ByRmfkAI/bJMXLxCJgc7ASaSg+tvIW16/eCAxD3563T9Ku322DoBgd+eZYrKqnWbZFLglZIA486BR1KlarD+rmaFAFcTQ8AQyHcIQJIgHKp0orihWLEGCLLEhgkQmxNOOMGRJazaRx55pAuDAgzWfhD288Ybb0jTpk1dWNwtt9zi1j4QdpRIWC/Mhg66bsK/D/KGBZ584X3Cuu8L1yF2RI6QT6zwvmWce/GS8SyC9wzvFwv0IX0YU02yF4FEdQr52LgxPuKDDQfCpIS1SrQrQrxYAxMWPFCsbyLMjfVHCMr+WWed5Y75B4Gn3ZE27/DFfyfrodggQvPA5hMQbzw0bDARlaafVtQx6eO90jaJFwq9lLZIeFtGJF3MNE2MC5BBXXfFz+fwfqKt6INIOnWg6fGZqD71HogrpJM6MRHJtWQJb5J6lGiQWBpwvfJJ7OiOECY2cQhLicD7snp9fIcnZK/Mf+QlfH+q753rVoiFlHFvJc8rE37WXzcUvpbO9weCkLpEmyv4z9eFiAQvq1kh3ruj95QLCBCKdViaVAmsRgF3+33WUukYhKghZ7Taw/1xfOXHY2RYEMY2N/B+PPfzNLkiCMvD0xUWQuAeHzHdkSDC7hDfGzV4+uKtj2zcFGwiUSTALSBq/0n3plWlRbVy+jVTPxuGyn1m39/l9WC90uXBboDtAjJbJ1gT9gabbCSRRPW4esMmKRuQYr8slUpVkG4BeUwkRYvEt9HitNlgsN4UKA1I0Yg2zPk167eQ5sLBZOJL/LTiX7FjQ8AQyMsIEJ6jREnLwdpeQu9Yj4TSyBoRFsEzh7J2BGu4epYgSiwG153ECMtjnQnnE5ElrOysfYBohYXQHwgNHgXC7PBmhYUNAMgzO5YR6nPzzTe7dUu+NwvlUDep4Hk2n2DdBOtftFzhdO171iCQrE7ZQVnD3/TthNn53iY8i+htF198sas/v57xQLEL4vjx4906HX9NHG27c+fOmmzsk7TDO8PRJgnrQ/x2w3f0Ra5NC9YiYUyISpP7kgnPsw7KF7ychPxlVNLBzE+T9U++QLYgfejGeg08/NBE8NBr/rMcJ6tPvZd1ZKzLot+Z5GKypJ4kYiVh1Rr/qoTpm2++2e7627BijcwLNlvAo4RsDLw4Qxeskp7B+hhf2HhgTLB+Bw+HKvdsn31fsN7py2AtSbw66j8pcRsh6BXWmuRFqReQrLY1K8gjQRhYx9r7xBUBbHoHXpdW5YvL8sCzcVcQxnfMntViZGnhyvXBbzFtIU5smsB6qeeDsLQrgo0hfBkzb4WMnbdcjmm0pWO2CN5JCNxl+24NF/xs7HypXm5rKKD//I4eFytYIJYE3pnXf58p4649QBoHOwYiT/44NXY9owfsVAi50VBLnh8ZEM/Zy7aGH4bT/D3YnONcD+pRgaetZLBxh4ZWhu/X73UrBUQ4sL6NCNJnHRfy//auA7yKooteSgohIXRCDRBC773DD9JBBAEVBEGaVEVBxUKToqCooBQREBVBUEBROtKE0Am9Qwi9QwJJSCj/PZPMy77llYQUCbn342X37czOzpydfdwztywSUpy7yRYnEUFAEHjmEECwOFyCsHquBSnCEbAOwoIYEMQ06cB01MExnSwJLkFQrIwCooKMs/Zk/fr1qn3z60PgwgerAJRKWJb0yr65He0yBJcg1EPacRA644q/+Rx8h5IHK5N2L7JVR44lLgLO7ikSD8BqhHr6fsNtTC9oI/kArJZI4lGyZMnHOgdLDfQ6ZGXUBF5XQmIJbWXSx7AFAcc1tGBOgGwhlghZ4eDqB+uSnmc6ZgdxPPba1G3Z25YoUYLgRmgUfDe6GRrLHO07w8x8LqzDSKdutNAiVgmxfhgTyBdiqmAZhoC84plGXJhZnN1PXR+/KUhgIRKNwGP6PkyNmHj2BGVm86e9ugk5DgvS/v371YOiiZJuz/xdH4/zlsnRQI6VgesaiNLIVRynw9u2HMNilGZQ3FnJ/Xj5EVUP7/AZznWrcczPY8AZT3wG979oUYqWcKIAxBhdjYkxAh7t5uygqBjXOlhfyN2F5u09pxAAIdhw7obK5ocDcLn7nBNbvLWMg3U5lTksLrCDbOc4q6ac6pw445+W3lV86X0mZ0euRCct2MqxY63m76JsMQQXmfO+3nhKV3e4RYKFngv30rIjVxzW04X32OUQcjtmXCBPYzefojsxx3W9uG67MwlfdOQSLWWyB0H8UZu5u3j80ZbMubvPEVKqG2XKrjO0jmOpILj+4E0naXBlaxdJY329D4tem1K56R0mpcG3whVRegNtx8Sv6XqyFQQEgWcDAShMcLODSw4EChxW8uGeg5V5uA4hZgOB2hBkn8N7EuGKB6latSohYx6yk0F2795NIEO1a9dW30HGhg8frvb1H8Q9wW0OiqdRkCYZK9x4rQcsW1pJNSeYMJ6DmKr27dsrdx8oulpAiED69GfVqlUqxTiyrZld9vQ5sk18BJzdU2Rbwz1HXBwINog4zkHcDQRzEanCQXD0fMAWeiTSWCPuBu55mEvGckcjQRY8zPmAgADVDogYCAKOI4Mi4t0x53ENfGDJRBIKW+8Oc3QdYxksrvrZwXE8L3gXGNzh4ivOMMPzCWsrjAYQEDJYcZGKH/Lbb7+pBRAkeoAglg9ujKgPDDF2WIT0ggiyTqIc4ux+og4WULAwEd9YLJz7rEqsdsojhO8x2CpAxo+sLcHEQ52kDvhKMCGy1Xl9jFfovdnFy2PY36xEpiUPDpZfxy9NzcSpwmEp0YJ3DG3kbGMvcZa0zzlontg16rUSudjN7HG2rs95Vrdwv9vVty51+W0P5cQLbDnRBVJq92FS80+3qvTBisOERBILObHAMI6LmhAQxE8cx8745aD+nLpayzv1/SiXlxt15sxyPRfvZdsm0042Kc9oUZoV+whFoFC3Zw1fOsWJL0p8tUG5DuZlN8Yp7G5YgLMGQn5kl7hiWTwes1CpQtOfu+zS9/32IHaly2AVl2SqZvlaIpcXvVIhn3o/Fbm7Ui6eK5829KduvwXSB5ySu1/NWGuX5SQHO7BO/dKBM9gsZGVkHs8vl3TUh10KO3BsFmTjqRv0HZMjnbABx3qWz09N5u2hKMaQmFR25Yx4QxsWRZFT+b59OUUOfSesZWzT0dCaBan6nczkGuP66LQBqSAICAIpBgG83BPxvFAIsUoPhRWudlBAIXDNwXuTEL8EZQvWHJAfveoMYoPjUGhRhpVnrGQjfTME7nZ4/8zIkSPVd/zBy0dtuddBUUZbRlcq1MdKOt75Yk+0Ox7God+diAQPxpVt6CdICqDHZa8tOZ64CDi7pyAnUOyhoCNjIWJnoMQjaQesG1DgEaNkjlPCi4thiYJOifcqmQWWDbOlSdfB3ERWZCRYgAUV7WDu6JTXIAeY78hEB5c/zFUkK4DF9EkFLqkg8/3791d9xnMCd1Odvjw+7TrCDO0gcQoWMPDeNFjokHAFz2n9+vVV3BJil5DERY8X7qmwpgF36O6wNml80R48sUAW8Yw7u5+oD0s0xgdXP5FoBNKwpchiRgKbxGQAM3Uk+NHCTcIPa2ILmDAegrhIfOrq9hbvv0QvcVrmyI8aEWKSYN3wYeXdmcCakpkVZxCC1C6w1Jxhq4U/px53Y8ubLUHqcWTzsxUDpevDwhLKrntox3YrHKbD0zPalc/5PdLtJtb2BqdSh+UxZ4w1C9+9mCQmZA5cCr1HObg9R9Oo+MT1NARJOjjr31nOIOjDrof2cLY1Vlj0imT35OzxWPBIwz96j8j1k5X0T+fKlux+ts6TY4KAIJByEYByg4VMKEr2lEKs5Jvjm/SI8f8/YoFgidLuVLpMtoKAMwSgSsK6g7TbSaEb2ro+4p1gScUCv605i/mOhX1bSUhstRfXY3jOEBdljL2K67nGevHFDLo5EjPYe4adlRuvLfvxQ8DKsoQJDr/M/1LAorXp0Fk/tE+ss3r2ymFJwicuYkybjfpwnZrLKb5tSSe2SnTil94+q4KX9SK7niNBvJczyWNKqmCrPmJ04kJmbZ2b0GPmJBXm70/SfnzGAgJpLxmHo2u//dchTibhSl9wOvo0vBQyeu1xysnJJGpzpkQRQUAQeDYRgLIIouNI7ClZOAf//xsDxB21I2WCgBkBEAdn8898TkK/Y1HA0TUdzfeEXDuxkh7EFzOQPkfEz1l5Qsac2s+NG1NIRpS033VSXRJxM63yZ05w8yBDzzIhSjBA0sATI1A9T2ZL8pEnaWTeq5XovaUHqQS/CNeTE1fUy5uZAnrVTJBF7En6IecIAoKAICAICAKCgCCQ0hGwcsNL6YOR/gsCgoAgIAgIAoKAICAICAKCgCCQWAjYCxVJrPalHUFAEBAEBAFBQBAQBAQBQUAQEARSJAJCllLkbZNOCwKCgCAgCAgCgoAgIAgIAoJAUiMgZCmpEZb2BQFBQBAQBAQBQUAQEAQEAUEgRSIgZClF3jbptCAgCAgCgoAgIAgIAoKAICAIJDUCQpaSGmFpXxAQBAQBQUAQEAQEAUFAEBAEUiQCQpZS5G2TTgsCgoAgIAgIAoKAICAICAKCQFIjkP7o0aNJfQ1pXxAQBAQBQUAQEAQEAUFAEBAEBIEUh0CaiIiIRymu19JhQUAQEAQEAUFAEBAEBAFBQBAQBJIYAXHDS2KApXlBQBAQBAQBQUAQEAQEAUFAEEiZCAhZSpn3TXotCAgCgoAgIAgIAoKAICAICAJJjICQpSQGWJoXBAQBQUAQEAQEAUFAEBAEBIGUiYCQpZR536TXgoAgIAgIAoKAICAICAKCgCCQxAgIWUpigKV5QUAQEAQEAUFAEBAEBAFBQBBImQgIWUqZ9016LQgIAoKAICAICAKCgCAgCAgCSYyAkKUkBliaFwQEAUFAEBAEBAFBQBAQBASBlIlA+qet223atKFz587Z7FaaNGmoePHiNHbsWMqXL5/NOnJQEBAEBAFBQBAQBAQBQUAQEAQEgcRAwIoshYeH04EDBygkJIQePbL9rloQlkyZMlHp0qUpQ4YMidEHqzZAlHbs2GF1TH+pUqUKNWjQgHr37k3fffcd5c2bVxfJNhkRCIm4Tyevh1Fubzfy8XR74itfCImgK3eiqHDWDJTJ3WoqPnGbKenEm+H3KUuG1DfulHSPpK+CgCAgCAgCgoAgkLoRsNLUDh06RJkzZ1bWm3Tp0hGIkVFAoB48eECXLl2igwcPUuXKlY3FybLftWtXcnFxoV69eiUJYYq4/5Ayj1hFe9+sQ8VyZEyWMcXlIueZWPh9G0ARQ/9nqX7kyl0qP2mT5bva8XSnvqV8qHvVfFQ4mweVnryZymTLSEu6VLSqd/Z2BPlz2Zi6hemduoXIfdw6orv3rOrgS9vSuemXl8up45tO36C+Sw/T8at3iNxdiCIiqUrezPRVy5JUKV+mx87FgY7z99KDh4/o147lLeXTtgbTW+tPEYXx9Vx5Ckbep3YlfejLViUpR0Zu9wnkYmgkDV1+hFYG36Lsrumoc9ncNIjH5ZLWeg4/QdNWpyTG/Dh4+Q61+WUPBd8Kp8B+tah4TvvzbMXRq/TCogNW992qQ/JFEBAEUjUCu3btokmTJtnEYMKECZQzZ05L2bJly2jlypX09ddfW45h548//qBff/2Vbt68SQUKFFALkhUrWv+foU/AoupXX31FW7duVYuq0APefPNN8vb2VlWuXLlCEydOVDqCu7s7Pffcc9S9e3dKnz49nTx5kl5++WX65ZdfyN/fXzdJ6Ne4ceOof//+9NJLL9HgwYNpw4YNlvK0adNSxowZqWrVqjRixAhCuyLJh4Cje4peHD58WM3BoKAgypYtm7qHrVq1snRwyZIl9Pvvv9O1a9eoSJEi1KdPHypZsqQqj4yMpClTptDmzZvp3r17hHk3cOBAypo1q+V8WzsrVqygn3/+ma5fv67mLOZOmTJlVFXoqO+9957VaXny5FFzzOqgnS/wXvLx8aHXX3/dqsbRo0fpxx9/pP3791PRokWpdevWVKdOHas65i/oS+fOnWn16tXmIvXd3jNpruwIQ2fPpLktGCW++OILwnjwXDVt2lSNVev8eLZhkLhw4QLlypWLXnvtNWWoMLeTmr5bkSUQIUxkNze3x4iSBgWEydPT0671R9dLym2nTp0oKiqKPvjgA5ozZ06iXsotXVomBxUoj/fT8WO86MBlOnAxlL7ff5EoPNLmWJd2qUxFWeF+9JCUAj571zlqNncPnRlUh+a1K0t1Z2yl2TvOU7cqsZa4NxYfpCrZM9LbdQpZ2vywfhHqUjm2Dgo8XKKnyIK9l6gLk5EZjYpSq5I5KTNbRG6xZeTH3eep1qxttLNXDSrt42lpy7jDXMkib/55iDYzoVnWrgzVLpSFXBnvoBvhNHbdSaoyLYCOvVVbHbOcEIedK3fuUaEpATS8an4aUq8w3QiLpA9WHqPTN8NoapvScWgheavM3H6OKubyoqNv1eHnLHmvLVcTBASBZwuBQoUKUc+ePa0GtXz5crp48aIiMA8fPqR58+bR2bNnCQqmkaTgJBClb7/9lj7++GOlIEJpheI5d+5cQttmATECAfv0008pLCyMpk2bRkOGDFHKFZThLl26KCUSBOnWrVs0efJkpXSNHDnS0hT6pAXXmTlzpmqvVq1a+rBajP3oo4/Ud+gmV69eVXU+++wzGj58uKWe7CQtAs7u6enTpxX5wRx85513VBgF7hGIT7t27dT8WLNmjSLAOXLkoC1btigyDtKB+YW5Bp0S9xSkeP78+UpxX7x4sV09dOnSpWpegRAVLFiQdu7cSQMGDKDp06dTsWLFlIcUSBjmpRZnBBvPy6pVqwhGg/Xr1xMW5o1y5MgRevvtt1XfMMdB/IcNG6bGh2uaBc/a8ePHFUmCt5ZRnD2TxrrYxzPmCENHz6S5LSyI4Nns2LEj9evXT/1OjB49moAXSOz27dvVuN59913y9fWlvXv30tChQ+mbb74heHelVrEiS66urspqo9mlLVBQBssO6ia35M+f3+pmOeqnvb6tP3mdJmwKoo5sefho/Um6GB5FrQtlpW9al1JWjSj+ER/+zwmqmCcTebF72C12ORu09BDNO3GdeBmNOhfLQV+0KPFEbmNX70ZRg5nb6Ye2ZWjA0oO0m13ZXuH2JvG1+7D14LcT1yh7Bheawe03K55DDSErk5LSub1ogGta+njtcZvDyp3JnXwzR7tEFuQ++2Ryo3lfbaLACyFUNb83vV+7MPVZfoga+GdV9WbuOEdrz9ykA/1qWinrWT1cLO0YLwQMunB/v2lcjDpXymMpAmEaWMuX0rHCH3w73C5Z0idsOHWDpu84S3sH1ray2qHP37xQkkasPkGnmThpi97qY9fo/dXH6ODNcGpSIAt93qwY+duw9m05c4s8mHQN/Z+fvhS9VjEfvbvxFE21HLHeWXzwMo1hgnaA74F/lgw0rpE/tSwRvQJ7J/IBDf7rMP1w/Brfc6JXi2Sjz1uWoMx2XAW/2HiapjNBDb4bSfXzetPEFsWpZM5o4thk1k76tElRmrP7HP3L/SzE11oadFN1psq3W2h5N3Yt5TmxoUdVAv4Q4DRuwyla0c2x5dbZXEZbL/y4m/pVL0DfMe5L2TJYIKMrTWULXkMeEwSEFwT211PXyZfn3qTmxenDVcdoUeeKVOApWTBQHZU/goAgYBMBrMDXrl3bUrZw4UK6fPmyUrDw/zQWOLHaj8/t27fV6r6lMu9AGcaqu14hh4Vo6tSpdPfuXWM1tQ8F+P59/s1gwgTFF4JVab1ouWfPHmVBgtKlpUWLFvTTTz/pr1ZbECkoqDNmzCA/v9jfb1TCoq3R1R4WL6z2YxVdJPkQcHZPQVxAWLCIDcGCO4jFokWLFFlau3Ytvfrqq1S9enVVjvsMixCUcMxJtA/CjjkIgTWnffv2SonXx1SB4Q+sVC1btqSGDRuqo2jzn3/+oT///FMRJFi6ypcvr6xUICYgYc4Elk9YUfAJDg5+rDrIXaNGjdSYUAiC1KxZs8fq6QPw0sLCBOYxFgOMAt3V0TO5adMmZan75JNPlKeXIwyBkaNnEteFpS579uyKBIHcwgIHaxEE9wvWYZBFyIkTJ9QYYRGGYAyzZ89WCx7qQCr9Y0WW4HoXV4lP3bi2aaw3a9YstcIAk702heLhM8qTsNyQew9o7enrdIqV+ymsGLqlT0sfrTlOjWbtoD0DahKsIMevhNK9B9ErX61/2kVhkQ9p6Ytl6G7UAxrEFouBrFz+0KGssStx2o/i1TG03euPA/TJc/5MMtJQ61/30ryTm2hQuTy0jl3lpm89S22WHKSI9+urNuv7RSu1u86F2CVL5osvP3KVTUKuVDaPlyr68Lki9Oexq9Ttt/00my06/VYcpYmN/alIdg+rU6+HRdGpG2FWxwpn9aDD3GeKYFJZKpdVmf7Sr6av3nW43cYWJV92CdRkyFgZFqaxTYtaDgUE36RW8/fQN01LUDkexyxW9svO3klX2PLkxW52RmnKhPMEE16jbOXza9ogVqizlonvK78G0icN/WkyW7cW7b9C7eYH0m4mjyA5bfieX+BYqj/blm9IXDoAAEAASURBVFb3aAjj1eKHnbT5jegfe+N1xq49SaMCztCMZsXJn617U7ecoYrTt9HZt+sq8r3hyh0azvPr1r379HqlvOTP47/OBD1D+nTUvXI+0nPivmGlNYTrrufznImzucwclgLZZfLVPw7RMCa1b9cpSBM3naEWPA/C36uviHKrOTspLbPdlS+Vo9tMinvzwsClW2EUxe6oIoKAIJCyEIAlByvAcLPTC5pQzEBoIOfPn3+MLEHhA8HCqnypUqWUOx62+JgFih/+b4ZgtRxuPCBKbdu2Vcfq1q1rtaCJg/v27SMsdBoFCiwsTet5BR+Kry2Xq4iICIvSeufOHdq2bZuyGMC1UCT5EHB2T0HMQWKNApILSyAE7lxw9dICIoJ5WrhwYfLy8iJYQUEctMCtFFYgc5u6HFu0nTt3buMhVR99gRw7dowwx0CmYP0sW7asIgpG8m11Mn8B+dfPCUiXWWBxgvUMFtXdu3dTlixZlG5arVo1c1X1XZNDuOzZIkv6WraeSXhOYc5jDBBHGDp7JnE+Fj48PKL1Pbg5ahdbuFciR0BAQADp5woWJ4gOucHzid+Q+vXrq+Op9Y8VWXqaQIApFuZCbZJN1L4xEVrQoRyVYYsNZAm7jxWYsIFWsyWhrkHp3nr2NkHBPz64HuWPWWX3YEX9u21nE9SdzxoXpef8s6s2XmAydJzdxcY1iyYKGXh1Y/6+CxTOymoGJnJxkdFsCcvKVoGHvIK4+dztaEJWBRYfqMuk4nZ+al+WKk3dQsWmbqU6TD761Hic4Ixdf4LwMcrdT5qwm1wEEffFGE+EuKONMRYS1C/OLn3DmJQ5ErjF+ZmsFYOYeF5mkqalTclc1L6sD41bd4o+qFGIenDsFaRyPm/6d9Jm+n3fJepqchV0577howUuhz+z2+Ka16voQ1bbif8GUbcKeZXLHgpqsNXqGsdPIQbsNpPCTWx128fWr6I8JsiSVytQ0YkbCZac6r5Z1DH8uffgEY3aEkRTmxa3WNyqMYkOYKveFCZNwxtF43GTydHG3tUtVrwF3DcPl3QcD5aLkOQiQeJgLjeOmWOdiuckTWjHNHGlpdy/S3ciKejmXdpx4TYFv1ufcsYk6gBJ6rQgMEFdkpMFAUHgv0Hg+++/VyveWFWPq0DphFUJ52IFHgoa3N+ceW6gDmIbsBKvV9ihuOGjBSQMK/6wIBkFK+ahoaFKkUU53LXMAqX5xRdftDqMfiK5lEjyIeDsnsLaaCRD6BmIOty6ICAVWm7cuKFiiaCsg8BAYPHQAmKB+CXE+DiyBqFts1sdron2IbCOwCKC2DqQbsTQIQ4OsXLO5rXui3mLxQEsKFSoUEGRJLgTwmIDK5nZtdV8bny/I5EZPlqcYajr2XomUWYma7o+4gNBymrUqGGJ99JlsM7BXQ+/ByCJOiZRl6e27VNLlmBRAlHCFoKANPhU40c2wWnDM7pZiBLahqJYgWNI9nFskJEs7b8QSgXYsqKJEupCAdVKKL7bk56/76cjV2PdGCY/X4qvE+1mVTaGpOFcTyZfdfNntjSD7xB72QgtFQ07kawwh99/oI7U881Mb9coyLFH0SZtXa1ULk/6kN3xxmw4STNfZMVdFxi2w9nS0rWy9QogCJeXG/dJXSOWwHm5paecMckYdp0PoXOs9A8jx2TJ09WF3RrZSmWQLGwBexTTmemHr1JRxhtkaRXfC5AR4KgllC17287efIws6fIwLn+bE1D8cOAizWcyXNtAbHQdbNdeCqUfmSwZZTaTSQhIoI93BgtRwrEC7OLon92T9nCfjGTpNLvw0b0oalIsG6opAT9tzi5uey/F+ih3ZKthDG/V1RJv62Au63laKW8my/XgsgkJ46QagedDyS+bp4Uo4XidwrH/seG7iCAgCKQMBOCK89dff1nFacSl57BEwe0HFiME3cMtDlYfKMDaFcdWO0gqAZc4KKKvvPKKStKgFVgcR8KGdevW0ahRox5LBoXVflwP7j1op2bNmhY3LH0teI6MGDFCf1VuQFB+4eKH80SSFwF79xSkBlYIo+C7mZSAWCMuCRYlJBcwC9zcQEbggocEXhAQHb2P72gTlkxsbV1TEyzUAQnT3xFDBeIN6xBc9my1ifYdCa4Ha5eOvYNlCHGAiAdE7FJyiDMMHT2TtvqH5xMJKBCTBNdauN9qwaIErLkgsIjVApY9evTQxalu+9SSJbjeafc7ECVMbphesYVJMiGEKQ27fJnF1SUtJ2ezfuBDWBHOxBaAJ5G6BbOxu1l03ArOz+Ygy1uaNI/3Jz7XHMVJF+wlVzC2g+x4xNnhoPzbkkxMgHJ7uT5WVALxN+yeGMhWCFhhIJ0q5FEf7A/5+yhtO3+LkJHu+23B1L9WQZspsZH1bTLH7iCjnLYEGa1RG89sQXPRwsQHMULZPWJXKV/hjHllfaKtgbqa3iK7X312pczn6UqHOMOcGqsuNG/Zzc2DY8BsCSx6XjbuuRfPjwjuk1FAziA6CYYuw/e7UbFubHlN1jRdz96WDYRxlrjMZRcb8x0XAME2ZwuM7XWcuyAVBQFB4ClA4N9//1VB9fXq1YtXb0CUQHZ0JjFYiWDt2bhx42NkCSv3QUFBFjcevD7k/fffV65UsAQhQQNiH0BoELOB5A2INTILCBTcnqCgIaEElE3ELRkVbFgKjJn8sA+lDQob+mHLdc98HfmeOAg4uqdwpYM7l1HgZoekDVqgsyFuDfob4peM9xlWIiRigOvc+PHj1RzS5yGOCG6AZkHb8DwyCiw/6AvEOG/wHXMQZWfOnFGWV1ttop4jwflmiy1cVdHv5BB7GMblmTT2D88vFlYQqwQBAUSSDXxAiGGVg7VYY4jfBbjZ4nciNZMl2xqjEdn/aB8EqVu3bsrMr4kSuqIJU0K69egO3u8Tmyb7PgcqbWMrUCG2ahgF3w9wcgFYbrQgfXbLObvAHRwKEiEM5tTV+mO0Tjk88Sks9GOSVZVJ0sRNQY/1Dth8c/CSOh7K5HIMu/GdYcy0XOF05O7po01HOuZpxvazutiyRTrtQ4iNipGyfM367BIJ90T9qcvxRSXYQmYWkIvmfE+aFMxK/3CiBIdEiU8ulNmdDvH1jNJ1wT5C5sEifN3j3P9QTvKgBQQKyTj8ssb6XaNMXYdXuHafv62rqu3uiyFUhJNWaEnnIH25S0ycIAikltOmuDF93NY2rnPZ1rlFOH7qCF8rzEDstgdbj8XWeXJMEBAEnj4EEP8DxcaopMall3CjMmfrAlGBQmUWKFpvvPGGWo3WZVhxhvKLOAt4RMA1CUolLEe2iBLO06562MLagNVruDM5E6QyxjVgcRBJHgSc3dOCBQuqzHBGbxgkeNBxaohJgpcQlH241xmJEkYAqw/0OtQxZkNEGcgSFHTjB8cxrxAvpwXXBmlBX5DAoEOHDlZzBK5miNuBtclem7ote1skdECacqOAqGBRIKnFEYbOnklz3/DqACw6GAU5CGA5A46wNONjFJTj+U7N8hhZ0oDZAwVgms2f9uom5DgIEl6Qi3SQeJCMYv5uLIvTPpOjQUuPqLggEKUxHKSPzA6tS8W+jwLtNC3GvrQcCzN81QlCPbzraCTHB1XN423TjS1O106hlT7j5AtLOUkEYoyQ1Q8CPDrMDaRHEdG+yYpsurnQgn0XVXkguzH+y4kptDUoO2d7G8cZ64asPKpSmUNJB+lE8oqWnOocWGvpxe6A7/17mo7GuDJu5/ixNgv3UdYYC92oNSdo8pYzqjoy2x3nTHRjmxajcG4T2ezw0SQAxKcvp0pfydn1IN3ZBW8Yu9sd57Yf8HxeyHFQ8/l9Rs+x+1zjojnIlfuJccINMIrvOzLjESdkaGWaH7B8tS/tQ4M5AQSsapC5uy/Qes4s17Pq46upqoLpDzDhXOk0Z+d5/qEilUb9S7bO2RPjuFUd7l9c5rKt9ppwYgzOcMKWwcMq6yOw/pCTUaS6yW0LHDkmCKQwBJDK2JxRLi5DQCYsvOslMDA6VhHZyWBVgmscBNnORnNqYUiJEiVU7AJikGBNgC4ANzwoUyBIUMRgVYAyBkIDdzt8sGJtTxC/gpVruGBB0dUCEgdypD/ICIbYC7zfxl6WNH2ubBMPAWf3FLE1sPLg3oBgI/kB0lzrTHWIhQNJQhpqPR+wxdyBLvf3338rNzBkWTaWOxoB3EOxOAA3MbQDqxWSO+CaIGnoz5dffqnKUI7kBbCWmC1Djq5hLoPFFe9KArGH4HnBu8CaNGlirprg77gGXFBhNIA4wtDZM4nz8bzCzRGC5xpY4TueS2TIRJwYXHCRBAKJKWClBr7Q90+dOqUyG+qEFaqRVPgnvXHMMKkDREwq/PjZEkw81EHdpJQEEyJHnfNyJ29WdLOMXsOKYVqlHK/sWEGlAzeu8CMIfw2/TPVVzh725XZWYFmZf5UVzL6cWSy1CdzvAnpVp+6LD9DUT/9RSjancqPelfLRqlcrqYyCcOmaxxnkRv5zkiZy9jrE89Rh69AbNWLxGlS7IPlwnE23VUepz9ID0QSJ78E0ziYHa18YExsI3gmFzHzl+P1JcB3MzSmvJzcuZklnjQQO/lk8aEBNX9qMRBNswfIZw/fTIP45vWj/wFr8eqr7NGvXWbYcZqAmRbOrdOfBNyOozDebibNgUFmOR5rD6bQz8ZyAbOlcibr+to+8P1mtvvuzRSmAU2kj4YZxfqBwEsei9WFMCn2+XhEqzJE5L5al8jGZCFUDDv6kYaPb5CYlaMCyQzRmy2lK4+5KE9kiOYhTh9sS47hVuYO5bOt84zE3HvvOrpWp56L95DN2LRHfl7l8HzotDCQXHoeIICAIpBwEED+BdMrxFbwbBwpT7969lcUHAd0I/NZtQfmFwozgcfy/jxd2InYYLx2FgovVelgHsMIOogWypBVl3Res+CPZgz3R7niIS9ZKHd6dg5d+akEMFZICwO1PJPkQcHZPkWEO9wTkBLFkIExIF48YIVgsMS+hjONjFBBwbdHQIRfGchAue0kFMDexmA4rJixFsG4igUOhQoVUE5iPcPWESyosWbBEIU4KFtMnFRA0EIdBgwapMYJIIP22ea4/afvG85AxECQS8z9TpkwOMQRZc/RMol241UKvx/uhYH3GGPDuJlj7YDEqV66cagN1UQf3DO+wguUX5YjP6tu3L4pTraTh1R9ez44W+I7iJjlaBUJN/GBi8iVk4sVc8rENgjqRyjAuEp+6ur0/D12hl9hSEP5uPQrhVMlhHLfhE5MJTNextYU1Be8VMsd42Kr7rB+DpSaYXdWKcLY4KNy2BEQnA8fu2IqB0vVhjYHrnj+3Y7sVzivBP0hX2WoUl3uk243rFtbCm/yeIWOWP+O5eL8UTF+4784E7ojXw+47HK+jNmDFusFZAR3hZT7/SeeybgfuhXB/rMwJIGBBw9yGNbD6tC10d2RjSzZFXV+2goAg8OwiAEsO3IwQw6AD4x2NFi5IEIkdcoRS6ikDeUCyAKQBTwrd0BaS0Fn1nDW796E+3iGGpCPxdU21dS3jMVhVEXNn65rGesm9H59nEvcLhg8QUlvGD5BejBOxSyCkqV2sEMAE10Ff/xUw5hfPOuqH9ol1VMdRGSwJmcgKArvVzQr1vEDOuBbjbmY+6WV+4e0r5a3fAWCuk5K/4z1HyK7nSPB+JmcCYuCMHCAbX1IQJfQtPZMD83019tneS2iNdfQ+3hPlbCy6rq0tSGdCzo/PXDZevzYnxRhdrzC9zu98uhh6j/r9eZA6lckjRMkIkuwLAqkAAawix8e9TUhSKpgU8RgiiIP53UfxOP2JqkJndXRNY1ryJ7qAnZN08gM7xf/Z4fg8k7hfjt5lBYIUn9+D/2zQyXRhK8tSMl3zP70MEjR8GxBM89m9TkQQSMkIJMZc3sHv5Rq59gSt4XTqfu4unPY8u3o/lE5hn5Lxkb4LAoKAICAICAKCgCCQUARSHVlKKGByviAgCAgCgoAgIAgIAoKAICAIpA4EJIo7ddxnGaUgIAgIAoKAICAICAKCgCAgCMQTASFL8QRMqgsCgoAgIAgIAoKAICAICAKCQOpAQMhS6rjPMkpBQBAQBAQBQUAQEAQEAUFAEIgnAkKW4gmYVBcEBAFBQBAQBAQBQUAQEAQEgdSBgJCl1HGfZZSCgCAgCAgCgoAgIAgIAoKAIBBPBIQsxRMwqS4ICAKCgCAgCAgCgoAgIAgIAqkDgfRBQUGpY6QySkFAEBAEBAFBQBAQBAQBQUAQEATigUCaRyzxqC9VBQFBQBAQBAQBQUAQEAQEAUFAEEgVCIgbXqq4zTJIQUAQEAQEAUFAEBAEBAFBQBCILwJCluKLmNQXBAQBQUAQEAQEAUFAEBAEBIFUgYCQpVRxm2WQgoAgIAgIAoKAICAICAKCgCAQXwSELMUXMakvCAgCgoAgIAgIAoKAICAICAKpAgEhS6niNssgBQFBQBAQBAQBQUAQEAQEAUEgvggIWYovYlJfEBAEBAFBQBAQBAQBQUAQEARSBQJCllLFbZZBCgKCgCAgCAgCgoAgIAgIAoJAfBFIH98Tkrp+ixYt6OzZszYvkyZNGipRogSNHz+eChQoYLOOHBQEBAFBQBAQBAQBQUAQEAQEAUEgMRCwIkthYWEUGBhIt27dInvvqgVhyZw5M5UvX548PDwSow9WbYAo7du3z+qY/lK2bFl67rnnqHv37jRr1izKnz+/LpJtMiIQEnGfTly9S3kyu5OPl9sTX/n87Qi6EhpJftk9KJO71VR84jblREFAEBAEBAFBQBAQBAQBQSCxELDSUEFSMmXKREWLFqV06dIRiJFRQKAePHhAly5dor1791KNGjWMxcmy36NHD3JxcaHXX389SQhTxP2HlGHoUjo8pCEVz+mZLGOKy0XO3g6nAl9tpEfDm1iqH758h0p+vtbyXe14ZaABZXJTrxoFyS9bRio6cR2Vy+5Jf3WvZlXv7E1ub+J6+vR//vRegyKUZuRKojsRVnXwpV3ZvLSwc2V1fMPJ69RryT46djmUKIMLUXgkVSmQlb55vjRVLZDlsXNxoP1PO+nBw0e06LUqlvIpm4Oo39pjRGF8Pb6XFBlFHUrnocltylBOzycjXxdDIuidvw7SqqCblM0tHb1WLi8N4bG5pLOew5ZOJGDn7yNXqOWve6zuRQKak1MFAUFAEHhiBHbu3EkTJ060ef5XX31FOXPmtJT99ddftGzZMpoyZYrlGHZwbM6cOXTt2jXy9fWlN998k8qVK2dVx/hl1apVtGjRIgoKCqLq1atTp06dyN/fn5z15fbt2/Tiiy/SwoULqVixYpYm0a9Ro0bRW2+9RR07dlTXX7dunaU8bdq0lDFjRnWtMWPGkLu7u6VMdpIegStXrtBnn31GBw4cUNg3adKEevbsqXQxXP3QoUNqDp4+fZqyZcum7uELL7xg6djvv/9OCxYsUPOrSJEiNHDgQCpVqpQqj4yMpK+//pr+/fdfioiIoMqVK9OgQYMoe/bslvNt7TiasxcvXqR33nnH6rQ8efLQ559/bnXM3hfMxdy5c6sxGuscOXJE6Z3QlTF/MZfr1q1rrPLYPvry0ksv0caNGx8rwwF7z6S5siMMYej44osvaMuWLcrQUbVqVXr77beVYcPcDr4HBwcrDy2Mx9PTk5o1a6bGiucMgnbwG3H+/HmFQ7du3ahRo0aqLLX+sSJLUVFRhIns5ub2GFHSAIEwAdwdO3boQ8m+fe211wh9fffdd2nevHmJen2XdGnpt1erUN5MT8eP8e97L9DeiyH0XeB5Jhf3bI51eY8aVCyHJz8kRGduhdHMbWfpuR+20/n3GtLClytSjSmb6PutZ6hHdV/L+T0WBlKVXJ40+H9FLMeGPVeMulaxdm/0ZOIBmbfnPHVceoBmNytBrZnYZMmQnm6G36cfdgRTte8CaF+/OlQmt5elLeOO0UrZ9/d9tOnsDVr1SgWqUygbuadPS6euh9Ena45R+cmb6NSQBuqY8Xxn+5fu3KM8X2+kUdUL0QcNitKNsEgavOwQnb4RTjM62P8P31m79sor5fWmP9uVt1csxwUBQUAQSDYEChUqRH369LG63tKlSwlKmre3Nz18+JB++uknpSBBwcRiqFGWLFlCIFUffPABoa3t27fTG2+8QbNnz6bixYsbq6r9X3/9lX755Rel8EIB/eeff6h///6Edpz1BWQJYvw/4ccff6Tp06crZa9OnTqqHH+qVKlCI0aMUN9RHwr7J598QqNHj1YfVSB/khyBq1evKmW/bdu21KtXL+V59OWXXypFGsT11KlTytsHcwY6GbyDxo4dS/fu3VPnffvtt7Ry5Up67733FHHfvHkzQfmeP38+FS5cmHr37q10StxbLNLPnTuXunTpokiEVt7Ng3Q2Z0FmcP2hQ4daTs2QIYNl39YOnhc8HyB+a9euVWMy1jt8+DANGDBAkQos1p84cYLef/99RZ5sPSfLly8nkBGMPSQkxNiU02fSqjJ/cYZh3759KVeuXOoZAnGaPHmyWnj44YcfzE3RzZs3CTp0586d1TOMceM5A2nF+AICAtRvAbArWLCg8jYbMmSIekarVbNedH+s8Wf4gBVZcnV1VSsFZouScfwog2UHdZNbEKcEVzwtjvqp65i3a49fo/HrjlPHivnoQ1bQz7N1pE3h7DTtxbLKqhH14CF9tPooVciXmbzYNewWE4L+i/fT3ONXiNhC8loJH5r0Quknchu7wkp9vWlbaE6H8tR3yX7axa5snbi9qW3LEMjLgmNXKaeHC818vgy1LJVLdT1LRlcqlzsTveWSnoauOmQejvqeN1MGKpQ12iWycDYPysPf545fQ3vP3abqvlnow/r+1JOtLg2L5lD1ZgScYQvMDTo6qD4ZDS/ZPFwt7RgvBAw6LtpH05qXtCJTIEyD6hZWbQTfDLNLlnRb609co6nbgujw4AZWVjv0eSrjP2zlEQq6EWYpW3H0Cr23/DDtYzLVrGAW+rJVaSpmw9q35dR18maS+3Ejf30p6l6pAL3H93mG5UjsznC+DsZ6jq1RE3YhPi4Nja/jx5YoP1Wp3Y87qEWxXPTbQf7xPH2DirK74fu1/ahbtWgiefzqHfpi40lqFXOPDrKlDXNk/blb5OLuQiNr+NLQhtYKSezVZU8QEAQEgcRDACv5RpIBMnP58mWaOXOm+n8aZAnWJXxAVqD8GgVWnueff54aN26sDsNCBGVx8eLFVsomCkFavv/+e/r4448tK+qIIwZZg2ILhdRRX4zXxT6U7hUrVhCUOlzXKLAeGV3t8f8/VvvDw8ON1WQ/iRHYtWuX0vmgSGvBfME9g4C4gPRAAYeAjIMkYF7BorJ69WpVVqtWLVWO+wwr5p49e5QVCu2DWOTNm1eVw2LVunVrRfb1MVVg+ONszoLwVKhQQVmpMP/tkS5Dk5Q+fXoC+ccHFlOzIPQDFjWMCQKC1Lx5c7uGBSxUoA6eiWnTppmbc/hMbtiwQT0b48aNU3H6jjAERvfv36fBgwdTjhw51HVatmypnlN9UTyfKIPFDOQWejQIHwT3CwsTFy5cUN9BAjFGjBUCCxqeeViZUrNYkSWw+rhKfOrGtU1n9WCuNIqROBmPO9pHvM2qU9foBLu1TWPl2801LX2w4jDVnxFAB5g8QI5cDqFIJk2QFrMCKJRd85a/XIENO/dp4LLD9MaivfRLx0qqPD5/oh48Um33ZOIxtnFxSpM2DbWYu5OJzRV6p0I+2syuct9sOU2tfg+kR6WiJ2qDItGm6O3BN4lWxe1qfx28ROThRuXyZVInDOdrLTlymTrP30M/8Th6/X2Qvm5WkormyGjV4DW2yMDKYxQQmUOMB0VEUtuyPsYiy/7AOoUt+452tjBBK8gWMFvujbAwjW9R0nI66jZjF76pTNAqsiVnxrZgKsMWrOuD/6dIrKUi7zQv6UOnYnDSx7cEXadqNogVyhErNYotbX1K56YtXarQcnare3fZAWpZMheVYGvbgWt36fcj+5kgFaaPmfTA/fD1RYHkzeSwbdk8FBL5gDZcCVWXghWr9Lf/UqfiPvRv9+K0j62AfZmY5sjoZmXJ0/2SrSAgCAgCSYUA4o1BQKZOnWpZ0ISiCDcbCNxvzGQJFhuzUgpSAnd7s8BND0QMihdc5k6ePEl+frzQxCvP5jZs9UW3BwUWhAukDFYwED6zwCUL/YWEhoaqFW9YDOCyJZJ8CPzvf/9T7o/GKyK2XSfZwjzx8bHWDTAXMK8gsFAa49txT2HdwLzx8vJSc8DocgdXThBlzEF74mzOgqyB2IO4w9ICl9KRI0dakW9z25jT+jmBi6lZDh48qNqDBQwEL2vWrMrKZC8cpWbNmqoJYGUmS86eSVh5YI3CcwJxhCE8wX7++WdVD4shGDsWStq3b6+O4c/du3ct96BSpUqEDwQ4bt26lWDt088VLE4QhNyAQIGYQho0aKC2qfWPFVlKNSAwEVrcsTKVzRtNJsqw5Sb3mFW0+uhVqucX+6MdwAr7ljM3KXhoI8qfJdqEm9HNhaYwoUmITGAC0JitPJC2RXLQCbbKfN6qlPqegVc35u05R+FRHDvlklYdc/ZnxKojlJUtJfhx2MykCmSvD7ukpYuJOUPczvxXKlGZr9dTYXZ1q89Ws/51Cj3W7CdrjrI73FGr4/fHP8/ubEygmMyAAGhB3NE6Jp1aSjAxGdXkcZcNXY4t3OKKeFubwvst2k9X7sa6F77I8VYvl8+r3PI+ZrLyRs2CqonKbCHb+MU6WrDvAnWvau0qCKLlnj7W0gmXwx/3naeNPaN/rFQDpj/F2WI3ha1ZkGoFs9In24Npz/lbiizh2At8f8Y1L4FdZZ27wFaocRtOKLKkDsb8mR4QRHkZ+x87ViDcrVqFshIIefAtWf004iT7goAgkPQIgCTB0oNV9bgK3JWgcBkFniM4bpbr16+rlXS4W0GxhAIFS1bXrl2V25SxHUd9GTZsmCJAUGRBmDp06GC+lHL1xwq5UerVq0dlypQxHpL9JEYA99R4X3G/cc80AcA8QWiGUVAfCj8kS5bYeGbMH8TSQFlHkjCItoZgH8QCSjusHo6sQc7m7PHjx5VFBO5oqDthwgQVB4W4KUftog/2BEQEcTzoO1wHEYMEiw3wMMbf2Ts/PscRH2SMEXKGoW4bboGINwJ5NT47cHW1JYgru3PnDsHqZ36uQA7hDgnCBjc/JHZLzZI6yZKnu4Uo4eb7cFKBCrm9WVm+bUWWAi+EkC8nSdBECXWbFMuhPth3JF3nB9Kha9HWB9Sb/gInL/ByV6eUzRNN0vDF0zUd1eYkCVoyxsQIISlCXCWCyR/IFaR+wWz0DpMM7TKm2yjt40XD2B1vFCdW+KFDXaXY6zK9HdW4JPWoZp1hEITLy9WFlxmir6EJnKd7OvKJIU/bLtxil7Zwp2TJ043jnCKi9OXUNltGF0tfph+6RMWys7WLydIKvhdItgEctYSyRWcrJ3AwkyVdfufeA3qT3Rtn7b9AvzM5rFM4lvjqOnpbPX/sDzhITikvV7rL52tp7J9T76pt4+I5adL2M1bH8AVzpAUTXrShBQkzRAQBQUAQSE4EEMcLKw0UpvgIlEesIhsF320plTiORbmmTZsqBQrnwPLQsGFD5W6lFTRnfQFJwmr4jBkzVJwFVuHz5ctn7AIhPgIxMRBcE6vcCNBHNlzEtYgkLwK4Z7CqgCjhvsB1C4J5Ajcwo9iaP7BefPTRR8plb9KkScbqah/WE8TmwAUM8U8QWBdBxLUg9AJx6s7mLOKhYK3ScxgJUDA34Z6HuHxbbepr2NtiTLB26TmJxQJYyTAX4d6WHOIMQyxQ4D6BHCL5BO6Vo2QoIFaIWYILX79+/axc9+C5BfKKDxJyQPR9SY6xPm3XSJVkCUkczJKBrS9hkdYPPCwEXjHkxVzf2ff6flmt3M2yG6wy5nP50gmST9mlzl5yBWPDfiAifDHfrNbWHV3HmwlQbhuJLUr68KoRc7fdHJMDywmkS6X86oP9t/44QNvO3SRkpJsWEERvslseLF1mKcnWp692nlEkCNYgiNEate7M9dhT7j/gJBIulJ3JlJaO7DZXPo+3/mq1RXa/mt9toQKernTirXqcjpzH6kBcbcwBY3VXk1XPHfX5x/IB/6dtlBB2zUSMmIggIAgIAv8lAljpxio6iEt8BFYBuEUZBavocJEyC+IwIMhYpgX1kEEPmdC0OOsLEgDAooCMZZs2baIPP/xQxcAY45Bh3TJm8kMAO9z9EBsDd0Cj65a+rmyTBgEo1CCpsHDALQv3WwsyKJtdNjGfjNYmWKEQ8wMLBe6f8T7DAgWXzqNHjyoXUmPMG8I96tevry9l2Tqbs8Z5g5PgMoh5GhQUpKxAttq0NG5nB+ebLbawxsDtLTnEHoaw1uHZ088kXB5BShG2gkRsRjzRT9TFYoZO9AICiOyDSN6BeEDcBxzD8waBBRAufYijErKkIEk9f6JCwwkZ1GBRgtxnK86WK3epZ9XYHwAcR7zOAY7hgYVDK/eIXxnLiQOW96huZU1AfaOYs8qhDLEyKVGKMPGo5puVPmc3tFqFqloNAdhM2X+RKmVxpxC2zIxiN74XSuWxkKWrdyL5XUzRxAnxPoiXmr6FCRUnhjDKgUuhdPBSCL1QPOYB5Wv+zy87Dagd6y7418HLlNfb2l0EbXAoGD03ays1RaKOdmUt7ofG9uO7v5uTY3Q3DDWQLV0eTIq0a6Nur1AWniOI6TLIxA2n6Cq7Fmo3PkOR7AoCgoAgkCQIICsdlDek2I6PQPFFpi8tsOJAYTKmftZliEWBOw7IilEQn4QYDi3O+qJXu+GuBWsFXgmCoH/jir9uy7iF0o7+weIgkjwIwA0LSjKIAu6VttboqyMDIiweqKfLMJ90TNPff/+tsjEiIUTJkrFxyfp8WGoQO4PU2GZXLyQTs6WgO5qzSGAAVz9Yl/Q8Q8wOPoiNs9em7o+9LdxbQUyMgu9GFzljWWLuO8IQBBBEFolSdJwXyCg+2hXS2Bck0/jzzz9VfX0cpBSWM9xDWP3gxocFDS3ADAQrNUv08r4BAW1mNxyy2sUPFeqkaGFyNJBjZeC6BqI0chXH6fC2bZk8VsNqBsWdLQofLz+i6uFdR8O5bjWO+XkMOKszn70vX7QoRUuOXibEGIEIQIBHuzk7KCrGta4wMvJxNrh5e8+p8j1sidpw7obK5ocDcLn7nNOTv7XsoEplHhbFDycfR/KKppzqnDjjn5beVXzpfSZnR67cUYe2cuxYq/m7KFsMwUXmvK83nlJlSziO6RiTsvEtS7F18CGFMmnDB+1DQtlC2HPhXlrGiRziKlN2naF1J6MVghOc8GHwppM0uHL+x07vwsfWnLxKi/dHB0NjzO+sP06NYmLSHjtBDggCgoAgkAQIIIsVXIziK8iCB3KDlMH4vx1KLSwFOjsesp0NHz5cNQsFDLEUyI6lE0WgPiwJuj4qxqcvWBHHyjVcsKDoagEhOnfunOWDdzshxThWxM0ue/oc2SY+Akh9jfuLODVYHjTx0FkJYclE+XfffacUaiRowDk65gYWEaQKB8HR52KLuYY5BMUdlhAo5MZyRyNxNGeRQfHGjRvKFQ3XwAeKPwiATmzgqG17ZS1atFAEA+8YhSCbH94FppNC2DvvSY7jGrC26gQnjjAEiQPJRPp/JF/BeOGGh+x+erxI+gI3Rwjik/B84zvuIRY6QJBKly6tFlrgEgsrEn4TQJ6QxAVxWTphxZOM51k4J1Y75dFgRQpgw/xmL9sdbgTqGLObpDgg2ELgzS5eHsP+5qzRacmDg/3X8UtTM3GqcFhKtOAdQxs5W9pL/ALSzwNOszKfllOH52I3Mz9dJdVs4X63q29d6vLbHsqJF9hyoguKuk99mNT8062qyiiIRBIL25enYRwXNSEgiOheFNX3y0H9a8Vakd6p70e5vNyoM78Hqedi/tGBOx77PM9oUZqu8EtxNcHpWcOXTnHiixJfbVCug3nZjXEKuxsWyBzt8vYjv3eqGFt1YKHayOm98ULdrLifBinqk4mOvvM/ussufd9vD6LC7H7YnGOP4iI9y+enJvP2UBSPgZh0da2Q32Y6cKRmn9K6LLVdsIdo/gN+LtzoQ05AobMYxuVaUkcQEAQEgYQigPfbIKVzfAVpmpFlDsHqULBgHcA7VpAOGoLMX3j/DLKJQRATBcUZyiPIE9yTEEtkDNSPb1+0Ox6uq9+dCBcipGbWAv0ELkFQrEWSDwGQHyjUZncuWJT++OMPlWEOij0UdJBoxC9hHiJpB9w5ofBDGTfHKeElt5hr0CmRSMAscOU0W5p0HWdzFuQA2RbxwmTMURA1JI5IyCtvkEobZB7vFEOfQSRg0TEuEuj+JXR75swZFX+IuCO4vjrCEGRt/PjxakEDfQTpxLOIl9Rq/NasWaPIIkgrMgMiRgnJKvCBxQjPFdqAoA6uB+scLL8ox3NoTB2f0PGlxPPTsKWInZiiBf7OmAxg944EP1r4ITVmSHFUPz5lCCrDD3dcJD51dXuwALz0x36K/KiRyloG5dyHlXdnAmtKZnd+D1VCA4ycXSgFlMNSc4azvflz6nE3trzZEqQgRzIIWzFQuj4yzMEChHZstwIXu0cU7crn/B7pdhO6LT5xPQ1BkgwmPWc5g58Pu/7ZG6e+Fij2ZR6Po/HqurIVBAQBQeBpQwAuO3ArwmKpdqdy1EcoUVCGJXbIEUqppwyqJCwWcMdMCt3QFpLO5iwsV1jYj69rqq1rGY/BYIC4KBCxp0m0m6CtVPzmfur7BTJmy/iB5xvukRgnCFhqFyvLEiY4THr/pcDPNa7vT9I+sU/aX1iS8ImLGNNmo/7c3edoLqf4tiWd+J1Jnfilt8+q4GW9yK7nSBDv5Uzy2EgmYT4HMUJxIbPm8xLjOwicvWQY5vZRV4iSGRX5LggIAikFAay665iHuPQZCpQQpbgglTrqgDjEZ/4kBirO5qzR2pkY19Nt6OQH+vvTso0LSdJ9dXa/8Hyb352mz02N27gxhWRExvzi2cS+NOJmWuVPeL54kKFnmRAlNu4pqb3qeTJbkn+kpH5LXwUBQUAQEAQEAUFAEBAEEhcBKze8xG1aWhMEBAFBQBAQBAQBQUAQEAQEAUEg5SJgL1Qk5Y5Iei4ICAKCgCAgCAgCgoAgIAgIAoJAIiAgZCkRQJQmBAFBQBAQBAQBQUAQEAQEAUHg2UNAyNKzd09lRIKAICAICAKCgCAgCAgCgoAgkAgICFlKBBClCUFAEBAEBAFBQBAQBAQBQUAQePYQELL07N1TGZEgIAgIAoKAICAICAKCgCAgCCQCAkKWEgFEaUIQEAQEAUFAEBAEBAFBQBAQBJ49BNIfPXr02RuVjEgQEAQEAUFAEBAEBAFBQBAQBASBBCKQJiIi4lEC25DTBQFBQBAQBAQBQUAQEAQEAUFAEHjmEBA3vGfulsqABAFBQBAQBAQBQUAQEAQEAUEgMRAQspQYKEobgoAgIAgIAoKAICAICAKCgCDwzCEgZOmZu6UyIEFAEBAEBAFBQBAQBAQBQUAQSAwEhCwlBorShiAgCAgCgoAgIAgIAoKAICAIPHMICFl65m6pDEgQEAQEAUFAEBAEBAFBQBAQBBIDASFLiYGitCEICAKCgCAgCAgCgoAgIAgIAs8cAkKWnrlbKgMSBAQBQUAQEAQEAUFAEBAEBIHEQCB9YjSSmG20adOGzp07Z7PJNGnSUPHixWns2LGUL18+m3XkoCAgCAgCgoAgIAgIAoKAICAICAKJgYAVWQoPD6cDBw5QSEgIPXpk+121ICyZMmWi0qVLU4YMGRKjD1ZtgCjt2LHD6pj+UqVKFWrQoAH17t2bvvvuO8qbN68ukm0yIhAScZ9OXg+j3N5u5OPp9sRXvhASQVfuRFHhrBkok7vVVHziNm+G36csGRKnrSfuhJwoCAgCgoAgIAgIAoKAIPBMIGClVR46dIgyZ86srDfp0qUjECOjgEA9ePCALl26RAcPHqTKlSsbi5Nlv2vXruTi4kK9evVKEsIUcf8hZR6xiva+WYeK5ciYLGOKy0XOM7Hw+zaAIob+z1L9yJW7VH7SJst3tePpTn1L+VD3qvmocDYPKj15M5XJlpGWdKloVe/s7Qjy57IxdQvTO3ULkfu4dUR371nVwZe2pXPTLy+XU8c3nb5BfZcepuNX7xC5uxBFRFKVvJnpq5YlqVK+TI+diwMd5++lBw8f0a8dy1vKp20NprfWnyIK4+u58hSMvE/tSvrQl61KUo6M3O4TyMHLd6jNL3so+FY4BfarRcVzPj33rsdv+8nLNR19+XxJy8gWHbhMn/97mnaH3KMGPM9GNS5KlfNGY3if8Rq/7hTNO3iJrkU+oOa+WWhMs6IJIqaWC8uOICAIPHMIBAcH09dff01HjhwhLy8veuGFF+jll1+2jPPw4cM0adIkCgoKomzZstFLL71ErVq1spTb24EXh4+PD73++uuqSkREhFqstFW/W7duVL9+fWrUqBG99tpr9Oqrr1qqHT9+nAYMGEBVq1al4cOH03vvvUcbNmywlKdNm5YyZsyoykeMGEHu7u6WMtn57xG4cuUKTZw4Uel9uDfPPfccde/endKnj1Yhnc2vJUuW0O+//07Xrl2jIkWKUJ8+fahkyej/DyMjI2nKlCm0efNmunfvHlWsWJEGDhxIWbNmdTjwFStW0M8//0zXr1+nAgUKUP/+/alMmTLqHOiomGNGyZMnD40bN854yO6+ed7rikePHqUff/yR9u/fT0WLFqXWrVtTnTp1dLHNLfrSuXNnWr16tVW5M8ysKvOXuXPn0l9//UW3bt1S18Z4/f39VTUYOr766ivaunWrMnRAN3/zzTfJ29vb3Iz6DqPEF198QRgPnrumTZuqZ1zr/Pv27VP35MyZM5QjRw7q2LGjqmOzsVRy0IosgQhhIru5uT1GlDQeIEyenp52rT+6XlJuO3XqRFFRUfTBBx/QnDlzEvVSbunSMjmoQHm8n44fayjVBy6G0vf7LxKFR9oc69Iulakok4NHD0mRhdm7zlGzuXvozKA6NK9dWao7YyvN3nGeulWJtcS9sfggVcmekd6uU8jS5of1i1CXyrF1UODhEj1FFuy9RF2WH6EZjYpSq5I5KTNbb26xFefH3eep1qxttLNXDSrt42lpy7jDur9F3vzzEG0OvkXL2pWh2oWykCvjHXQjnMauO0lVpgXQsbdqq2OWE+K4M3P7OaqYy4uOvlWH524cT0qGanN2naefj1+jzkWzW642L/AidVtxlBa2Lkn+TGT/DbpJtWfvoJ09qikMB/xxkA5evUvTudyLyeTMnWep6nfb6cSbtZ4IG8uFZUcQEASeOQROnTpFPXv2VMorlFAopCBOUHChdJ4+fVopp6jzzjvvKDf3zz77TCmm7dq1ewyPixcv0qpVqwiLp+vXrycsUGpxdXVV19LfsT127JhShAsWLKgOQ0cweqbs3r2bhgwZohQuKNhaoNB99NFH6it0j6tXr9Knn35K6BsIlcjTgQDmU5cuXRQxwP2Dsj558mS6cOECjRw50un8mjZtGq1Zs4YGDx6sFO8tW7Yowg3SUahQIUVyoFPinoM0z58/XynuixcvtquHLl26VPUBhAjzbufOnYqMT58+nYoVK6Y8pEDCMO+0OCPgjuY92sBCxNtvv636BjxOnjxJw4YNI4wP1zQLyBwWCUCS4K1llPg+k1OnTlVkEtcHufnzzz+VwQA4ADsQo5w5c6rnJywsTPUJY4cHlllu3rypfitAgPr160cY9+jRowl44fdj27ZtSrfGtUqUKKHuL55L6NxxWWAxX+9Z+W5FlvBDCKuNZpe2Boky1EHd5Jb8+fMTXPG0OOqnrmPerj95nSZsCqKOZXPTR+tP0sXwKGpdKCt907qUsmpEPXxIw/85QRXzZCIvdg+7xS5ng5YeonknrhP/D0Cdi+WgL1qUeCK3sat3o6jBzO30Q9syNGDpQdrNrmyvcHuT+Np9Fh2g305co+wZXGgGt9+seA7V9axMSkrn9qIBrmnp47XHzcNR33NnciffzNEukQW5zz6Z3GjeV5so8EIIVc3vTe/XLkx9lh+iBv5ZVb2ZO87R2jM36UC/mlbEIquHi6Ud44WAQRfu7zeNi1HnSnksRSBMA2v5UjomJ8G3w+2SJX3ChlM3aPqOs7R3YG0rqx36/M0LJWnE6hN0momTtuitPnaN3l99jA7eDKcmBbLQ582Kkb8Na197JoZLmXBAqny7hRa9WoHa8LHlr1WiPksOUQ4e17S2pQmE7+N1J+jMzTBlGRtevQAN/Z+fOu+FH3dTr2r5Cdj8zW1Vye5BC7md77aepbE7zxEx4xtR05fer19Y1cefiZtO06TtZ+lS1EPq4p+dvmLLkYdLbM6UY9fu0s+B5+m9ivnowp0Iy3nTdgTT0Er5qFWJnOoYrGCL2Ir0MxPPkU2K0uw952nFa5WpJluUIF+0LEHTRq2ltcevW+aFKuA/oWx5qjltK41ny9SwtSdo/40wqprLk75sXsJi7cPY+vFYv2Psl7J1sEBGV5rKVryGRbKpZkB6QWJ/PXWdfHn+TWpenD5cdYwWda5IBZ6SRQM9XtkKAoKANQL//POPsv5A+YFgwRMK0fjx4xVZgkIFhRKLjLocit+iRYvIFlmCtSBXrlzqA4uVUaDM1q5d23IIHiawGsycOVP1wVIQs7OeydYnn3xC77//vrI4GcuxKGt0pYd1AFYsrJKLPD0I7NmzR1mQoEhradGiBf3000/qq7P5tXbtWmVlrF69uqrv5+enLEJ79+5VVk60/8cffxAsPxBYMdu3b6+UeH1MFRj+wErVsmVLatiwoTqKNvEcgESAJMBqU758eWWlesg6HeatM3E073EuyB2spvqZAUFq1qyZ3WbhpQXLD+Y5ng+jOMNs06ZNyhKMZwdx+pcvX1bkSOu/sBgBg9DQUKWP37/P/4czYYIVCAJLkdGQgEWT7NmzK3IHogYLHKy/EPxeYOECpAmC+1WjRg3CPYYULlxYLZ6ARKVmsmQ1g+B6F1eJT924tmmsN2vWLGrcuDFhqwU/7ohn0h/j6pWu42wbcu8BrT19nUZvOkVTWClc9lI5Ossubo1m7SAYQGAFOX4llO49YDMNS+ufdtEBdndb+mIZms+kZs2ZWzSQFcsnkShePUPbvf44QB81KEJ/dChH845cpRwTN1F+7wy0jl3lnsufmdosOWhpvr5fNnaFy0UN/GItE5ZCOzvLuU3ycKWyebxUjQ+fK0Ils2akbuwOdobd1PqxVWNiY38qwoTAKNfDougUK9vGD8oPc58pgkllqVzG6pb9fkwimjPpcybb2KLky5YUTYaM9WFhGtu0qKUsIPgmtZq/h/pUKUCbulamPF48ntk7FTkwnof9XlXyU00mCA3zetMH9f0IrpQHL4dSl4X7ydMlHbUumYu/36Euv++lbuXzUECv6vRNQ38ayeQTxyGB7FrYlq1tzYrmoI1MssK5jYLfBFDgxRBa0b4MjWNXxRFrjrEL4l1V//ONp2nCtrM0lYntqg5l6TCf3+XXvaoMf+49eETdGe/JrUrxDzWzSYPsuRVBBWLIrT7sm9mdgnkeXgplUsWT0Fiejhcocnq50VkmpGaBiyPmVJvFB6hftQK07rWKVJwxrsWkHK6bEIzt1T8OUX1eFMAcK5fTi1pw35j7K2k1ZycFhYTTSn4WJjDp6s2LAwcuh1AUYyAiCAgCTzcCUMbMBOPu3bt0584dgtscFC2QEKOApMCSY0ugcEHZwidLlugFG1v1cAyE7Pnnn3+sfZSBRGHlf8yYMY8RJZSjbyBj+MCKNXv2bGUR0Moo6oj89wjUrVtXkRtjT+CmhcVriLP5BetG8+bNLafjfsM6BSUcLqPLly+n3LlzW8p37dql3DDNc9ZSgXcwd43noAz10RcIrJ24DshUrVq1lCXr/PnzqszeH2fzHnMUrnewsnTo0EG1uX37drvGBZBDPEMgHmZxhhmsOHh+QfQgcE3FfcBzfuLECeVOiPaBAZ5/6MnoPyxY0I9BlNq2bWu5LH4PYHGCwM3x888/V/uwPv/9998UEBCgLIc4CHdZeG1pgdUX5BMLLqlZrCxLTxMQMMVidUybZBO1b0yEFjBRKcMWG8gSdh8rMGEDrWZ3qbqsUGrZevY2QcE/Prgek5lotzwPjj35jpXkhMhnrJA+x5YIyAtMho6zpWMcx6RAMvCq3vx9F5SyniG9FZdV5bb+jGZLWFa2CDxk7XfzudvRhKwKLD7RSroLK+s/tS9LlaZuoWJTt1IdJlF9avg+1tTY9ScIH6Pc/aQJu8mx0s19McYTIe5oY4w1B/WLs0vfMCZljuQ0j9PPZKkYxMTzMpM0LW2Y2LQv60PjOGbngxqFqAfHXkEq5/Omfydtpt/3XaKuJlfBRuzitoDdFD2YGIFYwqIDwlExdyZFwHA+LIpvMKnSlqEKHB/Un60nSFRRiokW5L0KeS3X686Wn0HLD9NMdmNEwgiQ1qEcZ3WcyWQhjgX7aMMpWsFxWDgOgRWq4Pj1imgWzsrlK45RGyaXtmKnIpmEuLtY31s3xjfiTiRz0ugfxwyI5TKIN5eHx5QZDlt2J9QrbMGlBlvhtrNVcVrAWfqkSbRPc6fiOQmkFjKmiSstZcvjJb5e0M27tOPCbQp+tz7ljEnWAZLUaUGgpW3ZEQQEgacXgUqVKimXpJUrV1KTJk3UavNvv/2mOnzjxg3lbgfXHaPAMwRuNwkRWI2gkGqLlrGtZcuWKTctJIPCar+2KhjrQCl+8cUXjYdU/AeSR4k8PQhAGcdHy8KFC5UVB654EMQZOZpfRsKN+QgCDYW9bNmy6nxYPLQgFgjxS4jxcWQNwtw1u9VhTqN9CAgFrDqI4wEpR7wV3AB/+eUXu+RG98HeFkQEbn4VKlRQ1i+4E8Jig7gpHTtk71zzcWeYIZEZPmaBPgy3P3hVafyNdeDWirglWIaNVi+zZUufg9hFkDIQOh3vBQKrBWQNRA0kDQQxNYu1RvYUIYHgVEwMHaSKgLSPP/5YmfQTnDY8o5uFKGHIUBIrcLzLPo4NMpKl/RdCqQArvpoooW5jJjn4OJOev++nIzFWCNSd/Hwpvk508oKyMSQNxz2ZfNVla5IWfIfEx2oWyeQv/P4DdV4938z0do2CHHsUbdJWB/kPCMGH7I43ZsNJmvlidbK2dUTXGs7Wlq6Vo1eL9HkgXF5u3Cd1jYdM5qKVfC+39JQzJhnDrvMhdI6tGMPIMVnydHVht0a2UhkkC1vAHsV0Zvrhq1SU8QZZWsX3AtYZ4KglNOoBbTt700IK9HF7204VYjEAqanEOC85eJn28n2FdREJKkAwtZTyif2RACn2y+ZpnVmPx47qp5lg0b0o+oHjkeYGXtCnK0K5LZjJ6rUw2nb+Fm1oXi22zLjHmMIiZBQkdUjLx/mfEriDGiWSyx25nZrnZLMi2WnPpVg/6UoxySPQJtw2IWGcWCPwfKgapyZKOF6nsOPVZNQREQQEgacDAQTK4/9JxE9ghRmr7rD2IKYCZAVKJ1aHjYLvjn5PjHXt7S9YsIDq169PHh7WHgqoj/+voajevn1bKcdQ/JAUwChwKYIipgUxMDgH7l6wMok8XQhAYUaChHXr1tGoUaMsCb7iOr+gxCMuCRYlJBcwC9zcQEbggocEXhAQHb2P75izsJpga2tOa4KFOiBh+jvi4EDMYR2Cy56tNtG+I8H1YL1CnBYEVqOzZ8/SvHnz1LPn6FxzWVwxM5+HJCqIl4I1CETt22+/VcRT10MSF9wnkMNXXnmFsGhhJpW6Lra4l0hAMXToUOXGh9goLXiGcRzPMAgafktSszy1ZAl+qzoDD24aJjf+E8AWZt30nIeVAAAMoklEQVSEEKY07PJlFlde6Q9jFz2jhLBCnImtFU8idQtmY5eyaIsFzs/mIMtbmjSP9yc+1xzFSRfsJVcwtoPseKyRW7l4GcszMQHKze5uZimRk8fBun0gWyBgtYCAiGgyMuTvo4ocXAyNpO+3BVP/WgWtSUZMg7CyTN59TrnJuceQLqM1auOZLTE1ecPEKDOnE8/uEbui9QpnzCtrIDSxlW3v5TVYsXYyoav9w05qwoSpNhPKEQ2KUHOOE3MkJu85S9W7MRaeHEy60xsqDWJrXsGs7vQ6u/P5sVtlf07UANl6/jbd4tiit5ceoYmtipMvj+tqmPWq7s2w6JTnWTJE43+drT7GeKEzHFsH66E9QWISowDfu/fuWw65mMp1AUg2LI9GsaZpxhLZFwQEgacRAQRjI8YA2a2wQgw3p19//VUFf2OlGO42RkE5AsOfVLDKjlgTuOHZEsRDwOIFAUmC6xKsCcYMZ7AEIChdC/Yxjh49eigLgbGuriPb/wYBxLOAxCIOB1nZEF+mJS7zCzobYpygvyFLopGow0qEOCO4zmE+wW1OC+KI4H5mFsxdeB4ZBXNSW0WM8wp10F+UIbsbYo1stWlsy9Y+zkcclFFKlSql+m08Fpf9uGCm2wFJg2sdrg3igxAYLIYgM97GjRupYMGCFBQUZCFNeKUPYgTh3gjrrRFPtIm6iHFCrBIEBBCZ9fAB0cL5yEwIVzwsciApTEJ+K9RFnoE/Ty1Z0pYkvFMJqxjav1oTJjDmJ5VHHGx/5c49i9sRVvW3sRWoR0Vrq0ohtnIc4OQCsNwgpgaC9NmfcbzKUo5rsVYxrXtjTISgS/BeoZQofkyyqjJJmrgpiBZ2srY6AJtvODlBFY65CWVyOYbd+FqxK12WDNFWmiucjjx3jHsXYp4QLzWDkyIMiHEJ03ggdugQx948zzFDkLJ8TcTY9KkR+6OMWCxtFdHnOdq6IvNEjEzaHEQvFs5Gc1+JToOuDsdY43SduG5VrBevbMEdULvwwU40i5NDFGFrVBdOHnKNk3loceW66fmj+1OWSfRedpPTgnM3cWzUwMr5ol0d2doWyNYvuApC1LxhHIs5SIe+m9tDogwte9mq5Mfz15kU4fimI+xaGMYEUCen2M7WMRFBQBBIGQiACIEY9e3b15KVCyv0yGQFKcjKFGIS4K2glVQkeNAxJ08ySihpUGRtxWOgPaPbFhQ3WAvw/zgsR44E1iX0ExYFkacDAdwPWDGgrMN6qa01unfO5heUdngJgTDpOanPxRZWH+h1qGNOdY05BvJsFpAfLAxoQR9BtkAikMAArn6wVGmrClzNELcDa5O9NnVb9rYgWUhTbhS4/YFAxlecYWZsD3hjEQHPEcanBaQJsU0gP2+88YZyd9VxXjgHzzrKzQJ3XVim4B6rBW2BlAFHxHbhWiBJeAWBSDQC1svRfEwDZg8ggIk6SS1YgcALchFspomSvqb5uz4e5y2To0G8yo8gfhClMWtPqhiX1qViV7nQVtNi7G7HK/TDV51Q9RAwP5Ljg6rm8XZIlOLcjxRU8TNOvrD02FVCjBGy+kGAR4e5gfSI3dkgIJfk5kIL9l1U36Hw/3suxGINys5Z6cZx9rkhK4+qVOZQ0EEUdnGdlpy9Dlhr6cXugO/xe4iOxrgybuf4sTYL91HWGAvdqDUnaPKWM7q6020Uk7o7bK3i6as+n6r3PEXyK57Qg/gJXCXbl/ahd5cfVdkSMYemBpyhidwfjBEZ9r5oWdzyaeqfg10tvenT5sXUhdoxaZx/4CIhOyDO/YbPu3IrjJ7nlOyQ10vkopEbT6qU6sh29z7HP3l7e/B7mLxVua2xD11znBNARCsYIJXLjl+lLhXzqvqO/jRBYg62KA75+7AaC/D+kNtKdRPcEUhSJgg8xQggsBsZrOB6hP+boSwiZgnxSxCsDmMVHnELWFFGKm+kctaZxBAnMmLECOU6F9dhIiUykkRA8XQmUIChfGG1GlnPtCBuA+RIfzAG9BFB9PayoOlzZZt8CEC5hiUSCjtILBIF4AMrBMTZ/Pr+++9VDJKvr6/lXJyPuQpdDoo73L2QZVm3ja0jgbUSMXPI0IZ2YLVC0gTMaSwCYL5/+eWXqgzlEyZMUHE8ZsuQo2uYyxADhDTgeF4ggYGB6l1h+jkz13f03RlmxmcSpAdWWiyIINECBM8vnmNkpgQBxTOGGCYsnGC8cMMDAdLjRRnII6RmzZoKK3zHPYSbHeLE4M4Ll1q4wMIKjARrxvuR0BhHdfEU/Mfqlw7mN0w4BIcBaFuCG4E6qJuUkmBC5KhzXu7kza5QWUavYaUwLbmygruyYwWVDhyZ1LQgYcAaDuJ/lTOHfbk9WCnzr7Jy2beWr66SarZwv0MWue6cdW3qp/8oBRuucr05EcKqVyvRR6xgw51rHqfoHvnPSZrIaaoR11OHrUNv1IjFa1DtguTD7mvdVh2lPkvZDQ4Eie/BtGbFlbUvjMkBBO+EQla+clMCCK6DuTnd9eTGxSyuaT9zQgf/LB6PWajs3RBYshr8EkgZRq9VVfqWz0svsFtflyUHqFmJaGuWvXNtHZ/YsiT1XrSffMYxFunTUSVOaT7t+RK8mmOrtvWxl8rnph2ciKPJDzvU2DC+qa1KU1FOkgEZ3aQoBXFmveJfbiTkZffwdKdl/GJg3batsb/MBMv/600KS7QxoWlxqls4NlkJjtkSN25/J2cb7ImxjGVs+N7M5XvRaWEguRjIq61z5ZggIAj89whAmRo0aJCK99CxPkjxi+BtCEgNyAqUR5SDMMFlTydXQJIGKKx4wWZc3duxmm10xXKGApRDKLLog072gHfj4JpakCQAQf/oq8jTgwDcLUGWNLnWPSvIFkske3A0v+Aah7geKOP4GGU0v9tHWzR0yIWxHITAbGnS5UgbjsV0WLxA2GFJQQKHQoUKqSqwVsGSWa9ePWVhwVxFnBRcP59UQNDwTjM8a3iGYDiAu6kZl7i07wgznG9+Jj/88EMVs4/rQffGeDF2bdnFS3SRZhzPPUgnLGjAQFu9kFYdej3ineCmizEgDgnWPlifypUrR2gDgkyHWHABdkaBlQn9SK2ShlcKLEvrYI64SXrFwB4ouFmYfAmZePbaRtAn/DPjIvGpq9v789AVeumvwxT+bj0K4fcHhbErlk+Mm5iuY2sLawreK2SO77BV91k/BmtHMLsnFmHlHsq2LQHRyeBiOwZK10eME1z3/Lkd262wpZN/kK7ejYzTPdLt2tvCigOXNrjy4T7CynSNM/EZs/zZO9fecZBrZKlDxrz4ChJYwB00H/dHEyFjG8D5LidhcDQ/8Q4sHyb9R96uxy9SdlMZ7pCQxB6exvaxD+sqXCArs8tfFOMDXGARrD5tC90d2diSUdF8nnwXBASBpw8BrKgjENvWYieUOwRzZ8uWLUn+73760JAeJScC/8X8gs4K1zi4n2kXU+OY8UJduOIldswNLDiw6Nq6pvH6zvbjixksPSCgID62rq2zAcYl3g/XhuEDhDSpjR/OcEgJ5VYaHsiPDvr6rzpvfvGso34kxOca7WZi61ImsoLA7uXMCvW8wIuc4vuizfovc8zKK2w9eFbFi93QdKyOvTEifbYzQTIJWwkljOchG58jsmCs62wfyRiM7y8CQTHfV2dtmMuRSEEnqzCXOfsOomnMtGiuD5zxiasgrs6YFCKu59Xmd4yN5tTjr3PM1MXQe9Tvz4PUqUweIUpxBVDqCQJPCQLGNM3mLkG5Mr+bxlxHvgsCT4rAfzG/oLM6mtPGtORPOi5b55kTSNiqE5dj8cUMbnK2sk/qa8WFJOm6uLaOcdLHZGsfgbgxBfvnJ3oJXjyblAILQGt+Z09CBWToWSZECcVHzk8eBEAAq/lm4VCxuJMqY8+QCn5Tt8r8gt4T9FHAGfJzd6HmnHZ8eKMixmqyLwgIAoKAICAICAKCQKpEwMoNL1UiIIMWBAQBQUAQEAQEAUFAEBAEBAFBwAYCHF0vIggIAoKAICAICAKCgCAgCAgCgoAgYEZAyJIZEfkuCAgCgoAgIAgIAoKAICAICAKCACMgZEmmgSAgCAgCgoAgIAgIAoKAICAICAI2EBCyZAMUOSQICAKCgCAgCAgCgoAgIAgIAoKAkCWZA4KAICAICAKCgCAgCAgCgoAgIAjYQEDIkg1Q5JAgIAgIAoKAICAICAKCgCAgCAgCafgtvo8EBkFAEBAEBAFBQBAQBAQBQUAQEAQEAWsExLJkjYd8EwQEAUFAEBAEBAFBQBAQBAQBQUAhIGRJJoIgIAgIAoKAICAICAKCgCAgCAgCNhD4PwfxHEM9Rri6AAAAAElFTkSuQmCC;" vertex="1" parent="1">
          <mxGeometry x="720" y="1930" width="432.31" height="120" as="geometry" />
        </mxCell>
      </root>
    </mxGraphModel>
  </diagram>
</mxfile>
